<?xml version="1.0" encoding="utf-8" standalone="no"?>
<!DOCTYPE svg PUBLIC "-//W3C//DTD SVG 1.1//EN"
  "http://www.w3.org/Graphics/SVG/1.1/DTD/svg11.dtd">
<svg xmlns:xlink="http://www.w3.org/1999/xlink" width="388.61375pt" height="294.115pt" viewBox="0 0 388.61375 294.115" xmlns="http://www.w3.org/2000/svg" version="1.1">
 <metadata>
  <rdf:RDF xmlns:dc="http://purl.org/dc/elements/1.1/" xmlns:cc="http://creativecommons.org/ns#" xmlns:rdf="http://www.w3.org/1999/02/22-rdf-syntax-ns#">
   <cc:Work>
    <dc:type rdf:resource="http://purl.org/dc/dcmitype/StillImage"/>
    <dc:date>2026-03-22T02:18:42.769737</dc:date>
    <dc:format>image/svg+xml</dc:format>
    <dc:creator>
     <cc:Agent>
      <dc:title>Matplotlib v3.10.8, https://matplotlib.org/</dc:title>
     </cc:Agent>
    </dc:creator>
   </cc:Work>
  </rdf:RDF>
 </metadata>
 <defs>
  <style type="text/css">*{stroke-linejoin: round; stroke-linecap: butt}</style>
 </defs>
 <g id="figure_1">
  <g id="patch_1">
   <path d="M 0 294.115 
L 388.61375 294.115 
L 388.61375 0 
L 0 0 
z
" style="fill: #ffffff"/>
  </g>
  <g id="axes_1">
   <g id="patch_2">
    <path d="M 46.64375 260.05875 
L 381.41375 260.05875 
L 381.41375 7.2 
L 46.64375 7.2 
z
" style="fill: #ffffff"/>
   </g>
   <g id="line2d_1">
    <path d="M 80.12075 36.661524 
L 214.02875 144.764439 
L 347.93675 206.703234 
" clip-path="url(#p5e8efac5f2)" style="fill: none; stroke: #cccccc; stroke-opacity: 0.7; stroke-linecap: square"/>
    <defs>
     <path id="m6dbb7256cb" d="M 0 1.5 
C 0.397805 1.5 0.77937 1.341951 1.06066 1.06066 
C 1.341951 0.77937 1.5 0.397805 1.5 0 
C 1.5 -0.397805 1.341951 -0.77937 1.06066 -1.06066 
C 0.77937 -1.341951 0.397805 -1.5 0 -1.5 
C -0.397805 -1.5 -0.77937 -1.341951 -1.06066 -1.06066 
C -1.341951 -0.77937 -1.5 -0.397805 -1.5 0 
C -1.5 0.397805 -1.341951 0.77937 -1.06066 1.06066 
C -0.77937 1.341951 -0.397805 1.5 0 1.5 
z
" style="stroke: #cccccc; stroke-opacity: 0.7"/>
    </defs>
    <g clip-path="url(#p5e8efac5f2)">
     <use xlink:href="#m6dbb7256cb" x="80.12075" y="36.661524" style="fill: #cccccc; fill-opacity: 0.7; stroke: #cccccc; stroke-opacity: 0.7"/>
     <use xlink:href="#m6dbb7256cb" x="214.02875" y="144.764439" style="fill: #cccccc; fill-opacity: 0.7; stroke: #cccccc; stroke-opacity: 0.7"/>
     <use xlink:href="#m6dbb7256cb" x="347.93675" y="206.703234" style="fill: #cccccc; fill-opacity: 0.7; stroke: #cccccc; stroke-opacity: 0.7"/>
    </g>
   </g>
   <g id="line2d_2">
    <path d="M 80.12075 67.514931 
L 214.02875 144.764439 
L 347.93675 175.849827 
" clip-path="url(#p5e8efac5f2)" style="fill: none; stroke: #cccccc; stroke-opacity: 0.7; stroke-linecap: square"/>
    <g clip-path="url(#p5e8efac5f2)">
     <use xlink:href="#m6dbb7256cb" x="80.12075" y="67.514931" style="fill: #cccccc; fill-opacity: 0.7; stroke: #cccccc; stroke-opacity: 0.7"/>
     <use xlink:href="#m6dbb7256cb" x="214.02875" y="144.764439" style="fill: #cccccc; fill-opacity: 0.7; stroke: #cccccc; stroke-opacity: 0.7"/>
     <use xlink:href="#m6dbb7256cb" x="347.93675" y="175.849827" style="fill: #cccccc; fill-opacity: 0.7; stroke: #cccccc; stroke-opacity: 0.7"/>
    </g>
   </g>
   <g id="line2d_3">
    <path d="M 80.12075 113.911032 
L 214.02875 137.109083 
L 347.93675 160.307133 
" clip-path="url(#p5e8efac5f2)" style="fill: none; stroke: #cccccc; stroke-opacity: 0.7; stroke-linecap: square"/>
    <g clip-path="url(#p5e8efac5f2)">
     <use xlink:href="#m6dbb7256cb" x="80.12075" y="113.911032" style="fill: #cccccc; fill-opacity: 0.7; stroke: #cccccc; stroke-opacity: 0.7"/>
     <use xlink:href="#m6dbb7256cb" x="214.02875" y="137.109083" style="fill: #cccccc; fill-opacity: 0.7; stroke: #cccccc; stroke-opacity: 0.7"/>
     <use xlink:href="#m6dbb7256cb" x="347.93675" y="160.307133" style="fill: #cccccc; fill-opacity: 0.7; stroke: #cccccc; stroke-opacity: 0.7"/>
    </g>
   </g>
   <g id="line2d_4">
    <path d="M 80.12075 67.514931 
L 214.02875 160.307133 
L 347.93675 206.703234 
" clip-path="url(#p5e8efac5f2)" style="fill: none; stroke: #cccccc; stroke-opacity: 0.7; stroke-linecap: square"/>
    <g clip-path="url(#p5e8efac5f2)">
     <use xlink:href="#m6dbb7256cb" x="80.12075" y="67.514931" style="fill: #cccccc; fill-opacity: 0.7; stroke: #cccccc; stroke-opacity: 0.7"/>
     <use xlink:href="#m6dbb7256cb" x="214.02875" y="160.307133" style="fill: #cccccc; fill-opacity: 0.7; stroke: #cccccc; stroke-opacity: 0.7"/>
     <use xlink:href="#m6dbb7256cb" x="347.93675" y="206.703234" style="fill: #cccccc; fill-opacity: 0.7; stroke: #cccccc; stroke-opacity: 0.7"/>
    </g>
   </g>
   <g id="line2d_5">
    <path d="M 80.12075 67.514931 
L 214.02875 160.307133 
L 347.93675 206.703234 
" clip-path="url(#p5e8efac5f2)" style="fill: none; stroke: #cccccc; stroke-opacity: 0.7; stroke-linecap: square"/>
    <g clip-path="url(#p5e8efac5f2)">
     <use xlink:href="#m6dbb7256cb" x="80.12075" y="67.514931" style="fill: #cccccc; fill-opacity: 0.7; stroke: #cccccc; stroke-opacity: 0.7"/>
     <use xlink:href="#m6dbb7256cb" x="214.02875" y="160.307133" style="fill: #cccccc; fill-opacity: 0.7; stroke: #cccccc; stroke-opacity: 0.7"/>
     <use xlink:href="#m6dbb7256cb" x="347.93675" y="206.703234" style="fill: #cccccc; fill-opacity: 0.7; stroke: #cccccc; stroke-opacity: 0.7"/>
    </g>
   </g>
   <g id="line2d_6">
    <path d="M 80.12075 67.514931 
L 214.02875 160.307133 
L 347.93675 222.245928 
" clip-path="url(#p5e8efac5f2)" style="fill: none; stroke: #cccccc; stroke-opacity: 0.7; stroke-linecap: square"/>
    <g clip-path="url(#p5e8efac5f2)">
     <use xlink:href="#m6dbb7256cb" x="80.12075" y="67.514931" style="fill: #cccccc; fill-opacity: 0.7; stroke: #cccccc; stroke-opacity: 0.7"/>
     <use xlink:href="#m6dbb7256cb" x="214.02875" y="160.307133" style="fill: #cccccc; fill-opacity: 0.7; stroke: #cccccc; stroke-opacity: 0.7"/>
     <use xlink:href="#m6dbb7256cb" x="347.93675" y="222.245928" style="fill: #cccccc; fill-opacity: 0.7; stroke: #cccccc; stroke-opacity: 0.7"/>
    </g>
   </g>
   <g id="line2d_7">
    <path d="M 80.12075 83.057625 
L 214.02875 160.307133 
L 347.93675 222.245928 
" clip-path="url(#p5e8efac5f2)" style="fill: none; stroke: #cccccc; stroke-opacity: 0.7; stroke-linecap: square"/>
    <g clip-path="url(#p5e8efac5f2)">
     <use xlink:href="#m6dbb7256cb" x="80.12075" y="83.057625" style="fill: #cccccc; fill-opacity: 0.7; stroke: #cccccc; stroke-opacity: 0.7"/>
     <use xlink:href="#m6dbb7256cb" x="214.02875" y="160.307133" style="fill: #cccccc; fill-opacity: 0.7; stroke: #cccccc; stroke-opacity: 0.7"/>
     <use xlink:href="#m6dbb7256cb" x="347.93675" y="222.245928" style="fill: #cccccc; fill-opacity: 0.7; stroke: #cccccc; stroke-opacity: 0.7"/>
    </g>
   </g>
   <g id="line2d_8">
    <path d="M 80.12075 67.514931 
L 214.02875 206.703234 
L 347.93675 237.556641 
" clip-path="url(#p5e8efac5f2)" style="fill: none; stroke: #cccccc; stroke-opacity: 0.7; stroke-linecap: square"/>
    <g clip-path="url(#p5e8efac5f2)">
     <use xlink:href="#m6dbb7256cb" x="80.12075" y="67.514931" style="fill: #cccccc; fill-opacity: 0.7; stroke: #cccccc; stroke-opacity: 0.7"/>
     <use xlink:href="#m6dbb7256cb" x="214.02875" y="206.703234" style="fill: #cccccc; fill-opacity: 0.7; stroke: #cccccc; stroke-opacity: 0.7"/>
     <use xlink:href="#m6dbb7256cb" x="347.93675" y="237.556641" style="fill: #cccccc; fill-opacity: 0.7; stroke: #cccccc; stroke-opacity: 0.7"/>
    </g>
   </g>
   <g id="line2d_9">
    <path d="M 80.12075 57.307789 
L 214.02875 206.703234 
L 347.93675 253.099335 
" clip-path="url(#p5e8efac5f2)" style="fill: none; stroke: #cccccc; stroke-opacity: 0.7; stroke-linecap: square"/>
    <g clip-path="url(#p5e8efac5f2)">
     <use xlink:href="#m6dbb7256cb" x="80.12075" y="57.307789" style="fill: #cccccc; fill-opacity: 0.7; stroke: #cccccc; stroke-opacity: 0.7"/>
     <use xlink:href="#m6dbb7256cb" x="214.02875" y="206.703234" style="fill: #cccccc; fill-opacity: 0.7; stroke: #cccccc; stroke-opacity: 0.7"/>
     <use xlink:href="#m6dbb7256cb" x="347.93675" y="253.099335" style="fill: #cccccc; fill-opacity: 0.7; stroke: #cccccc; stroke-opacity: 0.7"/>
    </g>
   </g>
   <g id="line2d_10">
    <path d="M 80.12075 160.307133 
L 214.02875 206.703234 
L 347.93675 253.099335 
" clip-path="url(#p5e8efac5f2)" style="fill: none; stroke: #cccccc; stroke-opacity: 0.7; stroke-linecap: square"/>
    <g clip-path="url(#p5e8efac5f2)">
     <use xlink:href="#m6dbb7256cb" x="80.12075" y="160.307133" style="fill: #cccccc; fill-opacity: 0.7; stroke: #cccccc; stroke-opacity: 0.7"/>
     <use xlink:href="#m6dbb7256cb" x="214.02875" y="206.703234" style="fill: #cccccc; fill-opacity: 0.7; stroke: #cccccc; stroke-opacity: 0.7"/>
     <use xlink:href="#m6dbb7256cb" x="347.93675" y="253.099335" style="fill: #cccccc; fill-opacity: 0.7; stroke: #cccccc; stroke-opacity: 0.7"/>
    </g>
   </g>
   <g id="matplotlib.axis_1">
    <g id="xtick_1">
     <g id="line2d_11">
      <defs>
       <path id="m6a8cff95ad" d="M 0 0 
L 0 -3.5 
" style="stroke: #000000; stroke-width: 0.6"/>
      </defs>
      <g>
       <use xlink:href="#m6a8cff95ad" x="80.12075" y="260.05875" style="stroke: #000000; stroke-width: 0.6"/>
      </g>
     </g>
     <g id="text_1">
      <!-- K = 3 -->
      <g transform="translate(65.836375 271.157187) scale(0.1 -0.1)">
       <defs>
        <path id="DejaVuSerif-4b" d="M 353 0 
L 353 331 
L 947 331 
L 947 4331 
L 353 4331 
L 353 4666 
L 2175 4666 
L 2175 4331 
L 1581 4331 
L 1581 2566 
L 3591 4331 
L 3084 4331 
L 3084 4666 
L 4634 4666 
L 4634 4331 
L 4109 4331 
L 2106 2572 
L 4347 331 
L 4878 331 
L 4878 0 
L 3794 0 
L 1581 2216 
L 1581 331 
L 2175 331 
L 2175 0 
L 353 0 
z
" transform="scale(0.015625)"/>
        <path id="DejaVuSerif-20" transform="scale(0.015625)"/>
        <path id="DejaVuSerif-3d" d="M 678 2894 
L 4684 2894 
L 4684 2394 
L 678 2394 
L 678 2894 
z
M 678 1619 
L 4684 1619 
L 4684 1119 
L 678 1119 
L 678 1619 
z
" transform="scale(0.015625)"/>
        <path id="DejaVuSerif-33" d="M 622 4469 
Q 988 4606 1323 4678 
Q 1659 4750 1953 4750 
Q 2638 4750 3022 4454 
Q 3406 4159 3406 3634 
Q 3406 3213 3140 2930 
Q 2875 2647 2388 2547 
Q 2963 2466 3280 2130 
Q 3597 1794 3597 1259 
Q 3597 606 3158 257 
Q 2719 -91 1894 -91 
Q 1528 -91 1179 -12 
Q 831 66 488 225 
L 488 1131 
L 838 1131 
Q 869 681 1141 450 
Q 1413 219 1906 219 
Q 2384 219 2661 495 
Q 2938 772 2938 1253 
Q 2938 1803 2653 2086 
Q 2369 2369 1819 2369 
L 1522 2369 
L 1522 2688 
L 1678 2688 
Q 2225 2688 2498 2914 
Q 2772 3141 2772 3597 
Q 2772 4006 2547 4223 
Q 2322 4441 1900 4441 
Q 1478 4441 1245 4241 
Q 1013 4041 972 3647 
L 622 3647 
L 622 4469 
z
" transform="scale(0.015625)"/>
       </defs>
       <use xlink:href="#DejaVuSerif-4b"/>
       <use xlink:href="#DejaVuSerif-20" transform="translate(74.707031 0)"/>
       <use xlink:href="#DejaVuSerif-3d" transform="translate(106.494141 0)"/>
       <use xlink:href="#DejaVuSerif-20" transform="translate(190.283203 0)"/>
       <use xlink:href="#DejaVuSerif-33" transform="translate(222.070312 0)"/>
      </g>
     </g>
    </g>
    <g id="xtick_2">
     <g id="line2d_12">
      <g>
       <use xlink:href="#m6a8cff95ad" x="214.02875" y="260.05875" style="stroke: #000000; stroke-width: 0.6"/>
      </g>
     </g>
     <g id="text_2">
      <!-- K = 5 -->
      <g transform="translate(199.744375 271.157187) scale(0.1 -0.1)">
       <defs>
        <path id="DejaVuSerif-35" d="M 3219 4666 
L 3219 4153 
L 1081 4153 
L 1081 2816 
Q 1244 2928 1461 2984 
Q 1678 3041 1947 3041 
Q 2703 3041 3140 2622 
Q 3578 2203 3578 1478 
Q 3578 738 3136 323 
Q 2694 -91 1894 -91 
Q 1572 -91 1234 -12 
Q 897 66 544 225 
L 544 1131 
L 897 1131 
Q 925 688 1179 453 
Q 1434 219 1894 219 
Q 2388 219 2653 544 
Q 2919 869 2919 1478 
Q 2919 2084 2655 2407 
Q 2391 2731 1894 2731 
Q 1613 2731 1398 2631 
Q 1184 2531 1019 2322 
L 750 2322 
L 750 4666 
L 3219 4666 
z
" transform="scale(0.015625)"/>
       </defs>
       <use xlink:href="#DejaVuSerif-4b"/>
       <use xlink:href="#DejaVuSerif-20" transform="translate(74.707031 0)"/>
       <use xlink:href="#DejaVuSerif-3d" transform="translate(106.494141 0)"/>
       <use xlink:href="#DejaVuSerif-20" transform="translate(190.283203 0)"/>
       <use xlink:href="#DejaVuSerif-35" transform="translate(222.070312 0)"/>
      </g>
     </g>
    </g>
    <g id="xtick_3">
     <g id="line2d_13">
      <g>
       <use xlink:href="#m6a8cff95ad" x="347.93675" y="260.05875" style="stroke: #000000; stroke-width: 0.6"/>
      </g>
     </g>
     <g id="text_3">
      <!-- K = 7 -->
      <g transform="translate(333.652375 271.157187) scale(0.1 -0.1)">
       <defs>
        <path id="DejaVuSerif-37" d="M 3609 4347 
L 1784 0 
L 1319 0 
L 3059 4153 
L 903 4153 
L 903 3578 
L 538 3578 
L 538 4666 
L 3609 4666 
L 3609 4347 
z
" transform="scale(0.015625)"/>
       </defs>
       <use xlink:href="#DejaVuSerif-4b"/>
       <use xlink:href="#DejaVuSerif-20" transform="translate(74.707031 0)"/>
       <use xlink:href="#DejaVuSerif-3d" transform="translate(106.494141 0)"/>
       <use xlink:href="#DejaVuSerif-20" transform="translate(190.283203 0)"/>
       <use xlink:href="#DejaVuSerif-37" transform="translate(222.070312 0)"/>
      </g>
     </g>
    </g>
    <g id="text_4">
     <!-- Depth K (number of state-update operations) -->
     <g transform="translate(99.7225 284.835312) scale(0.1 -0.1)">
      <defs>
       <path id="DejaVuSerif-44" d="M 1581 331 
L 2163 331 
Q 3072 331 3558 850 
Q 4044 1369 4044 2338 
Q 4044 3306 3559 3818 
Q 3075 4331 2163 4331 
L 1581 4331 
L 1581 331 
z
M 353 0 
L 353 331 
L 947 331 
L 947 4331 
L 353 4331 
L 353 4666 
L 2209 4666 
Q 3416 4666 4089 4050 
Q 4763 3434 4763 2338 
Q 4763 1238 4088 619 
Q 3413 0 2209 0 
L 353 0 
z
" transform="scale(0.015625)"/>
       <path id="DejaVuSerif-65" d="M 3469 1600 
L 991 1600 
L 991 1575 
Q 991 903 1244 561 
Q 1497 219 1991 219 
Q 2369 219 2611 417 
Q 2853 616 2950 1006 
L 3413 1006 
Q 3275 459 2904 184 
Q 2534 -91 1931 -91 
Q 1203 -91 761 389 
Q 319 869 319 1663 
Q 319 2450 753 2931 
Q 1188 3413 1894 3413 
Q 2647 3413 3050 2948 
Q 3453 2484 3469 1600 
z
M 2791 1931 
Q 2772 2513 2545 2808 
Q 2319 3103 1894 3103 
Q 1497 3103 1269 2806 
Q 1041 2509 991 1931 
L 2791 1931 
z
" transform="scale(0.015625)"/>
       <path id="DejaVuSerif-70" d="M 1313 1825 
L 1313 1497 
Q 1313 897 1542 583 
Q 1772 269 2209 269 
Q 2650 269 2876 622 
Q 3103 975 3103 1663 
Q 3103 2353 2876 2703 
Q 2650 3053 2209 3053 
Q 1772 3053 1542 2737 
Q 1313 2422 1313 1825 
z
M 738 2988 
L 184 2988 
L 184 3322 
L 1313 3322 
L 1313 2803 
Q 1481 3116 1742 3264 
Q 2003 3413 2388 3413 
Q 3000 3413 3387 2928 
Q 3775 2444 3775 1663 
Q 3775 881 3387 395 
Q 3000 -91 2388 -91 
Q 2003 -91 1742 57 
Q 1481 206 1313 519 
L 1313 -997 
L 1856 -997 
L 1856 -1331 
L 184 -1331 
L 184 -997 
L 738 -997 
L 738 2988 
z
" transform="scale(0.015625)"/>
       <path id="DejaVuSerif-74" d="M 691 2988 
L 184 2988 
L 184 3322 
L 691 3322 
L 691 4353 
L 1269 4353 
L 1269 3322 
L 2350 3322 
L 2350 2988 
L 1269 2988 
L 1269 878 
Q 1269 456 1350 337 
Q 1431 219 1650 219 
Q 1875 219 1978 351 
Q 2081 484 2088 781 
L 2522 781 
Q 2497 328 2275 118 
Q 2053 -91 1600 -91 
Q 1103 -91 897 129 
Q 691 350 691 878 
L 691 2988 
z
" transform="scale(0.015625)"/>
       <path id="DejaVuSerif-68" d="M 263 0 
L 263 331 
L 781 331 
L 781 4531 
L 231 4531 
L 231 4863 
L 1356 4863 
L 1356 2731 
Q 1516 3069 1770 3241 
Q 2025 3413 2363 3413 
Q 2913 3413 3172 3097 
Q 3431 2781 3431 2113 
L 3431 331 
L 3944 331 
L 3944 0 
L 2356 0 
L 2356 331 
L 2853 331 
L 2853 1931 
Q 2853 2541 2704 2764 
Q 2556 2988 2175 2988 
Q 1775 2988 1565 2697 
Q 1356 2406 1356 1850 
L 1356 331 
L 1856 331 
L 1856 0 
L 263 0 
z
" transform="scale(0.015625)"/>
       <path id="DejaVuSerif-28" d="M 2041 -997 
Q 1281 -656 893 83 
Q 506 822 506 1931 
Q 506 3044 893 3783 
Q 1281 4522 2041 4863 
L 2041 4556 
Q 1559 4225 1350 3623 
Q 1141 3022 1141 1931 
Q 1141 844 1350 242 
Q 1559 -359 2041 -691 
L 2041 -997 
z
" transform="scale(0.015625)"/>
       <path id="DejaVuSerif-6e" d="M 263 0 
L 263 331 
L 781 331 
L 781 2988 
L 231 2988 
L 231 3322 
L 1356 3322 
L 1356 2731 
Q 1516 3069 1770 3241 
Q 2025 3413 2363 3413 
Q 2913 3413 3172 3097 
Q 3431 2781 3431 2113 
L 3431 331 
L 3944 331 
L 3944 0 
L 2356 0 
L 2356 331 
L 2853 331 
L 2853 1931 
Q 2853 2541 2703 2767 
Q 2553 2994 2175 2994 
Q 1775 2994 1565 2701 
Q 1356 2409 1356 1850 
L 1356 331 
L 1856 331 
L 1856 0 
L 263 0 
z
" transform="scale(0.015625)"/>
       <path id="DejaVuSerif-75" d="M 2266 3322 
L 3341 3322 
L 3341 331 
L 3884 331 
L 3884 0 
L 2766 0 
L 2766 588 
Q 2606 256 2353 82 
Q 2100 -91 1766 -91 
Q 1213 -91 952 223 
Q 691 538 691 1209 
L 691 2988 
L 172 2988 
L 172 3322 
L 1269 3322 
L 1269 1388 
Q 1269 781 1417 556 
Q 1566 331 1947 331 
Q 2347 331 2556 625 
Q 2766 919 2766 1478 
L 2766 2988 
L 2266 2988 
L 2266 3322 
z
" transform="scale(0.015625)"/>
       <path id="DejaVuSerif-6d" d="M 3316 2675 
Q 3481 3041 3739 3227 
Q 3997 3413 4341 3413 
Q 4863 3413 5119 3089 
Q 5375 2766 5375 2113 
L 5375 331 
L 5894 331 
L 5894 0 
L 4300 0 
L 4300 331 
L 4800 331 
L 4800 2047 
Q 4800 2556 4650 2772 
Q 4500 2988 4153 2988 
Q 3769 2988 3567 2697 
Q 3366 2406 3366 1850 
L 3366 331 
L 3866 331 
L 3866 0 
L 2291 0 
L 2291 331 
L 2791 331 
L 2791 2069 
Q 2791 2566 2641 2777 
Q 2491 2988 2144 2988 
Q 1759 2988 1557 2697 
Q 1356 2406 1356 1850 
L 1356 331 
L 1856 331 
L 1856 0 
L 263 0 
L 263 331 
L 781 331 
L 781 2994 
L 231 2994 
L 231 3322 
L 1356 3322 
L 1356 2731 
Q 1516 3063 1762 3238 
Q 2009 3413 2322 3413 
Q 2709 3413 2968 3220 
Q 3228 3028 3316 2675 
z
" transform="scale(0.015625)"/>
       <path id="DejaVuSerif-62" d="M 738 331 
L 738 4531 
L 184 4531 
L 184 4863 
L 1313 4863 
L 1313 2803 
Q 1481 3116 1742 3264 
Q 2003 3413 2388 3413 
Q 3000 3413 3387 2928 
Q 3775 2444 3775 1663 
Q 3775 881 3387 395 
Q 3000 -91 2388 -91 
Q 2003 -91 1742 57 
Q 1481 206 1313 519 
L 1313 0 
L 184 0 
L 184 331 
L 738 331 
z
M 1313 1497 
Q 1313 897 1542 583 
Q 1772 269 2209 269 
Q 2650 269 2876 622 
Q 3103 975 3103 1663 
Q 3103 2353 2876 2703 
Q 2650 3053 2209 3053 
Q 1772 3053 1542 2737 
Q 1313 2422 1313 1825 
L 1313 1497 
z
" transform="scale(0.015625)"/>
       <path id="DejaVuSerif-72" d="M 3059 3328 
L 3059 2497 
L 2728 2497 
Q 2713 2744 2591 2866 
Q 2469 2988 2234 2988 
Q 1809 2988 1582 2694 
Q 1356 2400 1356 1850 
L 1356 331 
L 2022 331 
L 2022 0 
L 263 0 
L 263 331 
L 781 331 
L 781 2994 
L 231 2994 
L 231 3322 
L 1356 3322 
L 1356 2731 
Q 1525 3078 1790 3245 
Q 2056 3413 2438 3413 
Q 2578 3413 2733 3391 
Q 2888 3369 3059 3328 
z
" transform="scale(0.015625)"/>
       <path id="DejaVuSerif-6f" d="M 1925 219 
Q 2388 219 2623 584 
Q 2859 950 2859 1663 
Q 2859 2375 2623 2739 
Q 2388 3103 1925 3103 
Q 1463 3103 1227 2739 
Q 991 2375 991 1663 
Q 991 950 1228 584 
Q 1466 219 1925 219 
z
M 1925 -91 
Q 1200 -91 759 389 
Q 319 869 319 1663 
Q 319 2456 758 2934 
Q 1197 3413 1925 3413 
Q 2653 3413 3092 2934 
Q 3531 2456 3531 1663 
Q 3531 869 3092 389 
Q 2653 -91 1925 -91 
z
" transform="scale(0.015625)"/>
       <path id="DejaVuSerif-66" d="M 2753 4078 
L 2450 4078 
Q 2447 4313 2317 4434 
Q 2188 4556 1941 4556 
Q 1619 4556 1487 4379 
Q 1356 4203 1356 3750 
L 1356 3322 
L 2284 3322 
L 2284 2988 
L 1356 2988 
L 1356 331 
L 2094 331 
L 2094 0 
L 231 0 
L 231 331 
L 781 331 
L 781 2988 
L 231 2988 
L 231 3322 
L 781 3322 
L 781 3738 
Q 781 4294 1070 4578 
Q 1359 4863 1919 4863 
Q 2128 4863 2337 4825 
Q 2547 4788 2753 4709 
L 2753 4078 
z
" transform="scale(0.015625)"/>
       <path id="DejaVuSerif-73" d="M 359 184 
L 359 959 
L 691 959 
Q 703 588 923 403 
Q 1144 219 1575 219 
Q 1963 219 2166 364 
Q 2369 509 2369 788 
Q 2369 1006 2220 1140 
Q 2072 1275 1594 1428 
L 1178 1569 
Q 750 1706 558 1912 
Q 366 2119 366 2438 
Q 366 2894 700 3153 
Q 1034 3413 1625 3413 
Q 1888 3413 2178 3344 
Q 2469 3275 2778 3144 
L 2778 2419 
L 2447 2419 
Q 2434 2741 2221 2922 
Q 2009 3103 1644 3103 
Q 1281 3103 1095 2975 
Q 909 2847 909 2591 
Q 909 2381 1050 2254 
Q 1191 2128 1613 1997 
L 2069 1856 
Q 2541 1709 2748 1489 
Q 2956 1269 2956 922 
Q 2956 450 2595 179 
Q 2234 -91 1600 -91 
Q 1278 -91 972 -22 
Q 666 47 359 184 
z
" transform="scale(0.015625)"/>
       <path id="DejaVuSerif-61" d="M 2547 1044 
L 2547 1747 
L 1806 1747 
Q 1378 1747 1168 1562 
Q 959 1378 959 997 
Q 959 650 1171 447 
Q 1384 244 1747 244 
Q 2106 244 2326 466 
Q 2547 688 2547 1044 
z
M 3122 2075 
L 3122 331 
L 3634 331 
L 3634 0 
L 2547 0 
L 2547 359 
Q 2356 128 2106 18 
Q 1856 -91 1522 -91 
Q 969 -91 644 203 
Q 319 497 319 997 
Q 319 1513 691 1797 
Q 1063 2081 1741 2081 
L 2547 2081 
L 2547 2309 
Q 2547 2688 2317 2895 
Q 2088 3103 1672 3103 
Q 1328 3103 1125 2947 
Q 922 2791 872 2484 
L 575 2484 
L 575 3156 
Q 875 3284 1158 3348 
Q 1441 3413 1709 3413 
Q 2400 3413 2761 3070 
Q 3122 2728 3122 2075 
z
" transform="scale(0.015625)"/>
       <path id="DejaVuSerif-2d" d="M 281 1959 
L 1881 1959 
L 1881 1472 
L 281 1472 
L 281 1959 
z
" transform="scale(0.015625)"/>
       <path id="DejaVuSerif-64" d="M 3359 331 
L 3909 331 
L 3909 0 
L 2784 0 
L 2784 519 
Q 2616 206 2355 57 
Q 2094 -91 1709 -91 
Q 1097 -91 708 395 
Q 319 881 319 1663 
Q 319 2444 706 2928 
Q 1094 3413 1709 3413 
Q 2094 3413 2355 3264 
Q 2616 3116 2784 2803 
L 2784 4531 
L 2241 4531 
L 2241 4863 
L 3359 4863 
L 3359 331 
z
M 2784 1497 
L 2784 1825 
Q 2784 2422 2554 2737 
Q 2325 3053 1888 3053 
Q 1444 3053 1217 2703 
Q 991 2353 991 1663 
Q 991 975 1217 622 
Q 1444 269 1888 269 
Q 2325 269 2554 583 
Q 2784 897 2784 1497 
z
" transform="scale(0.015625)"/>
       <path id="DejaVuSerif-69" d="M 622 4353 
Q 622 4497 726 4603 
Q 831 4709 978 4709 
Q 1122 4709 1226 4603 
Q 1331 4497 1331 4353 
Q 1331 4206 1228 4103 
Q 1125 4000 978 4000 
Q 831 4000 726 4103 
Q 622 4206 622 4353 
z
M 1356 331 
L 1900 331 
L 1900 0 
L 231 0 
L 231 331 
L 781 331 
L 781 2988 
L 231 2988 
L 231 3322 
L 1356 3322 
L 1356 331 
z
" transform="scale(0.015625)"/>
       <path id="DejaVuSerif-29" d="M 453 -997 
L 453 -691 
Q 934 -359 1145 242 
Q 1356 844 1356 1931 
Q 1356 3022 1145 3623 
Q 934 4225 453 4556 
L 453 4863 
Q 1216 4522 1603 3783 
Q 1991 3044 1991 1931 
Q 1991 822 1603 83 
Q 1216 -656 453 -997 
z
" transform="scale(0.015625)"/>
      </defs>
      <use xlink:href="#DejaVuSerif-44"/>
      <use xlink:href="#DejaVuSerif-65" transform="translate(80.175781 0)"/>
      <use xlink:href="#DejaVuSerif-70" transform="translate(139.355469 0)"/>
      <use xlink:href="#DejaVuSerif-74" transform="translate(203.369141 0)"/>
      <use xlink:href="#DejaVuSerif-68" transform="translate(243.554688 0)"/>
      <use xlink:href="#DejaVuSerif-20" transform="translate(307.958984 0)"/>
      <use xlink:href="#DejaVuSerif-4b" transform="translate(339.746094 0)"/>
      <use xlink:href="#DejaVuSerif-20" transform="translate(414.453125 0)"/>
      <use xlink:href="#DejaVuSerif-28" transform="translate(446.240234 0)"/>
      <use xlink:href="#DejaVuSerif-6e" transform="translate(485.253906 0)"/>
      <use xlink:href="#DejaVuSerif-75" transform="translate(549.658203 0)"/>
      <use xlink:href="#DejaVuSerif-6d" transform="translate(614.0625 0)"/>
      <use xlink:href="#DejaVuSerif-62" transform="translate(708.886719 0)"/>
      <use xlink:href="#DejaVuSerif-65" transform="translate(772.900391 0)"/>
      <use xlink:href="#DejaVuSerif-72" transform="translate(832.080078 0)"/>
      <use xlink:href="#DejaVuSerif-20" transform="translate(879.882812 0)"/>
      <use xlink:href="#DejaVuSerif-6f" transform="translate(911.669922 0)"/>
      <use xlink:href="#DejaVuSerif-66" transform="translate(971.875 0)"/>
      <use xlink:href="#DejaVuSerif-20" transform="translate(1008.886719 0)"/>
      <use xlink:href="#DejaVuSerif-73" transform="translate(1040.673828 0)"/>
      <use xlink:href="#DejaVuSerif-74" transform="translate(1091.992188 0)"/>
      <use xlink:href="#DejaVuSerif-61" transform="translate(1132.177734 0)"/>
      <use xlink:href="#DejaVuSerif-74" transform="translate(1191.796875 0)"/>
      <use xlink:href="#DejaVuSerif-65" transform="translate(1231.982422 0)"/>
      <use xlink:href="#DejaVuSerif-2d" transform="translate(1291.162109 0)"/>
      <use xlink:href="#DejaVuSerif-75" transform="translate(1324.951172 0)"/>
      <use xlink:href="#DejaVuSerif-70" transform="translate(1389.355469 0)"/>
      <use xlink:href="#DejaVuSerif-64" transform="translate(1453.369141 0)"/>
      <use xlink:href="#DejaVuSerif-61" transform="translate(1517.382812 0)"/>
      <use xlink:href="#DejaVuSerif-74" transform="translate(1577.001953 0)"/>
      <use xlink:href="#DejaVuSerif-65" transform="translate(1617.1875 0)"/>
      <use xlink:href="#DejaVuSerif-20" transform="translate(1676.367188 0)"/>
      <use xlink:href="#DejaVuSerif-6f" transform="translate(1708.154297 0)"/>
      <use xlink:href="#DejaVuSerif-70" transform="translate(1768.359375 0)"/>
      <use xlink:href="#DejaVuSerif-65" transform="translate(1832.373047 0)"/>
      <use xlink:href="#DejaVuSerif-72" transform="translate(1891.552734 0)"/>
      <use xlink:href="#DejaVuSerif-61" transform="translate(1939.355469 0)"/>
      <use xlink:href="#DejaVuSerif-74" transform="translate(1998.974609 0)"/>
      <use xlink:href="#DejaVuSerif-69" transform="translate(2039.160156 0)"/>
      <use xlink:href="#DejaVuSerif-6f" transform="translate(2071.142578 0)"/>
      <use xlink:href="#DejaVuSerif-6e" transform="translate(2131.347656 0)"/>
      <use xlink:href="#DejaVuSerif-73" transform="translate(2195.751953 0)"/>
      <use xlink:href="#DejaVuSerif-29" transform="translate(2247.070312 0)"/>
     </g>
    </g>
   </g>
   <g id="matplotlib.axis_2">
    <g id="ytick_1">
     <g id="line2d_14">
      <defs>
       <path id="m0c4f2cc044" d="M 0 0 
L 3.5 0 
" style="stroke: #000000; stroke-width: 0.6"/>
      </defs>
      <g>
       <use xlink:href="#m0c4f2cc044" x="46.64375" y="253.099335" style="stroke: #000000; stroke-width: 0.6"/>
      </g>
     </g>
     <g id="text_5">
      <!-- 0.00 -->
      <g transform="translate(20.878125 256.898554) scale(0.1 -0.1)">
       <defs>
        <path id="DejaVuSerif-30" d="M 2034 219 
Q 2513 219 2750 744 
Q 2988 1269 2988 2328 
Q 2988 3391 2750 3916 
Q 2513 4441 2034 4441 
Q 1556 4441 1318 3916 
Q 1081 3391 1081 2328 
Q 1081 1269 1318 744 
Q 1556 219 2034 219 
z
M 2034 -91 
Q 1275 -91 848 546 
Q 422 1184 422 2328 
Q 422 3475 848 4112 
Q 1275 4750 2034 4750 
Q 2797 4750 3222 4112 
Q 3647 3475 3647 2328 
Q 3647 1184 3222 546 
Q 2797 -91 2034 -91 
z
" transform="scale(0.015625)"/>
        <path id="DejaVuSerif-2e" d="M 603 325 
Q 603 500 722 622 
Q 841 744 1019 744 
Q 1191 744 1312 622 
Q 1434 500 1434 325 
Q 1434 153 1312 31 
Q 1191 -91 1019 -91 
Q 841 -91 722 29 
Q 603 150 603 325 
z
" transform="scale(0.015625)"/>
       </defs>
       <use xlink:href="#DejaVuSerif-30"/>
       <use xlink:href="#DejaVuSerif-2e" transform="translate(63.623047 0)"/>
       <use xlink:href="#DejaVuSerif-30" transform="translate(95.410156 0)"/>
       <use xlink:href="#DejaVuSerif-30" transform="translate(159.033203 0)"/>
      </g>
     </g>
    </g>
    <g id="ytick_2">
     <g id="line2d_15">
      <g>
       <use xlink:href="#m0c4f2cc044" x="46.64375" y="206.703234" style="stroke: #000000; stroke-width: 0.6"/>
      </g>
     </g>
     <g id="text_6">
      <!-- 0.20 -->
      <g transform="translate(20.878125 210.502453) scale(0.1 -0.1)">
       <defs>
        <path id="DejaVuSerif-32" d="M 819 3553 
L 469 3553 
L 469 4384 
Q 803 4563 1142 4656 
Q 1481 4750 1806 4750 
Q 2534 4750 2956 4397 
Q 3378 4044 3378 3438 
Q 3378 2753 2422 1800 
Q 2347 1728 2309 1691 
L 1131 513 
L 3078 513 
L 3078 1088 
L 3444 1088 
L 3444 0 
L 434 0 
L 434 341 
L 1850 1753 
Q 2319 2222 2519 2614 
Q 2719 3006 2719 3438 
Q 2719 3909 2473 4175 
Q 2228 4441 1797 4441 
Q 1350 4441 1106 4219 
Q 863 3997 819 3553 
z
" transform="scale(0.015625)"/>
       </defs>
       <use xlink:href="#DejaVuSerif-30"/>
       <use xlink:href="#DejaVuSerif-2e" transform="translate(63.623047 0)"/>
       <use xlink:href="#DejaVuSerif-32" transform="translate(95.410156 0)"/>
       <use xlink:href="#DejaVuSerif-30" transform="translate(159.033203 0)"/>
      </g>
     </g>
    </g>
    <g id="ytick_3">
     <g id="line2d_16">
      <g>
       <use xlink:href="#m0c4f2cc044" x="46.64375" y="160.307133" style="stroke: #000000; stroke-width: 0.6"/>
      </g>
     </g>
     <g id="text_7">
      <!-- 0.40 -->
      <g transform="translate(20.878125 164.106352) scale(0.1 -0.1)">
       <defs>
        <path id="DejaVuSerif-34" d="M 2234 1581 
L 2234 4063 
L 641 1581 
L 2234 1581 
z
M 3609 0 
L 1484 0 
L 1484 331 
L 2234 331 
L 2234 1247 
L 197 1247 
L 197 1588 
L 2241 4750 
L 2859 4750 
L 2859 1581 
L 3750 1581 
L 3750 1247 
L 2859 1247 
L 2859 331 
L 3609 331 
L 3609 0 
z
" transform="scale(0.015625)"/>
       </defs>
       <use xlink:href="#DejaVuSerif-30"/>
       <use xlink:href="#DejaVuSerif-2e" transform="translate(63.623047 0)"/>
       <use xlink:href="#DejaVuSerif-34" transform="translate(95.410156 0)"/>
       <use xlink:href="#DejaVuSerif-30" transform="translate(159.033203 0)"/>
      </g>
     </g>
    </g>
    <g id="ytick_4">
     <g id="line2d_17">
      <g>
       <use xlink:href="#m0c4f2cc044" x="46.64375" y="113.911032" style="stroke: #000000; stroke-width: 0.6"/>
      </g>
     </g>
     <g id="text_8">
      <!-- 0.60 -->
      <g transform="translate(20.878125 117.710251) scale(0.1 -0.1)">
       <defs>
        <path id="DejaVuSerif-36" d="M 2094 219 
Q 2534 219 2771 542 
Q 3009 866 3009 1472 
Q 3009 2078 2771 2401 
Q 2534 2725 2094 2725 
Q 1647 2725 1412 2412 
Q 1178 2100 1178 1509 
Q 1178 888 1415 553 
Q 1653 219 2094 219 
z
M 1075 2569 
Q 1288 2803 1556 2918 
Q 1825 3034 2163 3034 
Q 2859 3034 3264 2615 
Q 3669 2197 3669 1472 
Q 3669 763 3233 336 
Q 2797 -91 2069 -91 
Q 1278 -91 853 498 
Q 428 1088 428 2181 
Q 428 3406 931 4078 
Q 1434 4750 2350 4750 
Q 2597 4750 2869 4703 
Q 3141 4656 3425 4563 
L 3425 3794 
L 3072 3794 
Q 3034 4109 2831 4275 
Q 2628 4441 2284 4441 
Q 1678 4441 1381 3981 
Q 1084 3522 1075 2569 
z
" transform="scale(0.015625)"/>
       </defs>
       <use xlink:href="#DejaVuSerif-30"/>
       <use xlink:href="#DejaVuSerif-2e" transform="translate(63.623047 0)"/>
       <use xlink:href="#DejaVuSerif-36" transform="translate(95.410156 0)"/>
       <use xlink:href="#DejaVuSerif-30" transform="translate(159.033203 0)"/>
      </g>
     </g>
    </g>
    <g id="ytick_5">
     <g id="line2d_18">
      <g>
       <use xlink:href="#m0c4f2cc044" x="46.64375" y="67.514931" style="stroke: #000000; stroke-width: 0.6"/>
      </g>
     </g>
     <g id="text_9">
      <!-- 0.80 -->
      <g transform="translate(20.878125 71.31415) scale(0.1 -0.1)">
       <defs>
        <path id="DejaVuSerif-38" d="M 2981 1275 
Q 2981 1775 2732 2051 
Q 2484 2328 2034 2328 
Q 1584 2328 1336 2051 
Q 1088 1775 1088 1275 
Q 1088 772 1336 495 
Q 1584 219 2034 219 
Q 2484 219 2732 495 
Q 2981 772 2981 1275 
z
M 2853 3541 
Q 2853 3966 2637 4203 
Q 2422 4441 2034 4441 
Q 1650 4441 1433 4203 
Q 1216 3966 1216 3541 
Q 1216 3113 1433 2875 
Q 1650 2638 2034 2638 
Q 2422 2638 2637 2875 
Q 2853 3113 2853 3541 
z
M 2516 2484 
Q 3047 2413 3344 2092 
Q 3641 1772 3641 1275 
Q 3641 619 3225 264 
Q 2809 -91 2034 -91 
Q 1263 -91 845 264 
Q 428 619 428 1275 
Q 428 1772 725 2092 
Q 1022 2413 1556 2484 
Q 1084 2569 832 2842 
Q 581 3116 581 3541 
Q 581 4103 968 4426 
Q 1356 4750 2034 4750 
Q 2713 4750 3100 4426 
Q 3488 4103 3488 3541 
Q 3488 3116 3236 2842 
Q 2984 2569 2516 2484 
z
" transform="scale(0.015625)"/>
       </defs>
       <use xlink:href="#DejaVuSerif-30"/>
       <use xlink:href="#DejaVuSerif-2e" transform="translate(63.623047 0)"/>
       <use xlink:href="#DejaVuSerif-38" transform="translate(95.410156 0)"/>
       <use xlink:href="#DejaVuSerif-30" transform="translate(159.033203 0)"/>
      </g>
     </g>
    </g>
    <g id="ytick_6">
     <g id="line2d_19">
      <g>
       <use xlink:href="#m0c4f2cc044" x="46.64375" y="21.11883" style="stroke: #000000; stroke-width: 0.6"/>
      </g>
     </g>
     <g id="text_10">
      <!-- 1.00 -->
      <g transform="translate(20.878125 24.918049) scale(0.1 -0.1)">
       <defs>
        <path id="DejaVuSerif-31" d="M 909 0 
L 909 331 
L 1722 331 
L 1722 4213 
L 781 3603 
L 781 4013 
L 1919 4750 
L 2350 4750 
L 2350 331 
L 3163 331 
L 3163 0 
L 909 0 
z
" transform="scale(0.015625)"/>
       </defs>
       <use xlink:href="#DejaVuSerif-31"/>
       <use xlink:href="#DejaVuSerif-2e" transform="translate(63.623047 0)"/>
       <use xlink:href="#DejaVuSerif-30" transform="translate(95.410156 0)"/>
       <use xlink:href="#DejaVuSerif-30" transform="translate(159.033203 0)"/>
      </g>
     </g>
    </g>
    <g id="text_11">
     <!-- WMF-AM Accuracy -->
     <g transform="translate(14.65625 182.569219) rotate(-90) scale(0.1 -0.1)">
      <defs>
       <path id="DejaVuSerif-57" d="M 4878 0 
L 4366 0 
L 3297 3794 
L 2228 0 
L 1716 0 
L 494 4331 
L 31 4331 
L 31 4666 
L 1734 4666 
L 1734 4331 
L 1153 4331 
L 2125 884 
L 3188 4666 
L 3694 4666 
L 4775 844 
L 5753 4331 
L 5216 4331 
L 5216 4666 
L 6559 4666 
L 6559 4331 
L 6100 4331 
L 4878 0 
z
" transform="scale(0.015625)"/>
       <path id="DejaVuSerif-4d" d="M 353 0 
L 353 331 
L 947 331 
L 947 4331 
L 319 4331 
L 319 4666 
L 1678 4666 
L 3316 1344 
L 4953 4666 
L 6228 4666 
L 6228 4331 
L 5606 4331 
L 5606 331 
L 6203 331 
L 6203 0 
L 4378 0 
L 4378 331 
L 4972 331 
L 4972 3938 
L 3372 684 
L 2931 684 
L 1331 3938 
L 1331 331 
L 1925 331 
L 1925 0 
L 353 0 
z
" transform="scale(0.015625)"/>
       <path id="DejaVuSerif-46" d="M 353 0 
L 353 331 
L 947 331 
L 947 4331 
L 353 4331 
L 353 4666 
L 4172 4666 
L 4172 3628 
L 3788 3628 
L 3788 4281 
L 1581 4281 
L 1581 2719 
L 3175 2719 
L 3175 3303 
L 3559 3303 
L 3559 1753 
L 3175 1753 
L 3175 2338 
L 1581 2338 
L 1581 331 
L 2328 331 
L 2328 0 
L 353 0 
z
" transform="scale(0.015625)"/>
       <path id="DejaVuSerif-41" d="M 1281 1691 
L 2994 1691 
L 2138 3909 
L 1281 1691 
z
M -38 0 
L -38 331 
L 372 331 
L 2034 4666 
L 2559 4666 
L 4225 331 
L 4684 331 
L 4684 0 
L 2988 0 
L 2988 331 
L 3506 331 
L 3116 1356 
L 1153 1356 
L 763 331 
L 1275 331 
L 1275 0 
L -38 0 
z
" transform="scale(0.015625)"/>
       <path id="DejaVuSerif-63" d="M 3291 997 
Q 3169 466 2822 187 
Q 2475 -91 1925 -91 
Q 1200 -91 759 389 
Q 319 869 319 1663 
Q 319 2459 759 2936 
Q 1200 3413 1925 3413 
Q 2241 3413 2553 3339 
Q 2866 3266 3181 3116 
L 3181 2266 
L 2847 2266 
Q 2781 2703 2561 2903 
Q 2341 3103 1931 3103 
Q 1466 3103 1228 2742 
Q 991 2381 991 1663 
Q 991 944 1227 581 
Q 1463 219 1931 219 
Q 2303 219 2525 412 
Q 2747 606 2828 997 
L 3291 997 
z
" transform="scale(0.015625)"/>
       <path id="DejaVuSerif-79" d="M 1381 -609 
L 1600 -56 
L 359 2988 
L -19 2988 
L -19 3322 
L 1509 3322 
L 1509 2988 
L 978 2988 
L 1913 703 
L 2847 2988 
L 2350 2988 
L 2350 3322 
L 3597 3322 
L 3597 2988 
L 3225 2988 
L 1703 -750 
Q 1547 -1138 1356 -1280 
Q 1166 -1422 819 -1422 
Q 672 -1422 517 -1397 
Q 363 -1372 206 -1325 
L 206 -691 
L 500 -691 
Q 519 -903 608 -995 
Q 697 -1088 884 -1088 
Q 1056 -1088 1161 -992 
Q 1266 -897 1381 -609 
z
" transform="scale(0.015625)"/>
      </defs>
      <use xlink:href="#DejaVuSerif-57"/>
      <use xlink:href="#DejaVuSerif-4d" transform="translate(102.783203 0)"/>
      <use xlink:href="#DejaVuSerif-46" transform="translate(205.175781 0)"/>
      <use xlink:href="#DejaVuSerif-2d" transform="translate(270.060547 0)"/>
      <use xlink:href="#DejaVuSerif-41" transform="translate(303.849609 0)"/>
      <use xlink:href="#DejaVuSerif-4d" transform="translate(376.066406 0)"/>
      <use xlink:href="#DejaVuSerif-20" transform="translate(478.458984 0)"/>
      <use xlink:href="#DejaVuSerif-41" transform="translate(510.246094 0)"/>
      <use xlink:href="#DejaVuSerif-63" transform="translate(582.462891 0)"/>
      <use xlink:href="#DejaVuSerif-63" transform="translate(638.46875 0)"/>
      <use xlink:href="#DejaVuSerif-75" transform="translate(694.474609 0)"/>
      <use xlink:href="#DejaVuSerif-72" transform="translate(758.878906 0)"/>
      <use xlink:href="#DejaVuSerif-61" transform="translate(806.681641 0)"/>
      <use xlink:href="#DejaVuSerif-63" transform="translate(866.300781 0)"/>
      <use xlink:href="#DejaVuSerif-79" transform="translate(922.306641 0)"/>
     </g>
    </g>
   </g>
   <g id="line2d_20"/>
   <g id="patch_3">
    <path d="M 46.64375 260.05875 
L 46.64375 7.2 
" style="fill: none; stroke: #000000; stroke-width: 0.8; stroke-linejoin: miter; stroke-linecap: square"/>
   </g>
   <g id="patch_4">
    <path d="M 46.64375 260.05875 
L 381.41375 260.05875 
" style="fill: none; stroke: #000000; stroke-width: 0.8; stroke-linejoin: miter; stroke-linecap: square"/>
   </g>
   <g id="line2d_21">
    <path d="M 80.12075 21.11883 
L 214.02875 21.11883 
L 347.93675 36.661524 
" clip-path="url(#p5e8efac5f2)" style="fill: none; stroke: #d62728; stroke-width: 2.5; stroke-linecap: square"/>
    <defs>
     <path id="m315ab16fd9" d="M 0 3.5 
C 0.928211 3.5 1.81853 3.131218 2.474874 2.474874 
C 3.131218 1.81853 3.5 0.928211 3.5 0 
C 3.5 -0.928211 3.131218 -1.81853 2.474874 -2.474874 
C 1.81853 -3.131218 0.928211 -3.5 0 -3.5 
C -0.928211 -3.5 -1.81853 -3.131218 -2.474874 -2.474874 
C -3.131218 -1.81853 -3.5 -0.928211 -3.5 0 
C -3.5 0.928211 -3.131218 1.81853 -2.474874 2.474874 
C -1.81853 3.131218 -0.928211 3.5 0 3.5 
z
" style="stroke: #d62728"/>
    </defs>
    <g clip-path="url(#p5e8efac5f2)">
     <use xlink:href="#m315ab16fd9" x="80.12075" y="21.11883" style="fill: #d62728; stroke: #d62728"/>
     <use xlink:href="#m315ab16fd9" x="214.02875" y="21.11883" style="fill: #d62728; stroke: #d62728"/>
     <use xlink:href="#m315ab16fd9" x="347.93675" y="36.661524" style="fill: #d62728; stroke: #d62728"/>
    </g>
   </g>
   <g id="line2d_22">
    <path d="M 80.12075 21.11883 
L 214.02875 113.911032 
L 347.93675 160.307133 
" clip-path="url(#p5e8efac5f2)" style="fill: none; stroke: #1f77b4; stroke-width: 1.8; stroke-linecap: square"/>
    <defs>
     <path id="mab002150b3" d="M -2.75 2.75 
L 2.75 2.75 
L 2.75 -2.75 
L -2.75 -2.75 
z
" style="stroke: #1f77b4; stroke-linejoin: miter"/>
    </defs>
    <g clip-path="url(#p5e8efac5f2)">
     <use xlink:href="#mab002150b3" x="80.12075" y="21.11883" style="fill: #1f77b4; stroke: #1f77b4; stroke-linejoin: miter"/>
     <use xlink:href="#mab002150b3" x="214.02875" y="113.911032" style="fill: #1f77b4; stroke: #1f77b4; stroke-linejoin: miter"/>
     <use xlink:href="#mab002150b3" x="347.93675" y="160.307133" style="fill: #1f77b4; stroke: #1f77b4; stroke-linejoin: miter"/>
    </g>
   </g>
   <g id="line2d_23">
    <path d="M 80.12075 67.514931 
L 214.02875 113.911032 
L 347.93675 191.16054 
" clip-path="url(#p5e8efac5f2)" style="fill: none; stroke-dasharray: 6.66,2.88; stroke-dashoffset: 0; stroke: #2ca02c; stroke-width: 1.8"/>
    <defs>
     <path id="m620d963704" d="M 0 -2.75 
L -2.75 2.75 
L 2.75 2.75 
z
" style="stroke: #2ca02c; stroke-linejoin: miter"/>
    </defs>
    <g clip-path="url(#p5e8efac5f2)">
     <use xlink:href="#m620d963704" x="80.12075" y="67.514931" style="fill: #2ca02c; stroke: #2ca02c; stroke-linejoin: miter"/>
     <use xlink:href="#m620d963704" x="214.02875" y="113.911032" style="fill: #2ca02c; stroke: #2ca02c; stroke-linejoin: miter"/>
     <use xlink:href="#m620d963704" x="347.93675" y="191.16054" style="fill: #2ca02c; stroke: #2ca02c; stroke-linejoin: miter"/>
    </g>
   </g>
   <g id="line2d_24">
    <path d="M 80.12075 67.514931 
L 214.02875 113.911032 
L 347.93675 191.16054 
" clip-path="url(#p5e8efac5f2)" style="fill: none; stroke-dasharray: 11.52,2.88,1.8,2.88; stroke-dashoffset: 0; stroke: #9467bd; stroke-width: 1.8"/>
    <defs>
     <path id="m6e9f89f823" d="M -0 3.535534 
L 3.535534 0 
L 0 -3.535534 
L -3.535534 -0 
z
" style="stroke: #9467bd; stroke-linejoin: miter"/>
    </defs>
    <g clip-path="url(#p5e8efac5f2)">
     <use xlink:href="#m6e9f89f823" x="80.12075" y="67.514931" style="fill: #9467bd; stroke: #9467bd; stroke-linejoin: miter"/>
     <use xlink:href="#m6e9f89f823" x="214.02875" y="113.911032" style="fill: #9467bd; stroke: #9467bd; stroke-linejoin: miter"/>
     <use xlink:href="#m6e9f89f823" x="347.93675" y="191.16054" style="fill: #9467bd; stroke: #9467bd; stroke-linejoin: miter"/>
    </g>
   </g>
   <g id="line2d_25">
    <path d="M 80.12075 36.661524 
L 214.02875 160.307133 
L 347.93675 175.849827 
" clip-path="url(#p5e8efac5f2)" style="fill: none; stroke: #ff7f0e; stroke-width: 1.8; stroke-linecap: square"/>
    <defs>
     <path id="mbf223108e3" d="M -0 2.75 
L 2.75 -2.75 
L -2.75 -2.75 
z
" style="stroke: #ff7f0e; stroke-linejoin: miter"/>
    </defs>
    <g clip-path="url(#p5e8efac5f2)">
     <use xlink:href="#mbf223108e3" x="80.12075" y="36.661524" style="fill: #ff7f0e; stroke: #ff7f0e; stroke-linejoin: miter"/>
     <use xlink:href="#mbf223108e3" x="214.02875" y="160.307133" style="fill: #ff7f0e; stroke: #ff7f0e; stroke-linejoin: miter"/>
     <use xlink:href="#mbf223108e3" x="347.93675" y="175.849827" style="fill: #ff7f0e; stroke: #ff7f0e; stroke-linejoin: miter"/>
    </g>
   </g>
   <g id="patch_5">
    <path d="M 216.745761 62.619659 
Q 275.841981 27.317091 344.842547 36.25225 
" style="fill: none; stroke: #d62728; stroke-linecap: round"/>
    <path d="M 341.503515 34.004837 
L 344.842547 36.25225 
L 341.041197 37.575027 
z
" style="fill: #d62728; stroke: #d62728; stroke-linecap: round"/>
   </g>
   <g id="text_12">
    <g id="patch_6">
     <path d="M 171.873966 82.319738 
L 229.401934 82.319738 
Q 231.151934 82.319738 231.151934 80.569738 
L 231.151934 65.757519 
Q 231.151934 64.007519 229.401934 64.007519 
L 171.873966 64.007519 
Q 170.123966 64.007519 170.123966 65.757519 
L 170.123966 80.569738 
Q 170.123966 82.319738 171.873966 82.319738 
z
" style="fill: #ffffff; opacity: 0.9; stroke: #d62728; stroke-width: 0.7; stroke-linejoin: miter"/>
    </g>
    <!-- Reasoning arch. -->
    <g style="fill: #d62728" transform="translate(171.873966 71.175956) scale(0.07 -0.07)">
     <defs>
      <path id="DejaVuSerif-52" d="M 3066 2316 
Q 3284 2256 3442 2114 
Q 3600 1972 3725 1716 
L 4403 331 
L 4972 331 
L 4972 0 
L 3872 0 
L 3144 1484 
Q 2934 1916 2759 2042 
Q 2584 2169 2278 2169 
L 1581 2169 
L 1581 331 
L 2241 331 
L 2241 0 
L 353 0 
L 353 331 
L 947 331 
L 947 4331 
L 353 4331 
L 353 4666 
L 2719 4666 
Q 3400 4666 3770 4341 
Q 4141 4016 4141 3419 
Q 4141 2938 3870 2661 
Q 3600 2384 3066 2316 
z
M 1581 2503 
L 2503 2503 
Q 2975 2503 3200 2726 
Q 3425 2950 3425 3419 
Q 3425 3888 3200 4109 
Q 2975 4331 2503 4331 
L 1581 4331 
L 1581 2503 
z
" transform="scale(0.015625)"/>
      <path id="DejaVuSerif-67" d="M 3359 2988 
L 3359 72 
Q 3359 -644 2965 -1033 
Q 2572 -1422 1844 -1422 
Q 1516 -1422 1216 -1362 
Q 916 -1303 641 -1184 
L 641 -488 
L 941 -488 
Q 997 -813 1206 -963 
Q 1416 -1113 1806 -1113 
Q 2313 -1113 2548 -827 
Q 2784 -541 2784 72 
L 2784 519 
Q 2616 206 2355 57 
Q 2094 -91 1709 -91 
Q 1097 -91 708 395 
Q 319 881 319 1663 
Q 319 2444 706 2928 
Q 1094 3413 1709 3413 
Q 2094 3413 2355 3264 
Q 2616 3116 2784 2803 
L 2784 3322 
L 3909 3322 
L 3909 2988 
L 3359 2988 
z
M 2784 1825 
Q 2784 2422 2554 2737 
Q 2325 3053 1888 3053 
Q 1444 3053 1217 2703 
Q 991 2353 991 1663 
Q 991 975 1217 622 
Q 1444 269 1888 269 
Q 2325 269 2554 583 
Q 2784 897 2784 1497 
L 2784 1825 
z
" transform="scale(0.015625)"/>
     </defs>
     <use xlink:href="#DejaVuSerif-52"/>
     <use xlink:href="#DejaVuSerif-65" transform="translate(75.292969 0)"/>
     <use xlink:href="#DejaVuSerif-61" transform="translate(134.472656 0)"/>
     <use xlink:href="#DejaVuSerif-73" transform="translate(194.091797 0)"/>
     <use xlink:href="#DejaVuSerif-6f" transform="translate(245.410156 0)"/>
     <use xlink:href="#DejaVuSerif-6e" transform="translate(305.615234 0)"/>
     <use xlink:href="#DejaVuSerif-69" transform="translate(370.019531 0)"/>
     <use xlink:href="#DejaVuSerif-6e" transform="translate(402.001953 0)"/>
     <use xlink:href="#DejaVuSerif-67" transform="translate(466.40625 0)"/>
     <use xlink:href="#DejaVuSerif-20" transform="translate(530.419922 0)"/>
     <use xlink:href="#DejaVuSerif-61" transform="translate(562.207031 0)"/>
     <use xlink:href="#DejaVuSerif-72" transform="translate(621.826172 0)"/>
     <use xlink:href="#DejaVuSerif-63" transform="translate(669.628906 0)"/>
     <use xlink:href="#DejaVuSerif-68" transform="translate(725.634766 0)"/>
     <use xlink:href="#DejaVuSerif-2e" transform="translate(790.039062 0)"/>
    </g>
    <!-- robust at K=7 -->
    <g style="fill: #d62728" transform="translate(175.668184 79.113956) scale(0.07 -0.07)">
     <use xlink:href="#DejaVuSerif-72"/>
     <use xlink:href="#DejaVuSerif-6f" transform="translate(47.802734 0)"/>
     <use xlink:href="#DejaVuSerif-62" transform="translate(108.007812 0)"/>
     <use xlink:href="#DejaVuSerif-75" transform="translate(172.021484 0)"/>
     <use xlink:href="#DejaVuSerif-73" transform="translate(236.425781 0)"/>
     <use xlink:href="#DejaVuSerif-74" transform="translate(287.744141 0)"/>
     <use xlink:href="#DejaVuSerif-20" transform="translate(327.929688 0)"/>
     <use xlink:href="#DejaVuSerif-61" transform="translate(359.716797 0)"/>
     <use xlink:href="#DejaVuSerif-74" transform="translate(419.335938 0)"/>
     <use xlink:href="#DejaVuSerif-20" transform="translate(459.521484 0)"/>
     <use xlink:href="#DejaVuSerif-4b" transform="translate(491.308594 0)"/>
     <use xlink:href="#DejaVuSerif-3d" transform="translate(566.015625 0)"/>
     <use xlink:href="#DejaVuSerif-37" transform="translate(649.804688 0)"/>
    </g>
   </g>
   <g id="legend_1">
    <g id="patch_7">
     <path d="M 270.021172 79.251562 
L 376.16375 79.251562 
Q 377.66375 79.251562 377.66375 77.751562 
L 377.66375 12.45 
Q 377.66375 10.95 376.16375 10.95 
L 270.021172 10.95 
Q 268.521172 10.95 268.521172 12.45 
L 268.521172 77.751562 
Q 268.521172 79.251562 270.021172 79.251562 
z
" style="fill: #ffffff; opacity: 0.9; stroke: #cccccc; stroke-linejoin: miter"/>
    </g>
    <g id="line2d_26">
     <path d="M 271.521172 17.023828 
L 279.021172 17.023828 
L 286.521172 17.023828 
" style="fill: none; stroke: #d62728; stroke-width: 2.5; stroke-linecap: square"/>
     <g>
      <use xlink:href="#m315ab16fd9" x="279.021172" y="17.023828" style="fill: #d62728; stroke: #d62728"/>
     </g>
    </g>
    <g id="text_13">
     <!-- deepseek-r1:14b -->
     <g transform="translate(292.521172 19.648828) scale(0.075 -0.075)">
      <defs>
       <path id="DejaVuSerif-6b" d="M 1831 0 
L 219 0 
L 219 331 
L 738 331 
L 738 4531 
L 184 4531 
L 184 4863 
L 1313 4863 
L 1313 1697 
L 2713 2988 
L 2234 2988 
L 2234 3322 
L 3738 3322 
L 3738 2988 
L 3169 2988 
L 2181 2075 
L 3444 331 
L 3922 331 
L 3922 0 
L 2284 0 
L 2284 331 
L 2759 331 
L 1766 1697 
L 1313 1275 
L 1313 331 
L 1831 331 
L 1831 0 
z
" transform="scale(0.015625)"/>
       <path id="DejaVuSerif-3a" d="M 666 325 
Q 666 500 786 622 
Q 906 744 1081 744 
Q 1256 744 1376 622 
Q 1497 500 1497 325 
Q 1497 150 1378 29 
Q 1259 -91 1081 -91 
Q 903 -91 784 29 
Q 666 150 666 325 
z
M 666 2363 
Q 666 2538 786 2658 
Q 906 2778 1081 2778 
Q 1259 2778 1378 2659 
Q 1497 2541 1497 2363 
Q 1497 2184 1378 2065 
Q 1259 1947 1081 1947 
Q 906 1947 786 2067 
Q 666 2188 666 2363 
z
" transform="scale(0.015625)"/>
      </defs>
      <use xlink:href="#DejaVuSerif-64"/>
      <use xlink:href="#DejaVuSerif-65" transform="translate(64.013672 0)"/>
      <use xlink:href="#DejaVuSerif-65" transform="translate(123.193359 0)"/>
      <use xlink:href="#DejaVuSerif-70" transform="translate(182.373047 0)"/>
      <use xlink:href="#DejaVuSerif-73" transform="translate(246.386719 0)"/>
      <use xlink:href="#DejaVuSerif-65" transform="translate(297.705078 0)"/>
      <use xlink:href="#DejaVuSerif-65" transform="translate(356.884766 0)"/>
      <use xlink:href="#DejaVuSerif-6b" transform="translate(416.064453 0)"/>
      <use xlink:href="#DejaVuSerif-2d" transform="translate(474.910156 0)"/>
      <use xlink:href="#DejaVuSerif-72" transform="translate(508.699219 0)"/>
      <use xlink:href="#DejaVuSerif-31" transform="translate(556.501953 0)"/>
      <use xlink:href="#DejaVuSerif-3a" transform="translate(620.125 0)"/>
      <use xlink:href="#DejaVuSerif-31" transform="translate(653.816406 0)"/>
      <use xlink:href="#DejaVuSerif-34" transform="translate(717.439453 0)"/>
      <use xlink:href="#DejaVuSerif-62" transform="translate(781.0625 0)"/>
     </g>
    </g>
    <g id="line2d_27">
     <path d="M 271.521172 28.032422 
L 279.021172 28.032422 
L 286.521172 28.032422 
" style="fill: none; stroke: #1f77b4; stroke-width: 1.8; stroke-linecap: square"/>
     <g>
      <use xlink:href="#mab002150b3" x="279.021172" y="28.032422" style="fill: #1f77b4; stroke: #1f77b4; stroke-linejoin: miter"/>
     </g>
    </g>
    <g id="text_14">
     <!-- qwen2.5:32b -->
     <g transform="translate(292.521172 30.657422) scale(0.075 -0.075)">
      <defs>
       <path id="DejaVuSerif-71" d="M 3359 2988 
L 3359 -997 
L 3909 -997 
L 3909 -1331 
L 2241 -1331 
L 2241 -997 
L 2784 -997 
L 2784 519 
Q 2616 206 2355 57 
Q 2094 -91 1709 -91 
Q 1097 -91 708 395 
Q 319 881 319 1663 
Q 319 2444 706 2928 
Q 1094 3413 1709 3413 
Q 2094 3413 2355 3264 
Q 2616 3116 2784 2803 
L 2784 3322 
L 3909 3322 
L 3909 2988 
L 3359 2988 
z
M 2784 1825 
Q 2784 2422 2554 2737 
Q 2325 3053 1888 3053 
Q 1444 3053 1217 2703 
Q 991 2353 991 1663 
Q 991 975 1217 622 
Q 1444 269 1888 269 
Q 2325 269 2554 583 
Q 2784 897 2784 1497 
L 2784 1825 
z
" transform="scale(0.015625)"/>
       <path id="DejaVuSerif-77" d="M 3072 3322 
L 3922 728 
L 4672 2988 
L 4191 2988 
L 4191 3322 
L 5394 3322 
L 5394 2988 
L 5025 2988 
L 4038 0 
L 3559 0 
L 2741 2484 
L 1919 0 
L 1459 0 
L 475 2988 
L 103 2988 
L 103 3322 
L 1606 3322 
L 1606 2988 
L 1069 2988 
L 1813 728 
L 2669 3322 
L 3072 3322 
z
" transform="scale(0.015625)"/>
      </defs>
      <use xlink:href="#DejaVuSerif-71"/>
      <use xlink:href="#DejaVuSerif-77" transform="translate(64.013672 0)"/>
      <use xlink:href="#DejaVuSerif-65" transform="translate(149.609375 0)"/>
      <use xlink:href="#DejaVuSerif-6e" transform="translate(208.789062 0)"/>
      <use xlink:href="#DejaVuSerif-32" transform="translate(273.193359 0)"/>
      <use xlink:href="#DejaVuSerif-2e" transform="translate(336.816406 0)"/>
      <use xlink:href="#DejaVuSerif-35" transform="translate(368.603516 0)"/>
      <use xlink:href="#DejaVuSerif-3a" transform="translate(432.226562 0)"/>
      <use xlink:href="#DejaVuSerif-33" transform="translate(465.917969 0)"/>
      <use xlink:href="#DejaVuSerif-32" transform="translate(529.541016 0)"/>
      <use xlink:href="#DejaVuSerif-62" transform="translate(593.164062 0)"/>
     </g>
    </g>
    <g id="line2d_28">
     <path d="M 271.521172 39.041016 
L 279.021172 39.041016 
L 286.521172 39.041016 
" style="fill: none; stroke-dasharray: 6.66,2.88; stroke-dashoffset: 0; stroke: #2ca02c; stroke-width: 1.8"/>
     <g>
      <use xlink:href="#m620d963704" x="279.021172" y="39.041016" style="fill: #2ca02c; stroke: #2ca02c; stroke-linejoin: miter"/>
     </g>
    </g>
    <g id="text_15">
     <!-- mixtral:8x7b -->
     <g transform="translate(292.521172 41.666016) scale(0.075 -0.075)">
      <defs>
       <path id="DejaVuSerif-78" d="M 1863 2028 
L 2559 2988 
L 2113 2988 
L 2113 3322 
L 3391 3322 
L 3391 2988 
L 2950 2988 
L 2059 1759 
L 3097 331 
L 3531 331 
L 3531 0 
L 1997 0 
L 1997 331 
L 2419 331 
L 1697 1325 
L 972 331 
L 1403 331 
L 1403 0 
L 141 0 
L 141 331 
L 581 331 
L 1497 1594 
L 488 2988 
L 78 2988 
L 78 3322 
L 1563 3322 
L 1563 2988 
L 1166 2988 
L 1863 2028 
z
" transform="scale(0.015625)"/>
       <path id="DejaVuSerif-6c" d="M 1313 331 
L 1856 331 
L 1856 0 
L 184 0 
L 184 331 
L 738 331 
L 738 4531 
L 184 4531 
L 184 4863 
L 1313 4863 
L 1313 331 
z
" transform="scale(0.015625)"/>
      </defs>
      <use xlink:href="#DejaVuSerif-6d"/>
      <use xlink:href="#DejaVuSerif-69" transform="translate(94.824219 0)"/>
      <use xlink:href="#DejaVuSerif-78" transform="translate(126.806641 0)"/>
      <use xlink:href="#DejaVuSerif-74" transform="translate(183.203125 0)"/>
      <use xlink:href="#DejaVuSerif-72" transform="translate(223.388672 0)"/>
      <use xlink:href="#DejaVuSerif-61" transform="translate(271.191406 0)"/>
      <use xlink:href="#DejaVuSerif-6c" transform="translate(330.810547 0)"/>
      <use xlink:href="#DejaVuSerif-3a" transform="translate(362.792969 0)"/>
      <use xlink:href="#DejaVuSerif-38" transform="translate(396.484375 0)"/>
      <use xlink:href="#DejaVuSerif-78" transform="translate(460.107422 0)"/>
      <use xlink:href="#DejaVuSerif-37" transform="translate(516.503906 0)"/>
      <use xlink:href="#DejaVuSerif-62" transform="translate(580.126953 0)"/>
     </g>
    </g>
    <g id="line2d_29">
     <path d="M 271.521172 50.049609 
L 279.021172 50.049609 
L 286.521172 50.049609 
" style="fill: none; stroke-dasharray: 11.52,2.88,1.8,2.88; stroke-dashoffset: 0; stroke: #9467bd; stroke-width: 1.8"/>
     <g>
      <use xlink:href="#m6e9f89f823" x="279.021172" y="50.049609" style="fill: #9467bd; stroke: #9467bd; stroke-linejoin: miter"/>
     </g>
    </g>
    <g id="text_16">
     <!-- command-r:35b -->
     <g transform="translate(292.521172 52.674609) scale(0.075 -0.075)">
      <use xlink:href="#DejaVuSerif-63"/>
      <use xlink:href="#DejaVuSerif-6f" transform="translate(56.005859 0)"/>
      <use xlink:href="#DejaVuSerif-6d" transform="translate(116.210938 0)"/>
      <use xlink:href="#DejaVuSerif-6d" transform="translate(211.035156 0)"/>
      <use xlink:href="#DejaVuSerif-61" transform="translate(305.859375 0)"/>
      <use xlink:href="#DejaVuSerif-6e" transform="translate(365.478516 0)"/>
      <use xlink:href="#DejaVuSerif-64" transform="translate(429.882812 0)"/>
      <use xlink:href="#DejaVuSerif-2d" transform="translate(493.896484 0)"/>
      <use xlink:href="#DejaVuSerif-72" transform="translate(527.685547 0)"/>
      <use xlink:href="#DejaVuSerif-3a" transform="translate(575.488281 0)"/>
      <use xlink:href="#DejaVuSerif-33" transform="translate(609.179688 0)"/>
      <use xlink:href="#DejaVuSerif-35" transform="translate(672.802734 0)"/>
      <use xlink:href="#DejaVuSerif-62" transform="translate(736.425781 0)"/>
     </g>
    </g>
    <g id="line2d_30">
     <path d="M 271.521172 61.058203 
L 279.021172 61.058203 
L 286.521172 61.058203 
" style="fill: none; stroke: #ff7f0e; stroke-width: 1.8; stroke-linecap: square"/>
     <g>
      <use xlink:href="#mbf223108e3" x="279.021172" y="61.058203" style="fill: #ff7f0e; stroke: #ff7f0e; stroke-linejoin: miter"/>
     </g>
    </g>
    <g id="text_17">
     <!-- qwen2.5:14b -->
     <g transform="translate(292.521172 63.683203) scale(0.075 -0.075)">
      <use xlink:href="#DejaVuSerif-71"/>
      <use xlink:href="#DejaVuSerif-77" transform="translate(64.013672 0)"/>
      <use xlink:href="#DejaVuSerif-65" transform="translate(149.609375 0)"/>
      <use xlink:href="#DejaVuSerif-6e" transform="translate(208.789062 0)"/>
      <use xlink:href="#DejaVuSerif-32" transform="translate(273.193359 0)"/>
      <use xlink:href="#DejaVuSerif-2e" transform="translate(336.816406 0)"/>
      <use xlink:href="#DejaVuSerif-35" transform="translate(368.603516 0)"/>
      <use xlink:href="#DejaVuSerif-3a" transform="translate(432.226562 0)"/>
      <use xlink:href="#DejaVuSerif-31" transform="translate(465.917969 0)"/>
      <use xlink:href="#DejaVuSerif-34" transform="translate(529.541016 0)"/>
      <use xlink:href="#DejaVuSerif-62" transform="translate(593.164062 0)"/>
     </g>
    </g>
    <g id="line2d_31">
     <path d="M 271.521172 72.066797 
L 279.021172 72.066797 
L 286.521172 72.066797 
" style="fill: none; stroke: #cccccc; stroke-linecap: square"/>
     <defs>
      <path id="m6a7ab81048" d="M 0 1.5 
C 0.397805 1.5 0.77937 1.341951 1.06066 1.06066 
C 1.341951 0.77937 1.5 0.397805 1.5 0 
C 1.5 -0.397805 1.341951 -0.77937 1.06066 -1.06066 
C 0.77937 -1.341951 0.397805 -1.5 0 -1.5 
C -0.397805 -1.5 -0.77937 -1.341951 -1.06066 -1.06066 
C -1.341951 -0.77937 -1.5 -0.397805 -1.5 0 
C -1.5 0.397805 -1.341951 0.77937 -1.06066 1.06066 
C -0.77937 1.341951 -0.397805 1.5 0 1.5 
z
" style="stroke: #cccccc"/>
     </defs>
     <g>
      <use xlink:href="#m6a7ab81048" x="279.021172" y="72.066797" style="fill: #cccccc; stroke: #cccccc"/>
     </g>
    </g>
    <g id="text_18">
     <!-- Other models (N=10) -->
     <g transform="translate(292.521172 74.691797) scale(0.075 -0.075)">
      <defs>
       <path id="DejaVuSerif-4f" d="M 2625 244 
Q 3391 244 3781 770 
Q 4172 1297 4172 2328 
Q 4172 3363 3781 3889 
Q 3391 4416 2625 4416 
Q 1856 4416 1465 3889 
Q 1075 3363 1075 2328 
Q 1075 1297 1465 770 
Q 1856 244 2625 244 
z
M 2625 -91 
Q 2150 -91 1751 65 
Q 1353 222 1050 525 
Q 700 875 529 1319 
Q 359 1763 359 2328 
Q 359 2894 529 3339 
Q 700 3784 1050 4134 
Q 1356 4441 1750 4595 
Q 2144 4750 2625 4750 
Q 3641 4750 4266 4084 
Q 4891 3419 4891 2328 
Q 4891 1769 4719 1320 
Q 4547 872 4197 525 
Q 3891 219 3497 64 
Q 3103 -91 2625 -91 
z
" transform="scale(0.015625)"/>
       <path id="DejaVuSerif-4e" d="M 313 0 
L 313 331 
L 941 331 
L 941 4331 
L 313 4331 
L 313 4666 
L 1509 4666 
L 4306 984 
L 4306 4331 
L 3681 4331 
L 3681 4666 
L 5319 4666 
L 5319 4331 
L 4691 4331 
L 4691 -91 
L 4313 -91 
L 1325 3841 
L 1325 331 
L 1953 331 
L 1953 0 
L 313 0 
z
" transform="scale(0.015625)"/>
      </defs>
      <use xlink:href="#DejaVuSerif-4f"/>
      <use xlink:href="#DejaVuSerif-74" transform="translate(81.982422 0)"/>
      <use xlink:href="#DejaVuSerif-68" transform="translate(122.167969 0)"/>
      <use xlink:href="#DejaVuSerif-65" transform="translate(186.572266 0)"/>
      <use xlink:href="#DejaVuSerif-72" transform="translate(245.751953 0)"/>
      <use xlink:href="#DejaVuSerif-20" transform="translate(293.554688 0)"/>
      <use xlink:href="#DejaVuSerif-6d" transform="translate(325.341797 0)"/>
      <use xlink:href="#DejaVuSerif-6f" transform="translate(420.166016 0)"/>
      <use xlink:href="#DejaVuSerif-64" transform="translate(480.371094 0)"/>
      <use xlink:href="#DejaVuSerif-65" transform="translate(544.384766 0)"/>
      <use xlink:href="#DejaVuSerif-6c" transform="translate(603.564453 0)"/>
      <use xlink:href="#DejaVuSerif-73" transform="translate(635.546875 0)"/>
      <use xlink:href="#DejaVuSerif-20" transform="translate(686.865234 0)"/>
      <use xlink:href="#DejaVuSerif-28" transform="translate(718.652344 0)"/>
      <use xlink:href="#DejaVuSerif-4e" transform="translate(757.666016 0)"/>
      <use xlink:href="#DejaVuSerif-3d" transform="translate(845.166016 0)"/>
      <use xlink:href="#DejaVuSerif-31" transform="translate(928.955078 0)"/>
      <use xlink:href="#DejaVuSerif-30" transform="translate(992.578125 0)"/>
      <use xlink:href="#DejaVuSerif-29" transform="translate(1056.201172 0)"/>
     </g>
    </g>
   </g>
  </g>
 </g>
 <defs>
  <clipPath id="p5e8efac5f2">
   <rect x="46.64375" y="7.2" width="334.77" height="252.85875"/>
  </clipPath>
 </defs>
</svg>
