<?xml version="1.0" encoding="utf-8" standalone="no"?>
<!DOCTYPE svg PUBLIC "-//W3C//DTD SVG 1.1//EN"
  "http://www.w3.org/Graphics/SVG/1.1/DTD/svg11.dtd">
<svg xmlns:xlink="http://www.w3.org/1999/xlink" width="719.619137pt" height="368.4pt" viewBox="0 0 719.619137 368.4" xmlns="http://www.w3.org/2000/svg" version="1.1">
 <metadata>
  <rdf:RDF xmlns:dc="http://purl.org/dc/elements/1.1/" xmlns:cc="http://creativecommons.org/ns#" xmlns:rdf="http://www.w3.org/1999/02/22-rdf-syntax-ns#">
   <cc:Work>
    <dc:type rdf:resource="http://purl.org/dc/dcmitype/StillImage"/>
    <dc:date>2026-03-22T02:18:43.193472</dc:date>
    <dc:format>image/svg+xml</dc:format>
    <dc:creator>
     <cc:Agent>
      <dc:title>Matplotlib v3.10.8, https://matplotlib.org/</dc:title>
     </cc:Agent>
    </dc:creator>
   </cc:Work>
  </rdf:RDF>
 </metadata>
 <defs>
  <style type="text/css">*{stroke-linejoin: round; stroke-linecap: butt}</style>
 </defs>
 <g id="figure_1">
  <g id="patch_1">
   <path d="M 0 368.4 
L 719.619137 368.4 
L 719.619137 0 
L 0 0 
z
" style="fill: #ffffff"/>
  </g>
  <g id="axes_1">
   <g id="line2d_1">
    <path d="M 360.504138 53.22 
L 360.504138 133.224 
" clip-path="url(#pb5e1074f8c)" style="fill: none; stroke: #95a5a6; stroke-width: 1.2; stroke-linecap: round"/>
   </g>
   <g id="line2d_2">
    <path d="M 50.818938 136.056 
L 599.806338 136.056 
" clip-path="url(#pb5e1074f8c)" style="fill: none; stroke: #95a5a6; stroke-width: 1.2; stroke-linecap: round"/>
   </g>
   <g id="line2d_3">
    <path d="M 50.818938 136.056 
L 50.818938 98.532 
" clip-path="url(#pb5e1074f8c)" style="fill: none; stroke: #95a5a6; stroke-width: 1.2; stroke-linecap: round"/>
   </g>
   <g id="line2d_4">
    <path d="M 212.699838 136.056 
L 212.699838 98.532 
" clip-path="url(#pb5e1074f8c)" style="fill: none; stroke: #95a5a6; stroke-width: 1.2; stroke-linecap: round"/>
   </g>
   <g id="line2d_5">
    <path d="M 406.253088 136.056 
L 406.253088 98.532 
" clip-path="url(#pb5e1074f8c)" style="fill: none; stroke: #95a5a6; stroke-width: 1.2; stroke-linecap: round"/>
   </g>
   <g id="line2d_6">
    <path d="M 599.806338 136.056 
L 599.806338 98.532 
" clip-path="url(#pb5e1074f8c)" style="fill: none; stroke: #95a5a6; stroke-width: 1.2; stroke-linecap: round"/>
   </g>
   <g id="line2d_7">
    <path d="M 50.818938 153.756 
L 50.818938 156.588 
" clip-path="url(#pb5e1074f8c)" style="fill: none; stroke: #95a5a6; stroke-linecap: round"/>
   </g>
   <g id="line2d_8">
    <path d="M 50.818938 156.588 
L 50.818938 167.916 
" clip-path="url(#pb5e1074f8c)" style="fill: none; stroke: #95a5a6; stroke-linecap: round"/>
   </g>
   <g id="line2d_9">
    <path d="M 50.818938 193.404 
L 50.818938 201.9 
" clip-path="url(#pb5e1074f8c)" style="fill: none; stroke: #95a5a6; stroke-linecap: round"/>
   </g>
   <g id="line2d_10">
    <path d="M 50.818938 227.388 
L 50.818938 235.884 
" clip-path="url(#pb5e1074f8c)" style="fill: none; stroke: #95a5a6; stroke-linecap: round"/>
   </g>
   <g id="line2d_11">
    <path d="M 212.699838 153.756 
L 212.699838 156.588 
" clip-path="url(#pb5e1074f8c)" style="fill: none; stroke: #95a5a6; stroke-linecap: round"/>
   </g>
   <g id="line2d_12">
    <path d="M 212.699838 156.588 
L 212.699838 167.916 
" clip-path="url(#pb5e1074f8c)" style="fill: none; stroke: #95a5a6; stroke-linecap: round"/>
   </g>
   <g id="line2d_13">
    <path d="M 212.699838 193.404 
L 212.699838 201.9 
" clip-path="url(#pb5e1074f8c)" style="fill: none; stroke: #95a5a6; stroke-linecap: round"/>
   </g>
   <g id="line2d_14">
    <path d="M 406.253088 153.756 
L 406.253088 156.588 
" clip-path="url(#pb5e1074f8c)" style="fill: none; stroke: #95a5a6; stroke-linecap: round"/>
   </g>
   <g id="line2d_15">
    <path d="M 406.253088 156.588 
L 406.253088 167.916 
" clip-path="url(#pb5e1074f8c)" style="fill: none; stroke: #95a5a6; stroke-linecap: round"/>
   </g>
   <g id="line2d_16">
    <path d="M 406.253088 193.404 
L 406.253088 201.9 
" clip-path="url(#pb5e1074f8c)" style="fill: none; stroke: #95a5a6; stroke-linecap: round"/>
   </g>
   <g id="line2d_17">
    <path d="M 406.253088 227.388 
L 406.253088 235.884 
" clip-path="url(#pb5e1074f8c)" style="fill: none; stroke: #95a5a6; stroke-linecap: round"/>
   </g>
   <g id="line2d_18">
    <path d="M 599.806338 153.756 
L 599.806338 156.588 
" clip-path="url(#pb5e1074f8c)" style="fill: none; stroke: #95a5a6; stroke-linecap: round"/>
   </g>
   <g id="line2d_19">
    <path d="M 599.806338 156.588 
L 599.806338 167.916 
" clip-path="url(#pb5e1074f8c)" style="fill: none; stroke: #95a5a6; stroke-linecap: round"/>
   </g>
   <g id="line2d_20">
    <path d="M 599.806338 193.404 
L 599.806338 201.9 
" clip-path="url(#pb5e1074f8c)" style="fill: none; stroke: #95a5a6; stroke-linecap: round"/>
   </g>
   <g id="line2d_21">
    <path d="M 599.806338 227.388 
L 599.806338 235.884 
" clip-path="url(#pb5e1074f8c)" style="fill: none; stroke: #95a5a6; stroke-linecap: round"/>
   </g>
   <g id="patch_2">
    <path d="M -9.710443 161.544 
L 116.978958 161.544 
Q 121.905768 161.544 121.905768 156.588 
L 121.905768 101.364 
Q 121.905768 96.408 116.978958 96.408 
L -9.710443 96.408 
Q -14.637253 96.408 -14.637253 101.364 
L -14.637253 156.588 
Q -14.637253 161.544 -9.710443 161.544 
z
" clip-path="url(#pb5e1074f8c)" style="fill: #d0d3d4"/>
   </g>
   <g id="patch_3">
    <path d="M 152.170458 161.544 
L 278.859858 161.544 
Q 283.786668 161.544 283.786668 156.588 
L 283.786668 101.364 
Q 283.786668 96.408 278.859858 96.408 
L 152.170458 96.408 
Q 147.243648 96.408 147.243648 101.364 
L 147.243648 156.588 
Q 147.243648 161.544 152.170458 161.544 
z
" clip-path="url(#pb5e1074f8c)" style="fill: #d0d3d4"/>
   </g>
   <g id="patch_4">
    <path d="M 345.723708 161.544 
L 472.413108 161.544 
Q 477.339918 161.544 477.339918 156.588 
L 477.339918 101.364 
Q 477.339918 96.408 472.413108 96.408 
L 345.723708 96.408 
Q 340.796898 96.408 340.796898 101.364 
L 340.796898 156.588 
Q 340.796898 161.544 345.723708 161.544 
z
" clip-path="url(#pb5e1074f8c)" style="fill: #d0d3d4"/>
   </g>
   <g id="patch_5">
    <path d="M 539.276957 161.544 
L 665.966357 161.544 
Q 670.893168 161.544 670.893168 156.588 
L 670.893168 101.364 
Q 670.893168 96.408 665.966357 96.408 
L 539.276957 96.408 
Q 534.350147 96.408 534.350147 101.364 
L 534.350147 156.588 
Q 534.350147 161.544 539.276957 161.544 
z
" clip-path="url(#pb5e1074f8c)" style="fill: #d0d3d4"/>
   </g>
   <g id="patch_6">
    <path d="M 184.546638 57.468 
L 536.461638 57.468 
Q 540.684618 57.468 540.684618 53.22 
L 540.684618 19.236 
Q 540.684618 14.988 536.461638 14.988 
L 184.546638 14.988 
Q 180.323658 14.988 180.323658 19.236 
L 180.323658 53.22 
Q 180.323658 57.468 184.546638 57.468 
z
" clip-path="url(#pb5e1074f8c)" style="fill: #2c3e50"/>
   </g>
   <g id="patch_7">
    <path d="M -12.525763 158.712 
L 114.163638 158.712 
Q 119.090448 158.712 119.090448 153.756 
L 119.090448 98.532 
Q 119.090448 93.576 114.163638 93.576 
L -12.525763 93.576 
Q -17.452573 93.576 -17.452573 98.532 
L -17.452573 153.756 
Q -17.452573 158.712 -12.525763 158.712 
z
" clip-path="url(#pb5e1074f8c)" style="fill: #2980b9"/>
   </g>
   <g id="patch_8">
    <path d="M -6.191293 196.236 
L 107.829168 196.236 
Q 110.644488 196.236 110.644488 193.404 
L 110.644488 167.916 
Q 110.644488 165.084 107.829168 165.084 
L -6.191293 165.084 
Q -9.006613 165.084 -9.006613 167.916 
L -9.006613 193.404 
Q -9.006613 196.236 -6.191293 196.236 
z
" clip-path="url(#pb5e1074f8c)" style="fill: #ffffff; stroke: #2980b9; stroke-width: 1.5; stroke-linejoin: miter"/>
   </g>
   <g id="patch_9">
    <path d="M -6.191293 230.22 
L 107.829168 230.22 
Q 110.644488 230.22 110.644488 227.388 
L 110.644488 201.9 
Q 110.644488 199.068 107.829168 199.068 
L -6.191293 199.068 
Q -9.006613 199.068 -9.006613 201.9 
L -9.006613 227.388 
Q -9.006613 230.22 -6.191293 230.22 
z
" clip-path="url(#pb5e1074f8c)" style="fill: #ffffff; stroke: #2980b9; stroke-width: 1.5; stroke-linejoin: miter"/>
   </g>
   <g id="patch_10">
    <path d="M -6.191293 264.204 
L 107.829168 264.204 
Q 110.644488 264.204 110.644488 261.372 
L 110.644488 235.884 
Q 110.644488 233.052 107.829168 233.052 
L -6.191293 233.052 
Q -9.006613 233.052 -9.006613 235.884 
L -9.006613 261.372 
Q -9.006613 264.204 -6.191293 264.204 
z
" clip-path="url(#pb5e1074f8c)" style="fill: #ffffff; stroke: #2980b9; stroke-width: 1.5; stroke-linejoin: miter"/>
   </g>
   <g id="patch_11">
    <path d="M 149.355138 158.712 
L 276.044538 158.712 
Q 280.971348 158.712 280.971348 153.756 
L 280.971348 98.532 
Q 280.971348 93.576 276.044538 93.576 
L 149.355138 93.576 
Q 144.428327 93.576 144.428327 98.532 
L 144.428327 153.756 
Q 144.428327 158.712 149.355138 158.712 
z
" clip-path="url(#pb5e1074f8c)" style="fill: #16a085"/>
   </g>
   <g id="patch_12">
    <path d="M 155.689607 196.236 
L 269.710068 196.236 
Q 272.525388 196.236 272.525388 193.404 
L 272.525388 167.916 
Q 272.525388 165.084 269.710068 165.084 
L 155.689607 165.084 
Q 152.874288 165.084 152.874288 167.916 
L 152.874288 193.404 
Q 152.874288 196.236 155.689607 196.236 
z
" clip-path="url(#pb5e1074f8c)" style="fill: #ffffff; stroke: #16a085; stroke-width: 1.5; stroke-linejoin: miter"/>
   </g>
   <g id="patch_13">
    <path d="M 155.689607 230.22 
L 269.710068 230.22 
Q 272.525388 230.22 272.525388 227.388 
L 272.525388 201.9 
Q 272.525388 199.068 269.710068 199.068 
L 155.689607 199.068 
Q 152.874288 199.068 152.874288 201.9 
L 152.874288 227.388 
Q 152.874288 230.22 155.689607 230.22 
z
" clip-path="url(#pb5e1074f8c)" style="fill: #ffffff; stroke: #16a085; stroke-width: 1.5; stroke-linejoin: miter"/>
   </g>
   <g id="patch_14">
    <path d="M 342.908388 158.712 
L 469.597787 158.712 
Q 474.524598 158.712 474.524598 153.756 
L 474.524598 98.532 
Q 474.524598 93.576 469.597787 93.576 
L 342.908388 93.576 
Q 337.981578 93.576 337.981578 98.532 
L 337.981578 153.756 
Q 337.981578 158.712 342.908388 158.712 
z
" clip-path="url(#pb5e1074f8c)" style="fill: #8e44ad"/>
   </g>
   <g id="patch_15">
    <path d="M 349.242858 196.236 
L 463.263318 196.236 
Q 466.078638 196.236 466.078638 193.404 
L 466.078638 167.916 
Q 466.078638 165.084 463.263318 165.084 
L 349.242858 165.084 
Q 346.427538 165.084 346.427538 167.916 
L 346.427538 193.404 
Q 346.427538 196.236 349.242858 196.236 
z
" clip-path="url(#pb5e1074f8c)" style="fill: #ffffff; stroke: #8e44ad; stroke-width: 1.5; stroke-linejoin: miter"/>
   </g>
   <g id="patch_16">
    <path d="M 349.242858 230.22 
L 463.263318 230.22 
Q 466.078638 230.22 466.078638 227.388 
L 466.078638 201.9 
Q 466.078638 199.068 463.263318 199.068 
L 349.242858 199.068 
Q 346.427538 199.068 346.427538 201.9 
L 346.427538 227.388 
Q 346.427538 230.22 349.242858 230.22 
z
" clip-path="url(#pb5e1074f8c)" style="fill: #ffffff; stroke: #8e44ad; stroke-width: 1.5; stroke-linejoin: miter"/>
   </g>
   <g id="patch_17">
    <path d="M 349.242858 264.204 
L 463.263318 264.204 
Q 466.078638 264.204 466.078638 261.372 
L 466.078638 235.884 
Q 466.078638 233.052 463.263318 233.052 
L 349.242858 233.052 
Q 346.427538 233.052 346.427538 235.884 
L 346.427538 261.372 
Q 346.427538 264.204 349.242858 264.204 
z
" clip-path="url(#pb5e1074f8c)" style="fill: #ffffff; stroke: #8e44ad; stroke-width: 1.5; stroke-linejoin: miter"/>
   </g>
   <g id="patch_18">
    <path d="M 536.461638 158.712 
L 663.151038 158.712 
Q 668.077848 158.712 668.077848 153.756 
L 668.077848 98.532 
Q 668.077848 93.576 663.151038 93.576 
L 536.461638 93.576 
Q 531.534828 93.576 531.534828 98.532 
L 531.534828 153.756 
Q 531.534828 158.712 536.461638 158.712 
z
" clip-path="url(#pb5e1074f8c)" style="fill: #d35400"/>
   </g>
   <g id="patch_19">
    <path d="M 542.796108 196.236 
L 656.816568 196.236 
Q 659.631888 196.236 659.631888 193.404 
L 659.631888 167.916 
Q 659.631888 165.084 656.816568 165.084 
L 542.796108 165.084 
Q 539.980788 165.084 539.980788 167.916 
L 539.980788 193.404 
Q 539.980788 196.236 542.796108 196.236 
z
" clip-path="url(#pb5e1074f8c)" style="fill: #ffffff; stroke: #d35400; stroke-width: 1.5; stroke-linejoin: miter"/>
   </g>
   <g id="patch_20">
    <path d="M 542.796108 230.22 
L 656.816568 230.22 
Q 659.631888 230.22 659.631888 227.388 
L 659.631888 201.9 
Q 659.631888 199.068 656.816568 199.068 
L 542.796108 199.068 
Q 539.980788 199.068 539.980788 201.9 
L 539.980788 227.388 
Q 539.980788 230.22 542.796108 230.22 
z
" clip-path="url(#pb5e1074f8c)" style="fill: #ffffff; stroke: #d35400; stroke-width: 1.5; stroke-linejoin: miter"/>
   </g>
   <g id="patch_21">
    <path d="M 542.796108 264.204 
L 656.816568 264.204 
Q 659.631888 264.204 659.631888 261.372 
L 659.631888 235.884 
Q 659.631888 233.052 656.816568 233.052 
L 542.796108 233.052 
Q 539.980788 233.052 539.980788 235.884 
L 539.980788 261.372 
Q 539.980788 264.204 542.796108 264.204 
z
" clip-path="url(#pb5e1074f8c)" style="fill: #ffffff; stroke: #d35400; stroke-width: 1.5; stroke-linejoin: miter"/>
   </g>
   <g id="patch_22">
    <path d="M 194.400258 352.704 
L 216.922818 352.704 
Q 219.034308 352.704 219.034308 350.58 
L 219.034308 335.004 
Q 219.034308 332.88 216.922818 332.88 
L 194.400258 332.88 
Q 192.288768 332.88 192.288768 335.004 
L 192.288768 350.58 
Q 192.288768 352.704 194.400258 352.704 
z
" clip-path="url(#pb5e1074f8c)" style="fill: #2980b9"/>
   </g>
   <g id="text_1">
    <!-- T1  Tested in pilot -->
    <g style="fill: #555555" transform="translate(222.553458 344.9995) scale(0.08 -0.08)">
     <defs>
      <path id="DejaVuSans-54" d="M -19 4666 
L 3928 4666 
L 3928 4134 
L 2272 4134 
L 2272 0 
L 1638 0 
L 1638 4134 
L -19 4134 
L -19 4666 
z
" transform="scale(0.015625)"/>
      <path id="DejaVuSans-31" d="M 794 531 
L 1825 531 
L 1825 4091 
L 703 3866 
L 703 4441 
L 1819 4666 
L 2450 4666 
L 2450 531 
L 3481 531 
L 3481 0 
L 794 0 
L 794 531 
z
" transform="scale(0.015625)"/>
      <path id="DejaVuSans-20" transform="scale(0.015625)"/>
      <path id="DejaVuSans-65" d="M 3597 1894 
L 3597 1613 
L 953 1613 
Q 991 1019 1311 708 
Q 1631 397 2203 397 
Q 2534 397 2845 478 
Q 3156 559 3463 722 
L 3463 178 
Q 3153 47 2828 -22 
Q 2503 -91 2169 -91 
Q 1331 -91 842 396 
Q 353 884 353 1716 
Q 353 2575 817 3079 
Q 1281 3584 2069 3584 
Q 2775 3584 3186 3129 
Q 3597 2675 3597 1894 
z
M 3022 2063 
Q 3016 2534 2758 2815 
Q 2500 3097 2075 3097 
Q 1594 3097 1305 2825 
Q 1016 2553 972 2059 
L 3022 2063 
z
" transform="scale(0.015625)"/>
      <path id="DejaVuSans-73" d="M 2834 3397 
L 2834 2853 
Q 2591 2978 2328 3040 
Q 2066 3103 1784 3103 
Q 1356 3103 1142 2972 
Q 928 2841 928 2578 
Q 928 2378 1081 2264 
Q 1234 2150 1697 2047 
L 1894 2003 
Q 2506 1872 2764 1633 
Q 3022 1394 3022 966 
Q 3022 478 2636 193 
Q 2250 -91 1575 -91 
Q 1294 -91 989 -36 
Q 684 19 347 128 
L 347 722 
Q 666 556 975 473 
Q 1284 391 1588 391 
Q 1994 391 2212 530 
Q 2431 669 2431 922 
Q 2431 1156 2273 1281 
Q 2116 1406 1581 1522 
L 1381 1569 
Q 847 1681 609 1914 
Q 372 2147 372 2553 
Q 372 3047 722 3315 
Q 1072 3584 1716 3584 
Q 2034 3584 2315 3537 
Q 2597 3491 2834 3397 
z
" transform="scale(0.015625)"/>
      <path id="DejaVuSans-74" d="M 1172 4494 
L 1172 3500 
L 2356 3500 
L 2356 3053 
L 1172 3053 
L 1172 1153 
Q 1172 725 1289 603 
Q 1406 481 1766 481 
L 2356 481 
L 2356 0 
L 1766 0 
Q 1100 0 847 248 
Q 594 497 594 1153 
L 594 3053 
L 172 3053 
L 172 3500 
L 594 3500 
L 594 4494 
L 1172 4494 
z
" transform="scale(0.015625)"/>
      <path id="DejaVuSans-64" d="M 2906 2969 
L 2906 4863 
L 3481 4863 
L 3481 0 
L 2906 0 
L 2906 525 
Q 2725 213 2448 61 
Q 2172 -91 1784 -91 
Q 1150 -91 751 415 
Q 353 922 353 1747 
Q 353 2572 751 3078 
Q 1150 3584 1784 3584 
Q 2172 3584 2448 3432 
Q 2725 3281 2906 2969 
z
M 947 1747 
Q 947 1113 1208 752 
Q 1469 391 1925 391 
Q 2381 391 2643 752 
Q 2906 1113 2906 1747 
Q 2906 2381 2643 2742 
Q 2381 3103 1925 3103 
Q 1469 3103 1208 2742 
Q 947 2381 947 1747 
z
" transform="scale(0.015625)"/>
      <path id="DejaVuSans-69" d="M 603 3500 
L 1178 3500 
L 1178 0 
L 603 0 
L 603 3500 
z
M 603 4863 
L 1178 4863 
L 1178 4134 
L 603 4134 
L 603 4863 
z
" transform="scale(0.015625)"/>
      <path id="DejaVuSans-6e" d="M 3513 2113 
L 3513 0 
L 2938 0 
L 2938 2094 
Q 2938 2591 2744 2837 
Q 2550 3084 2163 3084 
Q 1697 3084 1428 2787 
Q 1159 2491 1159 1978 
L 1159 0 
L 581 0 
L 581 3500 
L 1159 3500 
L 1159 2956 
Q 1366 3272 1645 3428 
Q 1925 3584 2291 3584 
Q 2894 3584 3203 3211 
Q 3513 2838 3513 2113 
z
" transform="scale(0.015625)"/>
      <path id="DejaVuSans-70" d="M 1159 525 
L 1159 -1331 
L 581 -1331 
L 581 3500 
L 1159 3500 
L 1159 2969 
Q 1341 3281 1617 3432 
Q 1894 3584 2278 3584 
Q 2916 3584 3314 3078 
Q 3713 2572 3713 1747 
Q 3713 922 3314 415 
Q 2916 -91 2278 -91 
Q 1894 -91 1617 61 
Q 1341 213 1159 525 
z
M 3116 1747 
Q 3116 2381 2855 2742 
Q 2594 3103 2138 3103 
Q 1681 3103 1420 2742 
Q 1159 2381 1159 1747 
Q 1159 1113 1420 752 
Q 1681 391 2138 391 
Q 2594 391 2855 752 
Q 3116 1113 3116 1747 
z
" transform="scale(0.015625)"/>
      <path id="DejaVuSans-6c" d="M 603 4863 
L 1178 4863 
L 1178 0 
L 603 0 
L 603 4863 
z
" transform="scale(0.015625)"/>
      <path id="DejaVuSans-6f" d="M 1959 3097 
Q 1497 3097 1228 2736 
Q 959 2375 959 1747 
Q 959 1119 1226 758 
Q 1494 397 1959 397 
Q 2419 397 2687 759 
Q 2956 1122 2956 1747 
Q 2956 2369 2687 2733 
Q 2419 3097 1959 3097 
z
M 1959 3584 
Q 2709 3584 3137 3096 
Q 3566 2609 3566 1747 
Q 3566 888 3137 398 
Q 2709 -91 1959 -91 
Q 1206 -91 779 398 
Q 353 888 353 1747 
Q 353 2609 779 3096 
Q 1206 3584 1959 3584 
z
" transform="scale(0.015625)"/>
     </defs>
     <use xlink:href="#DejaVuSans-54"/>
     <use xlink:href="#DejaVuSans-31" transform="translate(61.083984 0)"/>
     <use xlink:href="#DejaVuSans-20" transform="translate(124.707031 0)"/>
     <use xlink:href="#DejaVuSans-20" transform="translate(156.494141 0)"/>
     <use xlink:href="#DejaVuSans-54" transform="translate(188.28125 0)"/>
     <use xlink:href="#DejaVuSans-65" transform="translate(232.365234 0)"/>
     <use xlink:href="#DejaVuSans-73" transform="translate(293.888672 0)"/>
     <use xlink:href="#DejaVuSans-74" transform="translate(345.988281 0)"/>
     <use xlink:href="#DejaVuSans-65" transform="translate(385.197266 0)"/>
     <use xlink:href="#DejaVuSans-64" transform="translate(446.720703 0)"/>
     <use xlink:href="#DejaVuSans-20" transform="translate(510.197266 0)"/>
     <use xlink:href="#DejaVuSans-69" transform="translate(541.984375 0)"/>
     <use xlink:href="#DejaVuSans-6e" transform="translate(569.767578 0)"/>
     <use xlink:href="#DejaVuSans-20" transform="translate(633.146484 0)"/>
     <use xlink:href="#DejaVuSans-70" transform="translate(664.933594 0)"/>
     <use xlink:href="#DejaVuSans-69" transform="translate(728.410156 0)"/>
     <use xlink:href="#DejaVuSans-6c" transform="translate(756.193359 0)"/>
     <use xlink:href="#DejaVuSans-6f" transform="translate(783.976562 0)"/>
     <use xlink:href="#DejaVuSans-74" transform="translate(845.158203 0)"/>
    </g>
   </g>
   <g id="patch_23">
    <path d="M 402.030108 352.704 
L 424.552667 352.704 
Q 426.664157 352.704 426.664157 350.58 
L 426.664157 335.004 
Q 426.664157 332.88 424.552667 332.88 
L 402.030108 332.88 
Q 399.918618 332.88 399.918618 335.004 
L 399.918618 350.58 
Q 399.918618 352.704 402.030108 352.704 
z
" clip-path="url(#pb5e1074f8c)" style="fill: #bdc3c7"/>
   </g>
   <g id="text_2">
    <!-- T2  Protocol specified, full study pending -->
    <g style="fill: #555555" transform="translate(430.183308 344.9995) scale(0.08 -0.08)">
     <defs>
      <path id="DejaVuSans-32" d="M 1228 531 
L 3431 531 
L 3431 0 
L 469 0 
L 469 531 
Q 828 903 1448 1529 
Q 2069 2156 2228 2338 
Q 2531 2678 2651 2914 
Q 2772 3150 2772 3378 
Q 2772 3750 2511 3984 
Q 2250 4219 1831 4219 
Q 1534 4219 1204 4116 
Q 875 4013 500 3803 
L 500 4441 
Q 881 4594 1212 4672 
Q 1544 4750 1819 4750 
Q 2544 4750 2975 4387 
Q 3406 4025 3406 3419 
Q 3406 3131 3298 2873 
Q 3191 2616 2906 2266 
Q 2828 2175 2409 1742 
Q 1991 1309 1228 531 
z
" transform="scale(0.015625)"/>
      <path id="DejaVuSans-50" d="M 1259 4147 
L 1259 2394 
L 2053 2394 
Q 2494 2394 2734 2622 
Q 2975 2850 2975 3272 
Q 2975 3691 2734 3919 
Q 2494 4147 2053 4147 
L 1259 4147 
z
M 628 4666 
L 2053 4666 
Q 2838 4666 3239 4311 
Q 3641 3956 3641 3272 
Q 3641 2581 3239 2228 
Q 2838 1875 2053 1875 
L 1259 1875 
L 1259 0 
L 628 0 
L 628 4666 
z
" transform="scale(0.015625)"/>
      <path id="DejaVuSans-72" d="M 2631 2963 
Q 2534 3019 2420 3045 
Q 2306 3072 2169 3072 
Q 1681 3072 1420 2755 
Q 1159 2438 1159 1844 
L 1159 0 
L 581 0 
L 581 3500 
L 1159 3500 
L 1159 2956 
Q 1341 3275 1631 3429 
Q 1922 3584 2338 3584 
Q 2397 3584 2469 3576 
Q 2541 3569 2628 3553 
L 2631 2963 
z
" transform="scale(0.015625)"/>
      <path id="DejaVuSans-63" d="M 3122 3366 
L 3122 2828 
Q 2878 2963 2633 3030 
Q 2388 3097 2138 3097 
Q 1578 3097 1268 2742 
Q 959 2388 959 1747 
Q 959 1106 1268 751 
Q 1578 397 2138 397 
Q 2388 397 2633 464 
Q 2878 531 3122 666 
L 3122 134 
Q 2881 22 2623 -34 
Q 2366 -91 2075 -91 
Q 1284 -91 818 406 
Q 353 903 353 1747 
Q 353 2603 823 3093 
Q 1294 3584 2113 3584 
Q 2378 3584 2631 3529 
Q 2884 3475 3122 3366 
z
" transform="scale(0.015625)"/>
      <path id="DejaVuSans-66" d="M 2375 4863 
L 2375 4384 
L 1825 4384 
Q 1516 4384 1395 4259 
Q 1275 4134 1275 3809 
L 1275 3500 
L 2222 3500 
L 2222 3053 
L 1275 3053 
L 1275 0 
L 697 0 
L 697 3053 
L 147 3053 
L 147 3500 
L 697 3500 
L 697 3744 
Q 697 4328 969 4595 
Q 1241 4863 1831 4863 
L 2375 4863 
z
" transform="scale(0.015625)"/>
      <path id="DejaVuSans-2c" d="M 750 794 
L 1409 794 
L 1409 256 
L 897 -744 
L 494 -744 
L 750 256 
L 750 794 
z
" transform="scale(0.015625)"/>
      <path id="DejaVuSans-75" d="M 544 1381 
L 544 3500 
L 1119 3500 
L 1119 1403 
Q 1119 906 1312 657 
Q 1506 409 1894 409 
Q 2359 409 2629 706 
Q 2900 1003 2900 1516 
L 2900 3500 
L 3475 3500 
L 3475 0 
L 2900 0 
L 2900 538 
Q 2691 219 2414 64 
Q 2138 -91 1772 -91 
Q 1169 -91 856 284 
Q 544 659 544 1381 
z
M 1991 3584 
L 1991 3584 
z
" transform="scale(0.015625)"/>
      <path id="DejaVuSans-79" d="M 2059 -325 
Q 1816 -950 1584 -1140 
Q 1353 -1331 966 -1331 
L 506 -1331 
L 506 -850 
L 844 -850 
Q 1081 -850 1212 -737 
Q 1344 -625 1503 -206 
L 1606 56 
L 191 3500 
L 800 3500 
L 1894 763 
L 2988 3500 
L 3597 3500 
L 2059 -325 
z
" transform="scale(0.015625)"/>
      <path id="DejaVuSans-67" d="M 2906 1791 
Q 2906 2416 2648 2759 
Q 2391 3103 1925 3103 
Q 1463 3103 1205 2759 
Q 947 2416 947 1791 
Q 947 1169 1205 825 
Q 1463 481 1925 481 
Q 2391 481 2648 825 
Q 2906 1169 2906 1791 
z
M 3481 434 
Q 3481 -459 3084 -895 
Q 2688 -1331 1869 -1331 
Q 1566 -1331 1297 -1286 
Q 1028 -1241 775 -1147 
L 775 -588 
Q 1028 -725 1275 -790 
Q 1522 -856 1778 -856 
Q 2344 -856 2625 -561 
Q 2906 -266 2906 331 
L 2906 616 
Q 2728 306 2450 153 
Q 2172 0 1784 0 
Q 1141 0 747 490 
Q 353 981 353 1791 
Q 353 2603 747 3093 
Q 1141 3584 1784 3584 
Q 2172 3584 2450 3431 
Q 2728 3278 2906 2969 
L 2906 3500 
L 3481 3500 
L 3481 434 
z
" transform="scale(0.015625)"/>
     </defs>
     <use xlink:href="#DejaVuSans-54"/>
     <use xlink:href="#DejaVuSans-32" transform="translate(61.083984 0)"/>
     <use xlink:href="#DejaVuSans-20" transform="translate(124.707031 0)"/>
     <use xlink:href="#DejaVuSans-20" transform="translate(156.494141 0)"/>
     <use xlink:href="#DejaVuSans-50" transform="translate(188.28125 0)"/>
     <use xlink:href="#DejaVuSans-72" transform="translate(246.833984 0)"/>
     <use xlink:href="#DejaVuSans-6f" transform="translate(285.697266 0)"/>
     <use xlink:href="#DejaVuSans-74" transform="translate(346.878906 0)"/>
     <use xlink:href="#DejaVuSans-6f" transform="translate(386.087891 0)"/>
     <use xlink:href="#DejaVuSans-63" transform="translate(447.269531 0)"/>
     <use xlink:href="#DejaVuSans-6f" transform="translate(502.25 0)"/>
     <use xlink:href="#DejaVuSans-6c" transform="translate(563.431641 0)"/>
     <use xlink:href="#DejaVuSans-20" transform="translate(591.214844 0)"/>
     <use xlink:href="#DejaVuSans-73" transform="translate(623.001953 0)"/>
     <use xlink:href="#DejaVuSans-70" transform="translate(675.101562 0)"/>
     <use xlink:href="#DejaVuSans-65" transform="translate(738.578125 0)"/>
     <use xlink:href="#DejaVuSans-63" transform="translate(800.101562 0)"/>
     <use xlink:href="#DejaVuSans-69" transform="translate(855.082031 0)"/>
     <use xlink:href="#DejaVuSans-66" transform="translate(882.865234 0)"/>
     <use xlink:href="#DejaVuSans-69" transform="translate(918.070312 0)"/>
     <use xlink:href="#DejaVuSans-65" transform="translate(945.853516 0)"/>
     <use xlink:href="#DejaVuSans-64" transform="translate(1007.376953 0)"/>
     <use xlink:href="#DejaVuSans-2c" transform="translate(1070.853516 0)"/>
     <use xlink:href="#DejaVuSans-20" transform="translate(1102.640625 0)"/>
     <use xlink:href="#DejaVuSans-66" transform="translate(1134.427734 0)"/>
     <use xlink:href="#DejaVuSans-75" transform="translate(1169.632812 0)"/>
     <use xlink:href="#DejaVuSans-6c" transform="translate(1233.011719 0)"/>
     <use xlink:href="#DejaVuSans-6c" transform="translate(1260.794922 0)"/>
     <use xlink:href="#DejaVuSans-20" transform="translate(1288.578125 0)"/>
     <use xlink:href="#DejaVuSans-73" transform="translate(1320.365234 0)"/>
     <use xlink:href="#DejaVuSans-74" transform="translate(1372.464844 0)"/>
     <use xlink:href="#DejaVuSans-75" transform="translate(1411.673828 0)"/>
     <use xlink:href="#DejaVuSans-64" transform="translate(1475.052734 0)"/>
     <use xlink:href="#DejaVuSans-79" transform="translate(1538.529297 0)"/>
     <use xlink:href="#DejaVuSans-20" transform="translate(1597.708984 0)"/>
     <use xlink:href="#DejaVuSans-70" transform="translate(1629.496094 0)"/>
     <use xlink:href="#DejaVuSans-65" transform="translate(1692.972656 0)"/>
     <use xlink:href="#DejaVuSans-6e" transform="translate(1754.496094 0)"/>
     <use xlink:href="#DejaVuSans-64" transform="translate(1817.875 0)"/>
     <use xlink:href="#DejaVuSans-69" transform="translate(1881.351562 0)"/>
     <use xlink:href="#DejaVuSans-6e" transform="translate(1909.134766 0)"/>
     <use xlink:href="#DejaVuSans-67" transform="translate(1972.513672 0)"/>
    </g>
   </g>
   <g id="text_3">
    <!-- Cognitive Evaluation Framework (CEF) -->
    <g style="fill: #ffffff" transform="translate(236.093005 39.356359) scale(0.115 -0.115)">
     <defs>
      <path id="DejaVuSans-Bold-43" d="M 4288 256 
Q 3956 84 3597 -3 
Q 3238 -91 2847 -91 
Q 1681 -91 1000 561 
Q 319 1213 319 2328 
Q 319 3447 1000 4098 
Q 1681 4750 2847 4750 
Q 3238 4750 3597 4662 
Q 3956 4575 4288 4403 
L 4288 3438 
Q 3953 3666 3628 3772 
Q 3303 3878 2944 3878 
Q 2300 3878 1931 3465 
Q 1563 3053 1563 2328 
Q 1563 1606 1931 1193 
Q 2300 781 2944 781 
Q 3303 781 3628 887 
Q 3953 994 4288 1222 
L 4288 256 
z
" transform="scale(0.015625)"/>
      <path id="DejaVuSans-Bold-6f" d="M 2203 2784 
Q 1831 2784 1636 2517 
Q 1441 2250 1441 1747 
Q 1441 1244 1636 976 
Q 1831 709 2203 709 
Q 2569 709 2762 976 
Q 2956 1244 2956 1747 
Q 2956 2250 2762 2517 
Q 2569 2784 2203 2784 
z
M 2203 3584 
Q 3106 3584 3614 3096 
Q 4122 2609 4122 1747 
Q 4122 884 3614 396 
Q 3106 -91 2203 -91 
Q 1297 -91 786 396 
Q 275 884 275 1747 
Q 275 2609 786 3096 
Q 1297 3584 2203 3584 
z
" transform="scale(0.015625)"/>
      <path id="DejaVuSans-Bold-67" d="M 2919 594 
Q 2688 288 2409 144 
Q 2131 0 1766 0 
Q 1125 0 706 504 
Q 288 1009 288 1791 
Q 288 2575 706 3076 
Q 1125 3578 1766 3578 
Q 2131 3578 2409 3434 
Q 2688 3291 2919 2981 
L 2919 3500 
L 4044 3500 
L 4044 353 
Q 4044 -491 3511 -936 
Q 2978 -1381 1966 -1381 
Q 1638 -1381 1331 -1331 
Q 1025 -1281 716 -1178 
L 716 -306 
Q 1009 -475 1290 -558 
Q 1572 -641 1856 -641 
Q 2406 -641 2662 -400 
Q 2919 -159 2919 353 
L 2919 594 
z
M 2181 2772 
Q 1834 2772 1640 2515 
Q 1447 2259 1447 1791 
Q 1447 1309 1634 1061 
Q 1822 813 2181 813 
Q 2531 813 2725 1069 
Q 2919 1325 2919 1791 
Q 2919 2259 2725 2515 
Q 2531 2772 2181 2772 
z
" transform="scale(0.015625)"/>
      <path id="DejaVuSans-Bold-6e" d="M 4056 2131 
L 4056 0 
L 2931 0 
L 2931 347 
L 2931 1631 
Q 2931 2084 2911 2256 
Q 2891 2428 2841 2509 
Q 2775 2619 2662 2680 
Q 2550 2741 2406 2741 
Q 2056 2741 1856 2470 
Q 1656 2200 1656 1722 
L 1656 0 
L 538 0 
L 538 3500 
L 1656 3500 
L 1656 2988 
Q 1909 3294 2193 3439 
Q 2478 3584 2822 3584 
Q 3428 3584 3742 3212 
Q 4056 2841 4056 2131 
z
" transform="scale(0.015625)"/>
      <path id="DejaVuSans-Bold-69" d="M 538 3500 
L 1656 3500 
L 1656 0 
L 538 0 
L 538 3500 
z
M 538 4863 
L 1656 4863 
L 1656 3950 
L 538 3950 
L 538 4863 
z
" transform="scale(0.015625)"/>
      <path id="DejaVuSans-Bold-74" d="M 1759 4494 
L 1759 3500 
L 2913 3500 
L 2913 2700 
L 1759 2700 
L 1759 1216 
Q 1759 972 1856 886 
Q 1953 800 2241 800 
L 2816 800 
L 2816 0 
L 1856 0 
Q 1194 0 917 276 
Q 641 553 641 1216 
L 641 2700 
L 84 2700 
L 84 3500 
L 641 3500 
L 641 4494 
L 1759 4494 
z
" transform="scale(0.015625)"/>
      <path id="DejaVuSans-Bold-76" d="M 97 3500 
L 1216 3500 
L 2088 1081 
L 2956 3500 
L 4078 3500 
L 2700 0 
L 1472 0 
L 97 3500 
z
" transform="scale(0.015625)"/>
      <path id="DejaVuSans-Bold-65" d="M 4031 1759 
L 4031 1441 
L 1416 1441 
Q 1456 1047 1700 850 
Q 1944 653 2381 653 
Q 2734 653 3104 758 
Q 3475 863 3866 1075 
L 3866 213 
Q 3469 63 3072 -14 
Q 2675 -91 2278 -91 
Q 1328 -91 801 392 
Q 275 875 275 1747 
Q 275 2603 792 3093 
Q 1309 3584 2216 3584 
Q 3041 3584 3536 3087 
Q 4031 2591 4031 1759 
z
M 2881 2131 
Q 2881 2450 2695 2645 
Q 2509 2841 2209 2841 
Q 1884 2841 1681 2658 
Q 1478 2475 1428 2131 
L 2881 2131 
z
" transform="scale(0.015625)"/>
      <path id="DejaVuSans-Bold-20" transform="scale(0.015625)"/>
      <path id="DejaVuSans-Bold-45" d="M 588 4666 
L 3834 4666 
L 3834 3756 
L 1791 3756 
L 1791 2888 
L 3713 2888 
L 3713 1978 
L 1791 1978 
L 1791 909 
L 3903 909 
L 3903 0 
L 588 0 
L 588 4666 
z
" transform="scale(0.015625)"/>
      <path id="DejaVuSans-Bold-61" d="M 2106 1575 
Q 1756 1575 1579 1456 
Q 1403 1338 1403 1106 
Q 1403 894 1545 773 
Q 1688 653 1941 653 
Q 2256 653 2472 879 
Q 2688 1106 2688 1447 
L 2688 1575 
L 2106 1575 
z
M 3816 1997 
L 3816 0 
L 2688 0 
L 2688 519 
Q 2463 200 2181 54 
Q 1900 -91 1497 -91 
Q 953 -91 614 226 
Q 275 544 275 1050 
Q 275 1666 698 1953 
Q 1122 2241 2028 2241 
L 2688 2241 
L 2688 2328 
Q 2688 2594 2478 2717 
Q 2269 2841 1825 2841 
Q 1466 2841 1156 2769 
Q 847 2697 581 2553 
L 581 3406 
Q 941 3494 1303 3539 
Q 1666 3584 2028 3584 
Q 2975 3584 3395 3211 
Q 3816 2838 3816 1997 
z
" transform="scale(0.015625)"/>
      <path id="DejaVuSans-Bold-6c" d="M 538 4863 
L 1656 4863 
L 1656 0 
L 538 0 
L 538 4863 
z
" transform="scale(0.015625)"/>
      <path id="DejaVuSans-Bold-75" d="M 500 1363 
L 500 3500 
L 1625 3500 
L 1625 3150 
Q 1625 2866 1622 2436 
Q 1619 2006 1619 1863 
Q 1619 1441 1641 1255 
Q 1663 1069 1716 984 
Q 1784 875 1895 815 
Q 2006 756 2150 756 
Q 2500 756 2700 1025 
Q 2900 1294 2900 1772 
L 2900 3500 
L 4019 3500 
L 4019 0 
L 2900 0 
L 2900 506 
Q 2647 200 2364 54 
Q 2081 -91 1741 -91 
Q 1134 -91 817 281 
Q 500 653 500 1363 
z
" transform="scale(0.015625)"/>
      <path id="DejaVuSans-Bold-46" d="M 588 4666 
L 3834 4666 
L 3834 3756 
L 1791 3756 
L 1791 2888 
L 3713 2888 
L 3713 1978 
L 1791 1978 
L 1791 0 
L 588 0 
L 588 4666 
z
" transform="scale(0.015625)"/>
      <path id="DejaVuSans-Bold-72" d="M 3138 2547 
Q 2991 2616 2845 2648 
Q 2700 2681 2553 2681 
Q 2122 2681 1889 2404 
Q 1656 2128 1656 1613 
L 1656 0 
L 538 0 
L 538 3500 
L 1656 3500 
L 1656 2925 
Q 1872 3269 2151 3426 
Q 2431 3584 2822 3584 
Q 2878 3584 2943 3579 
Q 3009 3575 3134 3559 
L 3138 2547 
z
" transform="scale(0.015625)"/>
      <path id="DejaVuSans-Bold-6d" d="M 3781 2919 
Q 3994 3244 4286 3414 
Q 4578 3584 4928 3584 
Q 5531 3584 5847 3212 
Q 6163 2841 6163 2131 
L 6163 0 
L 5038 0 
L 5038 1825 
Q 5041 1866 5042 1909 
Q 5044 1953 5044 2034 
Q 5044 2406 4934 2573 
Q 4825 2741 4581 2741 
Q 4263 2741 4089 2478 
Q 3916 2216 3909 1719 
L 3909 0 
L 2784 0 
L 2784 1825 
Q 2784 2406 2684 2573 
Q 2584 2741 2328 2741 
Q 2006 2741 1831 2477 
Q 1656 2213 1656 1722 
L 1656 0 
L 531 0 
L 531 3500 
L 1656 3500 
L 1656 2988 
Q 1863 3284 2130 3434 
Q 2397 3584 2719 3584 
Q 3081 3584 3359 3409 
Q 3638 3234 3781 2919 
z
" transform="scale(0.015625)"/>
      <path id="DejaVuSans-Bold-77" d="M 225 3500 
L 1313 3500 
L 1900 1088 
L 2491 3500 
L 3425 3500 
L 4013 1113 
L 4603 3500 
L 5691 3500 
L 4769 0 
L 3547 0 
L 2956 2406 
L 2369 0 
L 1147 0 
L 225 3500 
z
" transform="scale(0.015625)"/>
      <path id="DejaVuSans-Bold-6b" d="M 538 4863 
L 1656 4863 
L 1656 2216 
L 2944 3500 
L 4244 3500 
L 2534 1894 
L 4378 0 
L 3022 0 
L 1656 1459 
L 1656 0 
L 538 0 
L 538 4863 
z
" transform="scale(0.015625)"/>
      <path id="DejaVuSans-Bold-28" d="M 2413 -844 
L 1484 -844 
Q 1006 -72 778 623 
Q 550 1319 550 2003 
Q 550 2688 779 3389 
Q 1009 4091 1484 4856 
L 2413 4856 
Q 2013 4116 1813 3408 
Q 1613 2700 1613 2009 
Q 1613 1319 1811 609 
Q 2009 -100 2413 -844 
z
" transform="scale(0.015625)"/>
      <path id="DejaVuSans-Bold-29" d="M 513 -844 
Q 913 -100 1113 609 
Q 1313 1319 1313 2009 
Q 1313 2700 1113 3408 
Q 913 4116 513 4856 
L 1441 4856 
Q 1916 4091 2145 3389 
Q 2375 2688 2375 2003 
Q 2375 1319 2147 623 
Q 1919 -72 1441 -844 
L 513 -844 
z
" transform="scale(0.015625)"/>
     </defs>
     <use xlink:href="#DejaVuSans-Bold-43"/>
     <use xlink:href="#DejaVuSans-Bold-6f" transform="translate(73.388672 0)"/>
     <use xlink:href="#DejaVuSans-Bold-67" transform="translate(142.089844 0)"/>
     <use xlink:href="#DejaVuSans-Bold-6e" transform="translate(213.671875 0)"/>
     <use xlink:href="#DejaVuSans-Bold-69" transform="translate(284.863281 0)"/>
     <use xlink:href="#DejaVuSans-Bold-74" transform="translate(319.140625 0)"/>
     <use xlink:href="#DejaVuSans-Bold-69" transform="translate(366.943359 0)"/>
     <use xlink:href="#DejaVuSans-Bold-76" transform="translate(401.220703 0)"/>
     <use xlink:href="#DejaVuSans-Bold-65" transform="translate(466.40625 0)"/>
     <use xlink:href="#DejaVuSans-Bold-20" transform="translate(534.228516 0)"/>
     <use xlink:href="#DejaVuSans-Bold-45" transform="translate(569.042969 0)"/>
     <use xlink:href="#DejaVuSans-Bold-76" transform="translate(637.353516 0)"/>
     <use xlink:href="#DejaVuSans-Bold-61" transform="translate(702.539062 0)"/>
     <use xlink:href="#DejaVuSans-Bold-6c" transform="translate(770.019531 0)"/>
     <use xlink:href="#DejaVuSans-Bold-75" transform="translate(804.296875 0)"/>
     <use xlink:href="#DejaVuSans-Bold-61" transform="translate(875.488281 0)"/>
     <use xlink:href="#DejaVuSans-Bold-74" transform="translate(942.96875 0)"/>
     <use xlink:href="#DejaVuSans-Bold-69" transform="translate(990.771484 0)"/>
     <use xlink:href="#DejaVuSans-Bold-6f" transform="translate(1025.048828 0)"/>
     <use xlink:href="#DejaVuSans-Bold-6e" transform="translate(1093.75 0)"/>
     <use xlink:href="#DejaVuSans-Bold-20" transform="translate(1164.941406 0)"/>
     <use xlink:href="#DejaVuSans-Bold-46" transform="translate(1199.755859 0)"/>
     <use xlink:href="#DejaVuSans-Bold-72" transform="translate(1261.691406 0)"/>
     <use xlink:href="#DejaVuSans-Bold-61" transform="translate(1311.007812 0)"/>
     <use xlink:href="#DejaVuSans-Bold-6d" transform="translate(1378.488281 0)"/>
     <use xlink:href="#DejaVuSans-Bold-65" transform="translate(1482.6875 0)"/>
     <use xlink:href="#DejaVuSans-Bold-77" transform="translate(1550.509766 0)"/>
     <use xlink:href="#DejaVuSans-Bold-6f" transform="translate(1642.892578 0)"/>
     <use xlink:href="#DejaVuSans-Bold-72" transform="translate(1711.59375 0)"/>
     <use xlink:href="#DejaVuSans-Bold-6b" transform="translate(1760.910156 0)"/>
     <use xlink:href="#DejaVuSans-Bold-20" transform="translate(1827.414062 0)"/>
     <use xlink:href="#DejaVuSans-Bold-28" transform="translate(1862.228516 0)"/>
     <use xlink:href="#DejaVuSans-Bold-43" transform="translate(1907.931641 0)"/>
     <use xlink:href="#DejaVuSans-Bold-45" transform="translate(1981.320312 0)"/>
     <use xlink:href="#DejaVuSans-Bold-46" transform="translate(2049.630859 0)"/>
     <use xlink:href="#DejaVuSans-Bold-29" transform="translate(2117.941406 0)"/>
    </g>
   </g>
   <g id="text_4">
    <!-- WMF -->
    <g style="fill: #ffffff" transform="translate(32.740813 117.695188) scale(0.13 -0.13)">
     <defs>
      <path id="DejaVuSans-Bold-57" d="M 191 4666 
L 1344 4666 
L 2150 1275 
L 2950 4666 
L 4109 4666 
L 4909 1275 
L 5716 4666 
L 6859 4666 
L 5759 0 
L 4372 0 
L 3525 3547 
L 2688 0 
L 1300 0 
L 191 4666 
z
" transform="scale(0.015625)"/>
      <path id="DejaVuSans-Bold-4d" d="M 588 4666 
L 2119 4666 
L 3181 2169 
L 4250 4666 
L 5778 4666 
L 5778 0 
L 4641 0 
L 4641 3413 
L 3566 897 
L 2803 897 
L 1728 3413 
L 1728 0 
L 588 0 
L 588 4666 
z
" transform="scale(0.015625)"/>
     </defs>
     <use xlink:href="#DejaVuSans-Bold-57"/>
     <use xlink:href="#DejaVuSans-Bold-4d" transform="translate(110.302734 0)"/>
     <use xlink:href="#DejaVuSans-Bold-46" transform="translate(209.814453 0)"/>
    </g>
   </g>
   <g id="text_5">
    <!-- Working Memory -->
    <g style="fill: #ffffff" transform="translate(19.081633 126.56141) scale(0.075 -0.075)">
     <defs>
      <path id="DejaVuSans-57" d="M 213 4666 
L 850 4666 
L 1831 722 
L 2809 4666 
L 3519 4666 
L 4500 722 
L 5478 4666 
L 6119 4666 
L 4947 0 
L 4153 0 
L 3169 4050 
L 2175 0 
L 1381 0 
L 213 4666 
z
" transform="scale(0.015625)"/>
      <path id="DejaVuSans-6b" d="M 581 4863 
L 1159 4863 
L 1159 1991 
L 2875 3500 
L 3609 3500 
L 1753 1863 
L 3688 0 
L 2938 0 
L 1159 1709 
L 1159 0 
L 581 0 
L 581 4863 
z
" transform="scale(0.015625)"/>
      <path id="DejaVuSans-4d" d="M 628 4666 
L 1569 4666 
L 2759 1491 
L 3956 4666 
L 4897 4666 
L 4897 0 
L 4281 0 
L 4281 4097 
L 3078 897 
L 2444 897 
L 1241 4097 
L 1241 0 
L 628 0 
L 628 4666 
z
" transform="scale(0.015625)"/>
      <path id="DejaVuSans-6d" d="M 3328 2828 
Q 3544 3216 3844 3400 
Q 4144 3584 4550 3584 
Q 5097 3584 5394 3201 
Q 5691 2819 5691 2113 
L 5691 0 
L 5113 0 
L 5113 2094 
Q 5113 2597 4934 2840 
Q 4756 3084 4391 3084 
Q 3944 3084 3684 2787 
Q 3425 2491 3425 1978 
L 3425 0 
L 2847 0 
L 2847 2094 
Q 2847 2600 2669 2842 
Q 2491 3084 2119 3084 
Q 1678 3084 1418 2786 
Q 1159 2488 1159 1978 
L 1159 0 
L 581 0 
L 581 3500 
L 1159 3500 
L 1159 2956 
Q 1356 3278 1631 3431 
Q 1906 3584 2284 3584 
Q 2666 3584 2933 3390 
Q 3200 3197 3328 2828 
z
" transform="scale(0.015625)"/>
     </defs>
     <use xlink:href="#DejaVuSans-57"/>
     <use xlink:href="#DejaVuSans-6f" transform="translate(93.001953 0)"/>
     <use xlink:href="#DejaVuSans-72" transform="translate(154.183594 0)"/>
     <use xlink:href="#DejaVuSans-6b" transform="translate(195.296875 0)"/>
     <use xlink:href="#DejaVuSans-69" transform="translate(253.207031 0)"/>
     <use xlink:href="#DejaVuSans-6e" transform="translate(280.990234 0)"/>
     <use xlink:href="#DejaVuSans-67" transform="translate(344.369141 0)"/>
     <use xlink:href="#DejaVuSans-20" transform="translate(407.845703 0)"/>
     <use xlink:href="#DejaVuSans-4d" transform="translate(439.632812 0)"/>
     <use xlink:href="#DejaVuSans-65" transform="translate(525.912109 0)"/>
     <use xlink:href="#DejaVuSans-6d" transform="translate(587.435547 0)"/>
     <use xlink:href="#DejaVuSans-6f" transform="translate(684.847656 0)"/>
     <use xlink:href="#DejaVuSans-72" transform="translate(746.029297 0)"/>
     <use xlink:href="#DejaVuSans-79" transform="translate(787.142578 0)"/>
    </g>
    <!-- Fidelity -->
    <g style="fill: #ffffff" transform="translate(37.430852 135.529652) scale(0.075 -0.075)">
     <defs>
      <path id="DejaVuSans-46" d="M 628 4666 
L 3309 4666 
L 3309 4134 
L 1259 4134 
L 1259 2759 
L 3109 2759 
L 3109 2228 
L 1259 2228 
L 1259 0 
L 628 0 
L 628 4666 
z
" transform="scale(0.015625)"/>
     </defs>
     <use xlink:href="#DejaVuSans-46"/>
     <use xlink:href="#DejaVuSans-69" transform="translate(50.269531 0)"/>
     <use xlink:href="#DejaVuSans-64" transform="translate(78.052734 0)"/>
     <use xlink:href="#DejaVuSans-65" transform="translate(141.529297 0)"/>
     <use xlink:href="#DejaVuSans-6c" transform="translate(203.052734 0)"/>
     <use xlink:href="#DejaVuSans-69" transform="translate(230.835938 0)"/>
     <use xlink:href="#DejaVuSans-74" transform="translate(258.619141 0)"/>
     <use xlink:href="#DejaVuSans-79" transform="translate(297.828125 0)"/>
    </g>
   </g>
   <g id="text_6">
    <!-- Miller 1956 · Baddeley 1974 -->
    <g style="fill: #ffffff; opacity: 0.8" transform="translate(7.2 149.802813) scale(0.062 -0.062)">
     <defs>
      <path id="DejaVuSans-Oblique-4d" d="M 1081 4666 
L 2028 4666 
L 2572 1522 
L 4378 4666 
L 5350 4666 
L 4441 0 
L 3828 0 
L 4622 4091 
L 2791 897 
L 2175 897 
L 1581 4103 
L 788 0 
L 172 0 
L 1081 4666 
z
" transform="scale(0.015625)"/>
      <path id="DejaVuSans-Oblique-69" d="M 1172 4863 
L 1747 4863 
L 1606 4134 
L 1031 4134 
L 1172 4863 
z
M 909 3500 
L 1484 3500 
L 800 0 
L 225 0 
L 909 3500 
z
" transform="scale(0.015625)"/>
      <path id="DejaVuSans-Oblique-6c" d="M 1172 4863 
L 1747 4863 
L 800 0 
L 225 0 
L 1172 4863 
z
" transform="scale(0.015625)"/>
      <path id="DejaVuSans-Oblique-65" d="M 3078 2063 
Q 3088 2113 3092 2166 
Q 3097 2219 3097 2272 
Q 3097 2653 2873 2875 
Q 2650 3097 2266 3097 
Q 1838 3097 1509 2826 
Q 1181 2556 1013 2059 
L 3078 2063 
z
M 3578 1613 
L 903 1613 
Q 884 1494 878 1425 
Q 872 1356 872 1306 
Q 872 872 1139 634 
Q 1406 397 1894 397 
Q 2269 397 2603 481 
Q 2938 566 3225 728 
L 3116 159 
Q 2806 34 2476 -28 
Q 2147 -91 1806 -91 
Q 1078 -91 686 257 
Q 294 606 294 1247 
Q 294 1794 489 2264 
Q 684 2734 1063 3103 
Q 1306 3334 1642 3459 
Q 1978 3584 2356 3584 
Q 2950 3584 3301 3228 
Q 3653 2872 3653 2272 
Q 3653 2128 3634 1964 
Q 3616 1800 3578 1613 
z
" transform="scale(0.015625)"/>
      <path id="DejaVuSans-Oblique-72" d="M 2853 2969 
Q 2766 3016 2653 3041 
Q 2541 3066 2413 3066 
Q 1953 3066 1609 2717 
Q 1266 2369 1153 1784 
L 800 0 
L 225 0 
L 909 3500 
L 1484 3500 
L 1375 2956 
Q 1603 3259 1920 3421 
Q 2238 3584 2597 3584 
Q 2691 3584 2781 3573 
Q 2872 3563 2963 3538 
L 2853 2969 
z
" transform="scale(0.015625)"/>
      <path id="DejaVuSans-Oblique-20" transform="scale(0.015625)"/>
      <path id="DejaVuSans-Oblique-31" d="M 416 531 
L 1447 531 
L 2144 4122 
L 978 3897 
L 1088 4441 
L 2247 4666 
L 2881 4666 
L 2075 531 
L 3103 531 
L 3003 0 
L 313 0 
L 416 531 
z
" transform="scale(0.015625)"/>
      <path id="DejaVuSans-Oblique-39" d="M 281 103 
L 397 678 
Q 578 559 809 496 
Q 1041 434 1306 434 
Q 1953 434 2348 843 
Q 2744 1253 2938 2119 
Q 2706 1853 2401 1714 
Q 2097 1575 1747 1575 
Q 1178 1575 842 1904 
Q 506 2234 506 2791 
Q 506 3247 672 3639 
Q 838 4031 1159 4325 
Q 1378 4531 1665 4640 
Q 1953 4750 2278 4750 
Q 2925 4750 3300 4339 
Q 3675 3928 3675 3219 
Q 3675 2559 3501 1943 
Q 3328 1328 3022 878 
Q 2697 403 2240 156 
Q 1784 -91 1228 -91 
Q 988 -91 748 -42 
Q 509 6 281 103 
z
M 1131 2938 
Q 1131 2541 1337 2308 
Q 1544 2075 1894 2075 
Q 2378 2075 2706 2447 
Q 3034 2819 3034 3372 
Q 3034 3784 2831 4017 
Q 2628 4250 2272 4250 
Q 1788 4250 1459 3870 
Q 1131 3491 1131 2938 
z
" transform="scale(0.015625)"/>
      <path id="DejaVuSans-Oblique-35" d="M 3719 4666 
L 3622 4141 
L 1691 4141 
L 1466 2988 
Q 1609 3034 1757 3056 
Q 1906 3078 2059 3078 
Q 2706 3078 3081 2731 
Q 3456 2384 3456 1791 
Q 3456 1375 3264 994 
Q 3072 613 2719 325 
Q 2469 125 2108 17 
Q 1747 -91 1319 -91 
Q 1038 -91 744 -41 
Q 450 9 128 109 
L 244 697 
Q 531 556 820 486 
Q 1109 416 1403 416 
Q 2013 416 2411 781 
Q 2809 1147 2809 1697 
Q 2809 2103 2548 2328 
Q 2288 2553 1819 2553 
Q 1572 2553 1305 2495 
Q 1038 2438 756 2322 
L 1209 4666 
L 3719 4666 
z
" transform="scale(0.015625)"/>
      <path id="DejaVuSans-Oblique-36" d="M 2938 1728 
Q 2938 2125 2734 2354 
Q 2531 2584 2181 2584 
Q 1697 2584 1367 2211 
Q 1038 1838 1038 1288 
Q 1038 875 1239 642 
Q 1441 409 1797 409 
Q 2284 409 2611 792 
Q 2938 1175 2938 1728 
z
M 3788 4556 
L 3681 3981 
Q 3500 4100 3265 4162 
Q 3031 4225 2766 4225 
Q 2119 4225 1726 3819 
Q 1334 3413 1141 2547 
Q 1369 2813 1670 2948 
Q 1972 3084 2322 3084 
Q 2894 3084 3233 2754 
Q 3572 2425 3572 1869 
Q 3572 1413 3405 1020 
Q 3238 628 2919 331 
Q 2700 128 2409 18 
Q 2119 -91 1791 -91 
Q 1147 -91 775 318 
Q 403 728 403 1441 
Q 403 2103 573 2717 
Q 744 3331 1050 3781 
Q 1372 4256 1830 4503 
Q 2288 4750 2841 4750 
Q 3084 4750 3321 4701 
Q 3559 4653 3788 4556 
z
" transform="scale(0.015625)"/>
      <path id="DejaVuSans-Oblique-b7" d="M 884 2619 
L 1544 2619 
L 1388 1825 
L 728 1825 
L 884 2619 
z
" transform="scale(0.015625)"/>
      <path id="DejaVuSans-Oblique-42" d="M 1081 4666 
L 2694 4666 
Q 3350 4666 3675 4422 
Q 4000 4178 4000 3688 
Q 4000 3238 3720 2911 
Q 3441 2584 2988 2516 
Q 3375 2428 3569 2181 
Q 3763 1934 3763 1522 
Q 3763 819 3242 409 
Q 2722 0 1819 0 
L 172 0 
L 1081 4666 
z
M 1234 2228 
L 903 519 
L 1919 519 
Q 2491 519 2800 781 
Q 3109 1044 3109 1522 
Q 3109 1891 2904 2059 
Q 2700 2228 2247 2228 
L 1234 2228 
z
M 1606 4147 
L 1331 2741 
L 2272 2741 
Q 2775 2741 3058 2959 
Q 3341 3178 3341 3566 
Q 3341 3869 3150 4008 
Q 2959 4147 2541 4147 
L 1606 4147 
z
" transform="scale(0.015625)"/>
      <path id="DejaVuSans-Oblique-61" d="M 3438 1997 
L 3047 0 
L 2472 0 
L 2578 531 
Q 2325 219 2001 64 
Q 1678 -91 1281 -91 
Q 834 -91 548 182 
Q 263 456 263 884 
Q 263 1497 752 1853 
Q 1241 2209 2100 2209 
L 2900 2209 
L 2931 2363 
Q 2938 2388 2941 2417 
Q 2944 2447 2944 2509 
Q 2944 2788 2717 2942 
Q 2491 3097 2081 3097 
Q 1800 3097 1504 3025 
Q 1209 2953 897 2809 
L 997 3341 
Q 1322 3463 1633 3523 
Q 1944 3584 2234 3584 
Q 2853 3584 3176 3315 
Q 3500 3047 3500 2534 
Q 3500 2431 3484 2292 
Q 3469 2153 3438 1997 
z
M 2816 1759 
L 2241 1759 
Q 1534 1759 1195 1570 
Q 856 1381 856 984 
Q 856 709 1029 553 
Q 1203 397 1509 397 
Q 1978 397 2328 733 
Q 2678 1069 2791 1631 
L 2816 1759 
z
" transform="scale(0.015625)"/>
      <path id="DejaVuSans-Oblique-64" d="M 2675 525 
Q 2444 222 2128 65 
Q 1813 -91 1428 -91 
Q 903 -91 598 267 
Q 294 625 294 1247 
Q 294 1766 478 2236 
Q 663 2706 1013 3078 
Q 1244 3325 1534 3454 
Q 1825 3584 2144 3584 
Q 2481 3584 2739 3421 
Q 2997 3259 3138 2956 
L 3513 4863 
L 4091 4863 
L 3144 0 
L 2566 0 
L 2675 525 
z
M 891 1350 
Q 891 897 1095 644 
Q 1300 391 1663 391 
Q 1931 391 2161 520 
Q 2391 650 2566 903 
Q 2750 1166 2856 1509 
Q 2963 1853 2963 2188 
Q 2963 2622 2758 2865 
Q 2553 3109 2194 3109 
Q 1922 3109 1687 2981 
Q 1453 2853 1288 2613 
Q 1106 2353 998 2009 
Q 891 1666 891 1350 
z
" transform="scale(0.015625)"/>
      <path id="DejaVuSans-Oblique-79" d="M 1588 -325 
Q 1188 -997 936 -1164 
Q 684 -1331 294 -1331 
L -159 -1331 
L -63 -850 
L 269 -850 
Q 509 -850 678 -719 
Q 847 -588 1056 -206 
L 1234 128 
L 459 3500 
L 1069 3500 
L 1650 819 
L 3256 3500 
L 3859 3500 
L 1588 -325 
z
" transform="scale(0.015625)"/>
      <path id="DejaVuSans-Oblique-37" d="M 819 4666 
L 4013 4666 
L 3956 4397 
L 1288 0 
L 594 0 
L 3116 4134 
L 716 4134 
L 819 4666 
z
" transform="scale(0.015625)"/>
      <path id="DejaVuSans-Oblique-34" d="M 2753 4666 
L 3547 4666 
L 2950 1625 
L 3616 1625 
L 3513 1100 
L 2847 1100 
L 2638 0 
L 2009 0 
L 2222 1100 
L 116 1100 
L 238 1709 
L 2753 4666 
z
M 2809 4116 
L 728 1625 
L 2322 1625 
L 2809 4116 
z
" transform="scale(0.015625)"/>
     </defs>
     <use xlink:href="#DejaVuSans-Oblique-4d"/>
     <use xlink:href="#DejaVuSans-Oblique-69" transform="translate(86.279297 0)"/>
     <use xlink:href="#DejaVuSans-Oblique-6c" transform="translate(114.0625 0)"/>
     <use xlink:href="#DejaVuSans-Oblique-6c" transform="translate(141.845703 0)"/>
     <use xlink:href="#DejaVuSans-Oblique-65" transform="translate(169.628906 0)"/>
     <use xlink:href="#DejaVuSans-Oblique-72" transform="translate(231.152344 0)"/>
     <use xlink:href="#DejaVuSans-Oblique-20" transform="translate(272.265625 0)"/>
     <use xlink:href="#DejaVuSans-Oblique-31" transform="translate(304.052734 0)"/>
     <use xlink:href="#DejaVuSans-Oblique-39" transform="translate(367.675781 0)"/>
     <use xlink:href="#DejaVuSans-Oblique-35" transform="translate(431.298828 0)"/>
     <use xlink:href="#DejaVuSans-Oblique-36" transform="translate(494.921875 0)"/>
     <use xlink:href="#DejaVuSans-Oblique-20" transform="translate(558.544922 0)"/>
     <use xlink:href="#DejaVuSans-Oblique-b7" transform="translate(590.332031 0)"/>
     <use xlink:href="#DejaVuSans-Oblique-20" transform="translate(622.119141 0)"/>
     <use xlink:href="#DejaVuSans-Oblique-42" transform="translate(653.90625 0)"/>
     <use xlink:href="#DejaVuSans-Oblique-61" transform="translate(722.509766 0)"/>
     <use xlink:href="#DejaVuSans-Oblique-64" transform="translate(783.789062 0)"/>
     <use xlink:href="#DejaVuSans-Oblique-64" transform="translate(847.265625 0)"/>
     <use xlink:href="#DejaVuSans-Oblique-65" transform="translate(910.742188 0)"/>
     <use xlink:href="#DejaVuSans-Oblique-6c" transform="translate(972.265625 0)"/>
     <use xlink:href="#DejaVuSans-Oblique-65" transform="translate(1000.048828 0)"/>
     <use xlink:href="#DejaVuSans-Oblique-79" transform="translate(1061.572266 0)"/>
     <use xlink:href="#DejaVuSans-Oblique-20" transform="translate(1120.751953 0)"/>
     <use xlink:href="#DejaVuSans-Oblique-31" transform="translate(1152.539062 0)"/>
     <use xlink:href="#DejaVuSans-Oblique-39" transform="translate(1216.162109 0)"/>
     <use xlink:href="#DejaVuSans-Oblique-37" transform="translate(1279.785156 0)"/>
     <use xlink:href="#DejaVuSans-Oblique-34" transform="translate(1343.408203 0)"/>
    </g>
   </g>
   <g id="patch_24">
    <path d="M 76.860648 190.572 
L 102.198528 190.572 
Q 104.310018 190.572 104.310018 188.448 
L 104.310018 172.872 
Q 104.310018 170.748 102.198528 170.748 
L 76.860648 170.748 
Q 74.749158 170.748 74.749158 172.872 
L 74.749158 188.448 
Q 74.749158 190.572 76.860648 190.572 
z
" clip-path="url(#pb5e1074f8c)" style="fill: #2980b9"/>
   </g>
   <g id="text_7">
    <!-- WMF-AM -->
    <g style="fill: #2c3e50" transform="translate(20.169696 183.143438) scale(0.09 -0.09)">
     <defs>
      <path id="DejaVuSans-Bold-2d" d="M 347 2297 
L 2309 2297 
L 2309 1388 
L 347 1388 
L 347 2297 
z
" transform="scale(0.015625)"/>
      <path id="DejaVuSans-Bold-41" d="M 3419 850 
L 1538 850 
L 1241 0 
L 31 0 
L 1759 4666 
L 3194 4666 
L 4922 0 
L 3713 0 
L 3419 850 
z
M 1838 1716 
L 3116 1716 
L 2478 3572 
L 1838 1716 
z
" transform="scale(0.015625)"/>
     </defs>
     <use xlink:href="#DejaVuSans-Bold-57"/>
     <use xlink:href="#DejaVuSans-Bold-4d" transform="translate(110.302734 0)"/>
     <use xlink:href="#DejaVuSans-Bold-46" transform="translate(209.814453 0)"/>
     <use xlink:href="#DejaVuSans-Bold-2d" transform="translate(275 0)"/>
     <use xlink:href="#DejaVuSans-Bold-41" transform="translate(316.503906 0)"/>
     <use xlink:href="#DejaVuSans-Bold-4d" transform="translate(393.896484 0)"/>
    </g>
   </g>
   <g id="patch_25">
    <path d="M 76.860648 224.556 
L 102.198528 224.556 
Q 104.310018 224.556 104.310018 222.432 
L 104.310018 206.856 
Q 104.310018 204.732 102.198528 204.732 
L 76.860648 204.732 
Q 74.749158 204.732 74.749158 206.856 
L 74.749158 222.432 
Q 74.749158 224.556 76.860648 224.556 
z
" clip-path="url(#pb5e1074f8c)" style="fill: #bdc3c7"/>
   </g>
   <g id="text_8">
    <!-- WMF-IM -->
    <g style="fill: #2c3e50" transform="translate(21.978134 217.127438) scale(0.09 -0.09)">
     <defs>
      <path id="DejaVuSans-Bold-49" d="M 588 4666 
L 1791 4666 
L 1791 0 
L 588 0 
L 588 4666 
z
" transform="scale(0.015625)"/>
     </defs>
     <use xlink:href="#DejaVuSans-Bold-57"/>
     <use xlink:href="#DejaVuSans-Bold-4d" transform="translate(110.302734 0)"/>
     <use xlink:href="#DejaVuSans-Bold-46" transform="translate(209.814453 0)"/>
     <use xlink:href="#DejaVuSans-Bold-2d" transform="translate(275 0)"/>
     <use xlink:href="#DejaVuSans-Bold-49" transform="translate(316.503906 0)"/>
     <use xlink:href="#DejaVuSans-Bold-4d" transform="translate(353.710938 0)"/>
    </g>
   </g>
   <g id="patch_26">
    <path d="M 76.860648 258.54 
L 102.198528 258.54 
Q 104.310018 258.54 104.310018 256.416 
L 104.310018 240.84 
Q 104.310018 238.716 102.198528 238.716 
L 76.860648 238.716 
Q 74.749158 238.716 74.749158 240.84 
L 74.749158 256.416 
Q 74.749158 258.54 76.860648 258.54 
z
" clip-path="url(#pb5e1074f8c)" style="fill: #bdc3c7"/>
   </g>
   <g id="text_9">
    <!-- WMF-IR -->
    <g style="fill: #2c3e50" transform="translate(22.991337 251.111437) scale(0.09 -0.09)">
     <defs>
      <path id="DejaVuSans-Bold-52" d="M 2297 2597 
Q 2675 2597 2839 2737 
Q 3003 2878 3003 3200 
Q 3003 3519 2839 3656 
Q 2675 3794 2297 3794 
L 1791 3794 
L 1791 2597 
L 2297 2597 
z
M 1791 1766 
L 1791 0 
L 588 0 
L 588 4666 
L 2425 4666 
Q 3347 4666 3776 4356 
Q 4206 4047 4206 3378 
Q 4206 2916 3982 2619 
Q 3759 2322 3309 2181 
Q 3556 2125 3751 1926 
Q 3947 1728 4147 1325 
L 4800 0 
L 3519 0 
L 2950 1159 
Q 2778 1509 2601 1637 
Q 2425 1766 2131 1766 
L 1791 1766 
z
" transform="scale(0.015625)"/>
     </defs>
     <use xlink:href="#DejaVuSans-Bold-57"/>
     <use xlink:href="#DejaVuSans-Bold-4d" transform="translate(110.302734 0)"/>
     <use xlink:href="#DejaVuSans-Bold-46" transform="translate(209.814453 0)"/>
     <use xlink:href="#DejaVuSans-Bold-2d" transform="translate(275 0)"/>
     <use xlink:href="#DejaVuSans-Bold-49" transform="translate(316.503906 0)"/>
     <use xlink:href="#DejaVuSans-Bold-52" transform="translate(353.710938 0)"/>
    </g>
   </g>
   <g id="text_10">
    <!-- MCC -->
    <g style="fill: #ffffff" transform="translate(196.690541 117.695188) scale(0.13 -0.13)">
     <use xlink:href="#DejaVuSans-Bold-4d"/>
     <use xlink:href="#DejaVuSans-Bold-43" transform="translate(99.511719 0)"/>
     <use xlink:href="#DejaVuSans-Bold-43" transform="translate(172.900391 0)"/>
    </g>
   </g>
   <g id="text_11">
    <!-- Metacognitive -->
    <g style="fill: #ffffff" transform="translate(186.194369 126.56141) scale(0.075 -0.075)">
     <defs>
      <path id="DejaVuSans-61" d="M 2194 1759 
Q 1497 1759 1228 1600 
Q 959 1441 959 1056 
Q 959 750 1161 570 
Q 1363 391 1709 391 
Q 2188 391 2477 730 
Q 2766 1069 2766 1631 
L 2766 1759 
L 2194 1759 
z
M 3341 1997 
L 3341 0 
L 2766 0 
L 2766 531 
Q 2569 213 2275 61 
Q 1981 -91 1556 -91 
Q 1019 -91 701 211 
Q 384 513 384 1019 
Q 384 1609 779 1909 
Q 1175 2209 1959 2209 
L 2766 2209 
L 2766 2266 
Q 2766 2663 2505 2880 
Q 2244 3097 1772 3097 
Q 1472 3097 1187 3025 
Q 903 2953 641 2809 
L 641 3341 
Q 956 3463 1253 3523 
Q 1550 3584 1831 3584 
Q 2591 3584 2966 3190 
Q 3341 2797 3341 1997 
z
" transform="scale(0.015625)"/>
      <path id="DejaVuSans-76" d="M 191 3500 
L 800 3500 
L 1894 563 
L 2988 3500 
L 3597 3500 
L 2284 0 
L 1503 0 
L 191 3500 
z
" transform="scale(0.015625)"/>
     </defs>
     <use xlink:href="#DejaVuSans-4d"/>
     <use xlink:href="#DejaVuSans-65" transform="translate(86.279297 0)"/>
     <use xlink:href="#DejaVuSans-74" transform="translate(147.802734 0)"/>
     <use xlink:href="#DejaVuSans-61" transform="translate(187.011719 0)"/>
     <use xlink:href="#DejaVuSans-63" transform="translate(248.291016 0)"/>
     <use xlink:href="#DejaVuSans-6f" transform="translate(303.271484 0)"/>
     <use xlink:href="#DejaVuSans-67" transform="translate(364.453125 0)"/>
     <use xlink:href="#DejaVuSans-6e" transform="translate(427.929688 0)"/>
     <use xlink:href="#DejaVuSans-69" transform="translate(491.308594 0)"/>
     <use xlink:href="#DejaVuSans-74" transform="translate(519.091797 0)"/>
     <use xlink:href="#DejaVuSans-69" transform="translate(558.300781 0)"/>
     <use xlink:href="#DejaVuSans-76" transform="translate(586.083984 0)"/>
     <use xlink:href="#DejaVuSans-65" transform="translate(645.263672 0)"/>
    </g>
    <!-- Calibration -->
    <g style="fill: #ffffff" transform="translate(192.296322 135.529652) scale(0.075 -0.075)">
     <defs>
      <path id="DejaVuSans-43" d="M 4122 4306 
L 4122 3641 
Q 3803 3938 3442 4084 
Q 3081 4231 2675 4231 
Q 1875 4231 1450 3742 
Q 1025 3253 1025 2328 
Q 1025 1406 1450 917 
Q 1875 428 2675 428 
Q 3081 428 3442 575 
Q 3803 722 4122 1019 
L 4122 359 
Q 3791 134 3420 21 
Q 3050 -91 2638 -91 
Q 1578 -91 968 557 
Q 359 1206 359 2328 
Q 359 3453 968 4101 
Q 1578 4750 2638 4750 
Q 3056 4750 3426 4639 
Q 3797 4528 4122 4306 
z
" transform="scale(0.015625)"/>
      <path id="DejaVuSans-62" d="M 3116 1747 
Q 3116 2381 2855 2742 
Q 2594 3103 2138 3103 
Q 1681 3103 1420 2742 
Q 1159 2381 1159 1747 
Q 1159 1113 1420 752 
Q 1681 391 2138 391 
Q 2594 391 2855 752 
Q 3116 1113 3116 1747 
z
M 1159 2969 
Q 1341 3281 1617 3432 
Q 1894 3584 2278 3584 
Q 2916 3584 3314 3078 
Q 3713 2572 3713 1747 
Q 3713 922 3314 415 
Q 2916 -91 2278 -91 
Q 1894 -91 1617 61 
Q 1341 213 1159 525 
L 1159 0 
L 581 0 
L 581 4863 
L 1159 4863 
L 1159 2969 
z
" transform="scale(0.015625)"/>
     </defs>
     <use xlink:href="#DejaVuSans-43"/>
     <use xlink:href="#DejaVuSans-61" transform="translate(69.824219 0)"/>
     <use xlink:href="#DejaVuSans-6c" transform="translate(131.103516 0)"/>
     <use xlink:href="#DejaVuSans-69" transform="translate(158.886719 0)"/>
     <use xlink:href="#DejaVuSans-62" transform="translate(186.669922 0)"/>
     <use xlink:href="#DejaVuSans-72" transform="translate(250.146484 0)"/>
     <use xlink:href="#DejaVuSans-61" transform="translate(291.259766 0)"/>
     <use xlink:href="#DejaVuSans-74" transform="translate(352.539062 0)"/>
     <use xlink:href="#DejaVuSans-69" transform="translate(391.748047 0)"/>
     <use xlink:href="#DejaVuSans-6f" transform="translate(419.53125 0)"/>
     <use xlink:href="#DejaVuSans-6e" transform="translate(480.712891 0)"/>
    </g>
   </g>
   <g id="text_12">
    <!-- Nelson &amp; Narens 1990 -->
    <g style="fill: #ffffff; opacity: 0.8" transform="translate(177.89265 149.802813) scale(0.062 -0.062)">
     <defs>
      <path id="DejaVuSans-Oblique-4e" d="M 1081 4666 
L 1931 4666 
L 3219 666 
L 4000 4666 
L 4616 4666 
L 3706 0 
L 2853 0 
L 1569 4025 
L 788 0 
L 172 0 
L 1081 4666 
z
" transform="scale(0.015625)"/>
      <path id="DejaVuSans-Oblique-73" d="M 3200 3397 
L 3091 2853 
Q 2863 2978 2609 3040 
Q 2356 3103 2088 3103 
Q 1634 3103 1373 2948 
Q 1113 2794 1113 2528 
Q 1113 2219 1719 2053 
Q 1766 2041 1788 2034 
L 1972 1978 
Q 2547 1819 2739 1644 
Q 2931 1469 2931 1166 
Q 2931 609 2489 259 
Q 2047 -91 1331 -91 
Q 1053 -91 747 -37 
Q 441 16 72 128 
L 184 722 
Q 500 559 806 475 
Q 1113 391 1394 391 
Q 1816 391 2080 572 
Q 2344 753 2344 1031 
Q 2344 1331 1650 1516 
L 1591 1531 
L 1394 1581 
Q 956 1697 753 1886 
Q 550 2075 550 2369 
Q 550 2928 970 3256 
Q 1391 3584 2113 3584 
Q 2397 3584 2667 3537 
Q 2938 3491 3200 3397 
z
" transform="scale(0.015625)"/>
      <path id="DejaVuSans-Oblique-6f" d="M 1625 -91 
Q 1009 -91 651 289 
Q 294 669 294 1325 
Q 294 1706 417 2101 
Q 541 2497 738 2766 
Q 1047 3184 1428 3384 
Q 1809 3584 2291 3584 
Q 2888 3584 3255 3212 
Q 3622 2841 3622 2241 
Q 3622 1825 3500 1412 
Q 3378 1000 3181 728 
Q 2875 309 2494 109 
Q 2113 -91 1625 -91 
z
M 891 1344 
Q 891 869 1089 633 
Q 1288 397 1691 397 
Q 2269 397 2648 901 
Q 3028 1406 3028 2181 
Q 3028 2634 2825 2865 
Q 2622 3097 2228 3097 
Q 1903 3097 1650 2945 
Q 1397 2794 1197 2484 
Q 1050 2253 970 1956 
Q 891 1659 891 1344 
z
" transform="scale(0.015625)"/>
      <path id="DejaVuSans-Oblique-6e" d="M 3566 2113 
L 3156 0 
L 2578 0 
L 2988 2091 
Q 3016 2238 3031 2350 
Q 3047 2463 3047 2528 
Q 3047 2791 2881 2937 
Q 2716 3084 2419 3084 
Q 1956 3084 1622 2776 
Q 1288 2469 1184 1941 
L 800 0 
L 225 0 
L 903 3500 
L 1478 3500 
L 1363 2950 
Q 1603 3253 1940 3418 
Q 2278 3584 2650 3584 
Q 3113 3584 3367 3334 
Q 3622 3084 3622 2631 
Q 3622 2519 3608 2391 
Q 3594 2263 3566 2113 
z
" transform="scale(0.015625)"/>
      <path id="DejaVuSans-Oblique-26" d="M 3022 813 
L 1691 2509 
Q 1313 2234 1117 1925 
Q 922 1616 922 1294 
Q 922 897 1189 656 
Q 1456 416 1900 416 
Q 2194 416 2480 517 
Q 2766 619 3022 813 
z
M 4709 2503 
Q 4569 2006 4339 1593 
Q 4109 1181 3788 844 
L 4441 0 
L 3653 0 
L 3322 434 
Q 2991 175 2609 42 
Q 2228 -91 1813 -91 
Q 1122 -91 711 250 
Q 300 591 300 1153 
Q 300 1634 589 2062 
Q 878 2491 1447 2853 
Q 1350 2997 1304 3145 
Q 1259 3294 1259 3463 
Q 1259 3675 1331 3865 
Q 1403 4056 1538 4213 
Q 1753 4469 2078 4609 
Q 2403 4750 2778 4750 
Q 3022 4750 3269 4694 
Q 3516 4638 3769 4525 
L 3659 3956 
Q 3425 4103 3192 4179 
Q 2959 4256 2741 4256 
Q 2353 4256 2111 4054 
Q 1869 3853 1869 3541 
Q 1869 3403 1928 3268 
Q 1988 3134 2203 2859 
L 3475 1234 
Q 3709 1481 3875 1801 
Q 4041 2122 4128 2503 
L 4709 2503 
z
" transform="scale(0.015625)"/>
      <path id="DejaVuSans-Oblique-30" d="M 2444 4750 
Q 3078 4750 3414 4328 
Q 3750 3906 3750 3116 
Q 3750 2516 3592 1923 
Q 3434 1331 3150 863 
Q 2859 394 2467 151 
Q 2075 -91 1600 -91 
Q 988 -91 653 334 
Q 319 759 319 1544 
Q 319 2138 480 2733 
Q 641 3328 928 3794 
Q 1216 4263 1602 4506 
Q 1988 4750 2444 4750 
z
M 2406 4250 
Q 2169 4250 1955 4123 
Q 1741 3997 1569 3750 
Q 1281 3338 1111 2720 
Q 941 2103 941 1453 
Q 941 938 1123 673 
Q 1306 409 1663 409 
Q 1913 409 2125 536 
Q 2338 663 2509 909 
Q 2794 1319 2961 1936 
Q 3128 2553 3128 3206 
Q 3128 3722 2945 3986 
Q 2763 4250 2406 4250 
z
" transform="scale(0.015625)"/>
     </defs>
     <use xlink:href="#DejaVuSans-Oblique-4e"/>
     <use xlink:href="#DejaVuSans-Oblique-65" transform="translate(74.804688 0)"/>
     <use xlink:href="#DejaVuSans-Oblique-6c" transform="translate(136.328125 0)"/>
     <use xlink:href="#DejaVuSans-Oblique-73" transform="translate(164.111328 0)"/>
     <use xlink:href="#DejaVuSans-Oblique-6f" transform="translate(216.210938 0)"/>
     <use xlink:href="#DejaVuSans-Oblique-6e" transform="translate(277.392578 0)"/>
     <use xlink:href="#DejaVuSans-Oblique-20" transform="translate(340.771484 0)"/>
     <use xlink:href="#DejaVuSans-Oblique-26" transform="translate(372.558594 0)"/>
     <use xlink:href="#DejaVuSans-Oblique-20" transform="translate(450.537109 0)"/>
     <use xlink:href="#DejaVuSans-Oblique-4e" transform="translate(482.324219 0)"/>
     <use xlink:href="#DejaVuSans-Oblique-61" transform="translate(557.128906 0)"/>
     <use xlink:href="#DejaVuSans-Oblique-72" transform="translate(618.408203 0)"/>
     <use xlink:href="#DejaVuSans-Oblique-65" transform="translate(659.521484 0)"/>
     <use xlink:href="#DejaVuSans-Oblique-6e" transform="translate(721.044922 0)"/>
     <use xlink:href="#DejaVuSans-Oblique-73" transform="translate(784.423828 0)"/>
     <use xlink:href="#DejaVuSans-Oblique-20" transform="translate(836.523438 0)"/>
     <use xlink:href="#DejaVuSans-Oblique-31" transform="translate(868.310547 0)"/>
     <use xlink:href="#DejaVuSans-Oblique-39" transform="translate(931.933594 0)"/>
     <use xlink:href="#DejaVuSans-Oblique-39" transform="translate(995.556641 0)"/>
     <use xlink:href="#DejaVuSans-Oblique-30" transform="translate(1059.179688 0)"/>
    </g>
   </g>
   <g id="patch_27">
    <path d="M 238.741548 190.572 
L 264.079428 190.572 
Q 266.190918 190.572 266.190918 188.448 
L 266.190918 172.872 
Q 266.190918 170.748 264.079428 170.748 
L 238.741548 170.748 
Q 236.630058 170.748 236.630058 172.872 
L 236.630058 188.448 
Q 236.630058 190.572 238.741548 190.572 
z
" clip-path="url(#pb5e1074f8c)" style="fill: #16a085"/>
   </g>
   <g id="text_13">
    <!-- MCC-MA -->
    <g style="fill: #2c3e50" transform="translate(183.240987 183.143438) scale(0.09 -0.09)">
     <use xlink:href="#DejaVuSans-Bold-4d"/>
     <use xlink:href="#DejaVuSans-Bold-43" transform="translate(99.511719 0)"/>
     <use xlink:href="#DejaVuSans-Bold-43" transform="translate(172.900391 0)"/>
     <use xlink:href="#DejaVuSans-Bold-2d" transform="translate(248.539062 0)"/>
     <use xlink:href="#DejaVuSans-Bold-4d" transform="translate(290.042969 0)"/>
     <use xlink:href="#DejaVuSans-Bold-41" transform="translate(389.554688 0)"/>
    </g>
   </g>
   <g id="patch_28">
    <path d="M 238.741548 224.556 
L 264.079428 224.556 
Q 266.190918 224.556 266.190918 222.432 
L 266.190918 206.856 
Q 266.190918 204.732 264.079428 204.732 
L 238.741548 204.732 
Q 236.630058 204.732 236.630058 206.856 
L 236.630058 222.432 
Q 236.630058 224.556 238.741548 224.556 
z
" clip-path="url(#pb5e1074f8c)" style="fill: #bdc3c7"/>
   </g>
   <g id="text_14">
    <!-- MCC-CE -->
    <g style="fill: #2c3e50" transform="translate(184.825128 217.127438) scale(0.09 -0.09)">
     <use xlink:href="#DejaVuSans-Bold-4d"/>
     <use xlink:href="#DejaVuSans-Bold-43" transform="translate(99.511719 0)"/>
     <use xlink:href="#DejaVuSans-Bold-43" transform="translate(172.900391 0)"/>
     <use xlink:href="#DejaVuSans-Bold-2d" transform="translate(248.539062 0)"/>
     <use xlink:href="#DejaVuSans-Bold-43" transform="translate(290.042969 0)"/>
     <use xlink:href="#DejaVuSans-Bold-45" transform="translate(363.431641 0)"/>
    </g>
   </g>
   <g id="text_15">
    <!-- EMC -->
    <g style="fill: #ffffff" transform="translate(390.573869 117.695188) scale(0.13 -0.13)">
     <use xlink:href="#DejaVuSans-Bold-45"/>
     <use xlink:href="#DejaVuSans-Bold-4d" transform="translate(68.310547 0)"/>
     <use xlink:href="#DejaVuSans-Bold-43" transform="translate(167.822266 0)"/>
    </g>
   </g>
   <g id="text_16">
    <!-- Episodic Memory -->
    <g style="fill: #ffffff" transform="translate(374.285509 126.56141) scale(0.075 -0.075)">
     <defs>
      <path id="DejaVuSans-45" d="M 628 4666 
L 3578 4666 
L 3578 4134 
L 1259 4134 
L 1259 2753 
L 3481 2753 
L 3481 2222 
L 1259 2222 
L 1259 531 
L 3634 531 
L 3634 0 
L 628 0 
L 628 4666 
z
" transform="scale(0.015625)"/>
     </defs>
     <use xlink:href="#DejaVuSans-45"/>
     <use xlink:href="#DejaVuSans-70" transform="translate(63.183594 0)"/>
     <use xlink:href="#DejaVuSans-69" transform="translate(126.660156 0)"/>
     <use xlink:href="#DejaVuSans-73" transform="translate(154.443359 0)"/>
     <use xlink:href="#DejaVuSans-6f" transform="translate(206.542969 0)"/>
     <use xlink:href="#DejaVuSans-64" transform="translate(267.724609 0)"/>
     <use xlink:href="#DejaVuSans-69" transform="translate(331.201172 0)"/>
     <use xlink:href="#DejaVuSans-63" transform="translate(358.984375 0)"/>
     <use xlink:href="#DejaVuSans-20" transform="translate(413.964844 0)"/>
     <use xlink:href="#DejaVuSans-4d" transform="translate(445.751953 0)"/>
     <use xlink:href="#DejaVuSans-65" transform="translate(532.03125 0)"/>
     <use xlink:href="#DejaVuSans-6d" transform="translate(593.554688 0)"/>
     <use xlink:href="#DejaVuSans-6f" transform="translate(690.966797 0)"/>
     <use xlink:href="#DejaVuSans-72" transform="translate(752.148438 0)"/>
     <use xlink:href="#DejaVuSans-79" transform="translate(793.261719 0)"/>
    </g>
    <!-- Coherence -->
    <g style="fill: #ffffff" transform="translate(386.14547 135.529652) scale(0.075 -0.075)">
     <defs>
      <path id="DejaVuSans-68" d="M 3513 2113 
L 3513 0 
L 2938 0 
L 2938 2094 
Q 2938 2591 2744 2837 
Q 2550 3084 2163 3084 
Q 1697 3084 1428 2787 
Q 1159 2491 1159 1978 
L 1159 0 
L 581 0 
L 581 4863 
L 1159 4863 
L 1159 2956 
Q 1366 3272 1645 3428 
Q 1925 3584 2291 3584 
Q 2894 3584 3203 3211 
Q 3513 2838 3513 2113 
z
" transform="scale(0.015625)"/>
     </defs>
     <use xlink:href="#DejaVuSans-43"/>
     <use xlink:href="#DejaVuSans-6f" transform="translate(69.824219 0)"/>
     <use xlink:href="#DejaVuSans-68" transform="translate(131.005859 0)"/>
     <use xlink:href="#DejaVuSans-65" transform="translate(194.384766 0)"/>
     <use xlink:href="#DejaVuSans-72" transform="translate(255.908203 0)"/>
     <use xlink:href="#DejaVuSans-65" transform="translate(294.771484 0)"/>
     <use xlink:href="#DejaVuSans-6e" transform="translate(356.294922 0)"/>
     <use xlink:href="#DejaVuSans-63" transform="translate(419.673828 0)"/>
     <use xlink:href="#DejaVuSans-65" transform="translate(474.654297 0)"/>
    </g>
   </g>
   <g id="text_17">
    <!-- Tulving 1972 · Johnson 1993 -->
    <g style="fill: #ffffff; opacity: 0.8" transform="translate(362.29315 149.802813) scale(0.062 -0.062)">
     <defs>
      <path id="DejaVuSans-Oblique-54" d="M 378 4666 
L 4325 4666 
L 4225 4134 
L 2559 4134 
L 1759 0 
L 1125 0 
L 1925 4134 
L 275 4134 
L 378 4666 
z
" transform="scale(0.015625)"/>
      <path id="DejaVuSans-Oblique-75" d="M 428 1388 
L 838 3500 
L 1416 3500 
L 1006 1409 
Q 975 1256 961 1147 
Q 947 1038 947 966 
Q 947 700 1109 554 
Q 1272 409 1569 409 
Q 2031 409 2368 721 
Q 2706 1034 2809 1563 
L 3194 3500 
L 3769 3500 
L 3091 0 
L 2516 0 
L 2631 550 
Q 2388 244 2052 76 
Q 1716 -91 1338 -91 
Q 878 -91 622 161 
Q 366 413 366 863 
Q 366 956 381 1097 
Q 397 1238 428 1388 
z
" transform="scale(0.015625)"/>
      <path id="DejaVuSans-Oblique-76" d="M 459 3500 
L 1069 3500 
L 1581 525 
L 3256 3500 
L 3866 3500 
L 1875 0 
L 1100 0 
L 459 3500 
z
" transform="scale(0.015625)"/>
      <path id="DejaVuSans-Oblique-67" d="M 3816 3500 
L 3219 434 
Q 3047 -456 2561 -893 
Q 2075 -1331 1253 -1331 
Q 950 -1331 690 -1286 
Q 431 -1241 206 -1147 
L 313 -588 
Q 525 -725 762 -790 
Q 1000 -856 1269 -856 
Q 1816 -856 2167 -557 
Q 2519 -259 2631 300 
L 2681 563 
Q 2441 288 2122 144 
Q 1803 0 1434 0 
Q 903 0 598 351 
Q 294 703 294 1319 
Q 294 1803 478 2267 
Q 663 2731 997 3091 
Q 1219 3328 1514 3456 
Q 1809 3584 2131 3584 
Q 2484 3584 2746 3420 
Q 3009 3256 3138 2956 
L 3238 3500 
L 3816 3500 
z
M 2950 2216 
Q 2950 2641 2750 2872 
Q 2550 3103 2181 3103 
Q 1953 3103 1747 3012 
Q 1541 2922 1394 2759 
Q 1156 2491 1023 2127 
Q 891 1763 891 1375 
Q 891 944 1092 712 
Q 1294 481 1672 481 
Q 2219 481 2584 976 
Q 2950 1472 2950 2216 
z
" transform="scale(0.015625)"/>
      <path id="DejaVuSans-Oblique-32" d="M 2950 2253 
L 934 525 
L 3163 525 
L 3053 0 
L 25 0 
L 128 531 
L 2234 2338 
Q 2656 2703 2832 2979 
Q 3009 3256 3009 3547 
Q 3009 3850 2796 4040 
Q 2584 4231 2241 4231 
Q 1944 4231 1581 4125 
Q 1219 4019 806 3816 
L 922 4441 
Q 1309 4594 1662 4672 
Q 2016 4750 2316 4750 
Q 2928 4750 3301 4425 
Q 3675 4100 3675 3572 
Q 3675 3216 3497 2892 
Q 3319 2569 2950 2253 
z
" transform="scale(0.015625)"/>
      <path id="DejaVuSans-Oblique-4a" d="M 1069 4666 
L 1703 4666 
L 856 325 
Q 691 -522 298 -901 
Q -94 -1281 -800 -1281 
L -1050 -1281 
L -947 -750 
L -750 -750 
Q -328 -750 -109 -509 
Q 109 -269 225 325 
L 1069 4666 
z
" transform="scale(0.015625)"/>
      <path id="DejaVuSans-Oblique-68" d="M 3566 2113 
L 3156 0 
L 2578 0 
L 2988 2091 
Q 3016 2238 3031 2350 
Q 3047 2463 3047 2528 
Q 3047 2791 2881 2937 
Q 2716 3084 2419 3084 
Q 1956 3084 1617 2771 
Q 1278 2459 1178 1941 
L 800 0 
L 225 0 
L 1172 4863 
L 1747 4863 
L 1375 2950 
Q 1594 3244 1934 3414 
Q 2275 3584 2650 3584 
Q 3113 3584 3367 3334 
Q 3622 3084 3622 2631 
Q 3622 2519 3608 2391 
Q 3594 2263 3566 2113 
z
" transform="scale(0.015625)"/>
      <path id="DejaVuSans-Oblique-33" d="M 1013 4550 
Q 1356 4650 1679 4700 
Q 2003 4750 2316 4750 
Q 2934 4750 3296 4475 
Q 3659 4200 3659 3738 
Q 3659 3284 3373 2959 
Q 3088 2634 2584 2516 
Q 2978 2403 3162 2165 
Q 3347 1928 3347 1538 
Q 3347 1163 3167 834 
Q 2988 506 2650 269 
Q 2394 88 2037 -1 
Q 1681 -91 1216 -91 
Q 922 -91 622 -33 
Q 322 25 13 141 
L 128 738 
Q 422 575 720 495 
Q 1019 416 1331 416 
Q 1947 416 2330 733 
Q 2713 1050 2713 1556 
Q 2713 1881 2469 2057 
Q 2225 2234 1772 2234 
L 1228 2234 
L 1325 2747 
L 1900 2747 
Q 2419 2747 2717 2984 
Q 3016 3222 3016 3628 
Q 3016 3922 2797 4083 
Q 2578 4244 2181 4244 
Q 1881 4244 1567 4180 
Q 1253 4116 916 3988 
L 1013 4550 
z
" transform="scale(0.015625)"/>
     </defs>
     <use xlink:href="#DejaVuSans-Oblique-54"/>
     <use xlink:href="#DejaVuSans-Oblique-75" transform="translate(51.083984 0)"/>
     <use xlink:href="#DejaVuSans-Oblique-6c" transform="translate(114.462891 0)"/>
     <use xlink:href="#DejaVuSans-Oblique-76" transform="translate(142.246094 0)"/>
     <use xlink:href="#DejaVuSans-Oblique-69" transform="translate(201.425781 0)"/>
     <use xlink:href="#DejaVuSans-Oblique-6e" transform="translate(229.208984 0)"/>
     <use xlink:href="#DejaVuSans-Oblique-67" transform="translate(292.587891 0)"/>
     <use xlink:href="#DejaVuSans-Oblique-20" transform="translate(356.064453 0)"/>
     <use xlink:href="#DejaVuSans-Oblique-31" transform="translate(387.851562 0)"/>
     <use xlink:href="#DejaVuSans-Oblique-39" transform="translate(451.474609 0)"/>
     <use xlink:href="#DejaVuSans-Oblique-37" transform="translate(515.097656 0)"/>
     <use xlink:href="#DejaVuSans-Oblique-32" transform="translate(578.720703 0)"/>
     <use xlink:href="#DejaVuSans-Oblique-20" transform="translate(642.34375 0)"/>
     <use xlink:href="#DejaVuSans-Oblique-b7" transform="translate(674.130859 0)"/>
     <use xlink:href="#DejaVuSans-Oblique-20" transform="translate(705.917969 0)"/>
     <use xlink:href="#DejaVuSans-Oblique-4a" transform="translate(737.705078 0)"/>
     <use xlink:href="#DejaVuSans-Oblique-6f" transform="translate(767.197266 0)"/>
     <use xlink:href="#DejaVuSans-Oblique-68" transform="translate(828.378906 0)"/>
     <use xlink:href="#DejaVuSans-Oblique-6e" transform="translate(891.757812 0)"/>
     <use xlink:href="#DejaVuSans-Oblique-73" transform="translate(955.136719 0)"/>
     <use xlink:href="#DejaVuSans-Oblique-6f" transform="translate(1007.236328 0)"/>
     <use xlink:href="#DejaVuSans-Oblique-6e" transform="translate(1068.417969 0)"/>
     <use xlink:href="#DejaVuSans-Oblique-20" transform="translate(1131.796875 0)"/>
     <use xlink:href="#DejaVuSans-Oblique-31" transform="translate(1163.583984 0)"/>
     <use xlink:href="#DejaVuSans-Oblique-39" transform="translate(1227.207031 0)"/>
     <use xlink:href="#DejaVuSans-Oblique-39" transform="translate(1290.830078 0)"/>
     <use xlink:href="#DejaVuSans-Oblique-33" transform="translate(1354.453125 0)"/>
    </g>
   </g>
   <g id="patch_29">
    <path d="M 432.294798 190.572 
L 457.632678 190.572 
Q 459.744168 190.572 459.744168 188.448 
L 459.744168 172.872 
Q 459.744168 170.748 457.632678 170.748 
L 432.294798 170.748 
Q 430.183308 170.748 430.183308 172.872 
L 430.183308 188.448 
Q 430.183308 190.572 432.294798 190.572 
z
" clip-path="url(#pb5e1074f8c)" style="fill: #8e44ad"/>
   </g>
   <g id="text_18">
    <!-- EMC-TO -->
    <g style="fill: #2c3e50" transform="translate(378.751737 183.143438) scale(0.09 -0.09)">
     <defs>
      <path id="DejaVuSans-Bold-54" d="M 31 4666 
L 4331 4666 
L 4331 3756 
L 2784 3756 
L 2784 0 
L 1581 0 
L 1581 3756 
L 31 3756 
L 31 4666 
z
" transform="scale(0.015625)"/>
      <path id="DejaVuSans-Bold-4f" d="M 2719 3878 
Q 2169 3878 1866 3472 
Q 1563 3066 1563 2328 
Q 1563 1594 1866 1187 
Q 2169 781 2719 781 
Q 3272 781 3575 1187 
Q 3878 1594 3878 2328 
Q 3878 3066 3575 3472 
Q 3272 3878 2719 3878 
z
M 2719 4750 
Q 3844 4750 4481 4106 
Q 5119 3463 5119 2328 
Q 5119 1197 4481 553 
Q 3844 -91 2719 -91 
Q 1597 -91 958 553 
Q 319 1197 319 2328 
Q 319 3463 958 4106 
Q 1597 4750 2719 4750 
z
" transform="scale(0.015625)"/>
     </defs>
     <use xlink:href="#DejaVuSans-Bold-45"/>
     <use xlink:href="#DejaVuSans-Bold-4d" transform="translate(68.310547 0)"/>
     <use xlink:href="#DejaVuSans-Bold-43" transform="translate(167.822266 0)"/>
     <use xlink:href="#DejaVuSans-Bold-2d" transform="translate(243.460938 0)"/>
     <use xlink:href="#DejaVuSans-Bold-54" transform="translate(270.214844 0)"/>
     <use xlink:href="#DejaVuSans-Bold-4f" transform="translate(338.427734 0)"/>
    </g>
   </g>
   <g id="patch_30">
    <path d="M 432.294798 224.556 
L 457.632678 224.556 
Q 459.744168 224.556 459.744168 222.432 
L 459.744168 206.856 
Q 459.744168 204.732 457.632678 204.732 
L 432.294798 204.732 
Q 430.183308 204.732 430.183308 206.856 
L 430.183308 222.432 
Q 430.183308 224.556 432.294798 224.556 
z
" clip-path="url(#pb5e1074f8c)" style="fill: #8e44ad"/>
   </g>
   <g id="text_19">
    <!-- EMC-EI -->
    <g style="fill: #2c3e50" transform="translate(380.235331 217.127438) scale(0.09 -0.09)">
     <use xlink:href="#DejaVuSans-Bold-45"/>
     <use xlink:href="#DejaVuSans-Bold-4d" transform="translate(68.310547 0)"/>
     <use xlink:href="#DejaVuSans-Bold-43" transform="translate(167.822266 0)"/>
     <use xlink:href="#DejaVuSans-Bold-2d" transform="translate(243.460938 0)"/>
     <use xlink:href="#DejaVuSans-Bold-45" transform="translate(284.964844 0)"/>
     <use xlink:href="#DejaVuSans-Bold-49" transform="translate(353.275391 0)"/>
    </g>
   </g>
   <g id="patch_31">
    <path d="M 432.294798 258.54 
L 457.632678 258.54 
Q 459.744168 258.54 459.744168 256.416 
L 459.744168 240.84 
Q 459.744168 238.716 457.632678 238.716 
L 432.294798 238.716 
Q 430.183308 238.716 430.183308 240.84 
L 430.183308 256.416 
Q 430.183308 258.54 432.294798 258.54 
z
" clip-path="url(#pb5e1074f8c)" style="fill: #bdc3c7"/>
   </g>
   <g id="text_20">
    <!-- EMC-SA -->
    <g style="fill: #2c3e50" transform="translate(378.260253 251.111437) scale(0.09 -0.09)">
     <defs>
      <path id="DejaVuSans-Bold-53" d="M 3834 4519 
L 3834 3531 
Q 3450 3703 3084 3790 
Q 2719 3878 2394 3878 
Q 1963 3878 1756 3759 
Q 1550 3641 1550 3391 
Q 1550 3203 1689 3098 
Q 1828 2994 2194 2919 
L 2706 2816 
Q 3484 2659 3812 2340 
Q 4141 2022 4141 1434 
Q 4141 663 3683 286 
Q 3225 -91 2284 -91 
Q 1841 -91 1394 -6 
Q 947 78 500 244 
L 500 1259 
Q 947 1022 1364 901 
Q 1781 781 2169 781 
Q 2563 781 2772 912 
Q 2981 1044 2981 1288 
Q 2981 1506 2839 1625 
Q 2697 1744 2272 1838 
L 1806 1941 
Q 1106 2091 782 2419 
Q 459 2747 459 3303 
Q 459 4000 909 4375 
Q 1359 4750 2203 4750 
Q 2588 4750 2994 4692 
Q 3400 4634 3834 4519 
z
" transform="scale(0.015625)"/>
     </defs>
     <use xlink:href="#DejaVuSans-Bold-45"/>
     <use xlink:href="#DejaVuSans-Bold-4d" transform="translate(68.310547 0)"/>
     <use xlink:href="#DejaVuSans-Bold-43" transform="translate(167.822266 0)"/>
     <use xlink:href="#DejaVuSans-Bold-2d" transform="translate(243.460938 0)"/>
     <use xlink:href="#DejaVuSans-Bold-53" transform="translate(284.964844 0)"/>
     <use xlink:href="#DejaVuSans-Bold-41" transform="translate(356.986328 0)"/>
    </g>
   </g>
   <g id="text_21">
    <!-- CLA -->
    <g style="fill: #ffffff" transform="translate(585.863838 117.695188) scale(0.13 -0.13)">
     <defs>
      <path id="DejaVuSans-Bold-4c" d="M 588 4666 
L 1791 4666 
L 1791 909 
L 3903 909 
L 3903 0 
L 588 0 
L 588 4666 
z
" transform="scale(0.015625)"/>
     </defs>
     <use xlink:href="#DejaVuSans-Bold-43"/>
     <use xlink:href="#DejaVuSans-Bold-4c" transform="translate(73.388672 0)"/>
     <use xlink:href="#DejaVuSans-Bold-41" transform="translate(137.109375 0)"/>
    </g>
   </g>
   <g id="text_22">
    <!-- Cognitive Load -->
    <g style="fill: #ffffff" transform="translate(571.866494 126.56141) scale(0.075 -0.075)">
     <defs>
      <path id="DejaVuSans-4c" d="M 628 4666 
L 1259 4666 
L 1259 531 
L 3531 531 
L 3531 0 
L 628 0 
L 628 4666 
z
" transform="scale(0.015625)"/>
     </defs>
     <use xlink:href="#DejaVuSans-43"/>
     <use xlink:href="#DejaVuSans-6f" transform="translate(69.824219 0)"/>
     <use xlink:href="#DejaVuSans-67" transform="translate(131.005859 0)"/>
     <use xlink:href="#DejaVuSans-6e" transform="translate(194.482422 0)"/>
     <use xlink:href="#DejaVuSans-69" transform="translate(257.861328 0)"/>
     <use xlink:href="#DejaVuSans-74" transform="translate(285.644531 0)"/>
     <use xlink:href="#DejaVuSans-69" transform="translate(324.853516 0)"/>
     <use xlink:href="#DejaVuSans-76" transform="translate(352.636719 0)"/>
     <use xlink:href="#DejaVuSans-65" transform="translate(411.816406 0)"/>
     <use xlink:href="#DejaVuSans-20" transform="translate(473.339844 0)"/>
     <use xlink:href="#DejaVuSans-4c" transform="translate(505.126953 0)"/>
     <use xlink:href="#DejaVuSans-6f" transform="translate(559.089844 0)"/>
     <use xlink:href="#DejaVuSans-61" transform="translate(620.271484 0)"/>
     <use xlink:href="#DejaVuSans-64" transform="translate(681.550781 0)"/>
    </g>
    <!-- Adaptation -->
    <g style="fill: #ffffff" transform="translate(579.296181 135.529652) scale(0.075 -0.075)">
     <defs>
      <path id="DejaVuSans-41" d="M 2188 4044 
L 1331 1722 
L 3047 1722 
L 2188 4044 
z
M 1831 4666 
L 2547 4666 
L 4325 0 
L 3669 0 
L 3244 1197 
L 1141 1197 
L 716 0 
L 50 0 
L 1831 4666 
z
" transform="scale(0.015625)"/>
     </defs>
     <use xlink:href="#DejaVuSans-41"/>
     <use xlink:href="#DejaVuSans-64" transform="translate(66.658203 0)"/>
     <use xlink:href="#DejaVuSans-61" transform="translate(130.134766 0)"/>
     <use xlink:href="#DejaVuSans-70" transform="translate(191.414062 0)"/>
     <use xlink:href="#DejaVuSans-74" transform="translate(254.890625 0)"/>
     <use xlink:href="#DejaVuSans-61" transform="translate(294.099609 0)"/>
     <use xlink:href="#DejaVuSans-74" transform="translate(355.378906 0)"/>
     <use xlink:href="#DejaVuSans-69" transform="translate(394.587891 0)"/>
     <use xlink:href="#DejaVuSans-6f" transform="translate(422.371094 0)"/>
     <use xlink:href="#DejaVuSans-6e" transform="translate(483.552734 0)"/>
    </g>
   </g>
   <g id="text_23">
    <!-- Sweller 1988 -->
    <g style="fill: #ffffff; opacity: 0.8" transform="translate(579.616619 149.802813) scale(0.062 -0.062)">
     <defs>
      <path id="DejaVuSans-Oblique-53" d="M 3859 4513 
L 3738 3897 
Q 3422 4066 3111 4152 
Q 2800 4238 2509 4238 
Q 1944 4238 1609 3991 
Q 1275 3744 1275 3334 
Q 1275 3109 1398 2989 
Q 1522 2869 2034 2731 
L 2413 2638 
Q 3053 2472 3303 2217 
Q 3553 1963 3553 1503 
Q 3553 797 2998 353 
Q 2444 -91 1538 -91 
Q 1166 -91 791 -17 
Q 416 56 38 206 
L 166 856 
Q 513 641 861 531 
Q 1209 422 1556 422 
Q 2147 422 2503 684 
Q 2859 947 2859 1369 
Q 2859 1650 2717 1795 
Q 2575 1941 2106 2059 
L 1728 2156 
Q 1081 2325 845 2545 
Q 609 2766 609 3163 
Q 609 3859 1145 4304 
Q 1681 4750 2541 4750 
Q 2875 4750 3203 4690 
Q 3531 4631 3859 4513 
z
" transform="scale(0.015625)"/>
      <path id="DejaVuSans-Oblique-77" d="M 544 3500 
L 1113 3500 
L 1259 684 
L 2566 3500 
L 3231 3500 
L 3425 684 
L 4666 3500 
L 5241 3500 
L 3641 0 
L 2969 0 
L 2797 2900 
L 1459 0 
L 781 0 
L 544 3500 
z
" transform="scale(0.015625)"/>
      <path id="DejaVuSans-Oblique-38" d="M 2847 1416 
Q 2847 1769 2600 1992 
Q 2353 2216 1953 2216 
Q 1466 2216 1148 1923 
Q 831 1631 831 1184 
Q 831 828 1073 618 
Q 1316 409 1728 409 
Q 2219 409 2533 693 
Q 2847 978 2847 1416 
z
M 3169 3591 
Q 3169 3888 2950 4069 
Q 2731 4250 2369 4250 
Q 1941 4250 1664 4009 
Q 1388 3769 1388 3406 
Q 1388 3094 1605 2903 
Q 1822 2713 2181 2713 
Q 2613 2713 2891 2961 
Q 3169 3209 3169 3591 
z
M 2741 2456 
Q 3094 2322 3281 2050 
Q 3469 1778 3469 1394 
Q 3469 747 2969 328 
Q 2469 -91 1678 -91 
Q 1006 -91 609 239 
Q 213 569 213 1119 
Q 213 1619 553 2008 
Q 894 2397 1441 2503 
Q 1113 2616 941 2852 
Q 769 3088 769 3425 
Q 769 3991 1239 4370 
Q 1709 4750 2431 4750 
Q 3034 4750 3414 4442 
Q 3794 4134 3794 3659 
Q 3794 3247 3511 2923 
Q 3228 2600 2741 2456 
z
" transform="scale(0.015625)"/>
     </defs>
     <use xlink:href="#DejaVuSans-Oblique-53"/>
     <use xlink:href="#DejaVuSans-Oblique-77" transform="translate(63.476562 0)"/>
     <use xlink:href="#DejaVuSans-Oblique-65" transform="translate(145.263672 0)"/>
     <use xlink:href="#DejaVuSans-Oblique-6c" transform="translate(206.787109 0)"/>
     <use xlink:href="#DejaVuSans-Oblique-6c" transform="translate(234.570312 0)"/>
     <use xlink:href="#DejaVuSans-Oblique-65" transform="translate(262.353516 0)"/>
     <use xlink:href="#DejaVuSans-Oblique-72" transform="translate(323.876953 0)"/>
     <use xlink:href="#DejaVuSans-Oblique-20" transform="translate(364.990234 0)"/>
     <use xlink:href="#DejaVuSans-Oblique-31" transform="translate(396.777344 0)"/>
     <use xlink:href="#DejaVuSans-Oblique-39" transform="translate(460.400391 0)"/>
     <use xlink:href="#DejaVuSans-Oblique-38" transform="translate(524.023438 0)"/>
     <use xlink:href="#DejaVuSans-Oblique-38" transform="translate(587.646484 0)"/>
    </g>
   </g>
   <g id="patch_32">
    <path d="M 625.848048 190.572 
L 651.185928 190.572 
Q 653.297418 190.572 653.297418 188.448 
L 653.297418 172.872 
Q 653.297418 170.748 651.185928 170.748 
L 625.848048 170.748 
Q 623.736558 170.748 623.736558 172.872 
L 623.736558 188.448 
Q 623.736558 190.572 625.848048 190.572 
z
" clip-path="url(#pb5e1074f8c)" style="fill: #d35400"/>
   </g>
   <g id="text_24">
    <!-- CLA-DC -->
    <g style="fill: #2c3e50" transform="translate(572.802096 183.143438) scale(0.09 -0.09)">
     <defs>
      <path id="DejaVuSans-Bold-44" d="M 1791 3756 
L 1791 909 
L 2222 909 
Q 2959 909 3348 1275 
Q 3738 1641 3738 2338 
Q 3738 3031 3350 3393 
Q 2963 3756 2222 3756 
L 1791 3756 
z
M 588 4666 
L 1856 4666 
Q 2919 4666 3439 4514 
Q 3959 4363 4331 4000 
Q 4659 3684 4818 3271 
Q 4978 2859 4978 2338 
Q 4978 1809 4818 1395 
Q 4659 981 4331 666 
Q 3956 303 3431 151 
Q 2906 0 1856 0 
L 588 0 
L 588 4666 
z
" transform="scale(0.015625)"/>
     </defs>
     <use xlink:href="#DejaVuSans-Bold-43"/>
     <use xlink:href="#DejaVuSans-Bold-4c" transform="translate(73.388672 0)"/>
     <use xlink:href="#DejaVuSans-Bold-41" transform="translate(137.109375 0)"/>
     <use xlink:href="#DejaVuSans-Bold-2d" transform="translate(214.501953 0)"/>
     <use xlink:href="#DejaVuSans-Bold-44" transform="translate(256.005859 0)"/>
     <use xlink:href="#DejaVuSans-Bold-43" transform="translate(339.013672 0)"/>
    </g>
   </g>
   <g id="patch_33">
    <path d="M 625.848048 224.556 
L 651.185928 224.556 
Q 653.297418 224.556 653.297418 222.432 
L 653.297418 206.856 
Q 653.297418 204.732 651.185928 204.732 
L 625.848048 204.732 
Q 623.736558 204.732 623.736558 206.856 
L 623.736558 222.432 
Q 623.736558 224.556 625.848048 224.556 
z
" clip-path="url(#pb5e1074f8c)" style="fill: #d35400"/>
   </g>
   <g id="text_25">
    <!-- CLA-RA -->
    <g style="fill: #2c3e50" transform="translate(572.892799 217.127438) scale(0.09 -0.09)">
     <use xlink:href="#DejaVuSans-Bold-43"/>
     <use xlink:href="#DejaVuSans-Bold-4c" transform="translate(73.388672 0)"/>
     <use xlink:href="#DejaVuSans-Bold-41" transform="translate(137.109375 0)"/>
     <use xlink:href="#DejaVuSans-Bold-2d" transform="translate(214.501953 0)"/>
     <use xlink:href="#DejaVuSans-Bold-52" transform="translate(256.005859 0)"/>
     <use xlink:href="#DejaVuSans-Bold-41" transform="translate(333.007812 0)"/>
    </g>
   </g>
   <g id="patch_34">
    <path d="M 625.848048 258.54 
L 651.185928 258.54 
Q 653.297418 258.54 653.297418 256.416 
L 653.297418 240.84 
Q 653.297418 238.716 651.185928 238.716 
L 625.848048 238.716 
Q 623.736558 238.716 623.736558 240.84 
L 623.736558 256.416 
Q 623.736558 258.54 625.848048 258.54 
z
" clip-path="url(#pb5e1074f8c)" style="fill: #d35400"/>
   </g>
   <g id="text_26">
    <!-- CLA-CR -->
    <g style="fill: #2c3e50" transform="translate(573.072799 251.111437) scale(0.09 -0.09)">
     <use xlink:href="#DejaVuSans-Bold-43"/>
     <use xlink:href="#DejaVuSans-Bold-4c" transform="translate(73.388672 0)"/>
     <use xlink:href="#DejaVuSans-Bold-41" transform="translate(137.109375 0)"/>
     <use xlink:href="#DejaVuSans-Bold-2d" transform="translate(214.501953 0)"/>
     <use xlink:href="#DejaVuSans-Bold-43" transform="translate(256.005859 0)"/>
     <use xlink:href="#DejaVuSans-Bold-52" transform="translate(329.394531 0)"/>
    </g>
   </g>
   <g id="text_27">
    <!-- T1 -->
    <g style="fill: #ffffff" transform="translate(84.706697 182.591563) scale(0.07 -0.07)">
     <defs>
      <path id="DejaVuSans-Bold-31" d="M 750 831 
L 1813 831 
L 1813 3847 
L 722 3622 
L 722 4441 
L 1806 4666 
L 2950 4666 
L 2950 831 
L 4013 831 
L 4013 0 
L 750 0 
L 750 831 
z
" transform="scale(0.015625)"/>
     </defs>
     <use xlink:href="#DejaVuSans-Bold-54"/>
     <use xlink:href="#DejaVuSans-Bold-31" transform="translate(68.212891 0)"/>
    </g>
   </g>
   <g id="text_28">
    <!-- T2 -->
    <g style="fill: #ffffff" transform="translate(84.706697 216.575563) scale(0.07 -0.07)">
     <defs>
      <path id="DejaVuSans-Bold-32" d="M 1844 884 
L 3897 884 
L 3897 0 
L 506 0 
L 506 884 
L 2209 2388 
Q 2438 2594 2547 2791 
Q 2656 2988 2656 3200 
Q 2656 3528 2436 3728 
Q 2216 3928 1850 3928 
Q 1569 3928 1234 3808 
Q 900 3688 519 3450 
L 519 4475 
Q 925 4609 1322 4679 
Q 1719 4750 2100 4750 
Q 2938 4750 3402 4381 
Q 3866 4013 3866 3353 
Q 3866 2972 3669 2642 
Q 3472 2313 2841 1759 
L 1844 884 
z
" transform="scale(0.015625)"/>
     </defs>
     <use xlink:href="#DejaVuSans-Bold-54"/>
     <use xlink:href="#DejaVuSans-Bold-32" transform="translate(68.212891 0)"/>
    </g>
   </g>
   <g id="text_29">
    <!-- T2 -->
    <g style="fill: #ffffff" transform="translate(84.706697 250.559562) scale(0.07 -0.07)">
     <use xlink:href="#DejaVuSans-Bold-54"/>
     <use xlink:href="#DejaVuSans-Bold-32" transform="translate(68.212891 0)"/>
    </g>
   </g>
   <g id="text_30">
    <!-- T1 -->
    <g style="fill: #ffffff" transform="translate(246.587597 182.591563) scale(0.07 -0.07)">
     <use xlink:href="#DejaVuSans-Bold-54"/>
     <use xlink:href="#DejaVuSans-Bold-31" transform="translate(68.212891 0)"/>
    </g>
   </g>
   <g id="text_31">
    <!-- T2 -->
    <g style="fill: #ffffff" transform="translate(246.587597 216.575563) scale(0.07 -0.07)">
     <use xlink:href="#DejaVuSans-Bold-54"/>
     <use xlink:href="#DejaVuSans-Bold-32" transform="translate(68.212891 0)"/>
    </g>
   </g>
   <g id="text_32">
    <!-- T1 -->
    <g style="fill: #ffffff" transform="translate(440.140847 182.591563) scale(0.07 -0.07)">
     <use xlink:href="#DejaVuSans-Bold-54"/>
     <use xlink:href="#DejaVuSans-Bold-31" transform="translate(68.212891 0)"/>
    </g>
   </g>
   <g id="text_33">
    <!-- T1 -->
    <g style="fill: #ffffff" transform="translate(440.140847 216.575563) scale(0.07 -0.07)">
     <use xlink:href="#DejaVuSans-Bold-54"/>
     <use xlink:href="#DejaVuSans-Bold-31" transform="translate(68.212891 0)"/>
    </g>
   </g>
   <g id="text_34">
    <!-- T2 -->
    <g style="fill: #ffffff" transform="translate(440.140847 250.559562) scale(0.07 -0.07)">
     <use xlink:href="#DejaVuSans-Bold-54"/>
     <use xlink:href="#DejaVuSans-Bold-32" transform="translate(68.212891 0)"/>
    </g>
   </g>
   <g id="text_35">
    <!-- T1 -->
    <g style="fill: #ffffff" transform="translate(633.694097 182.591563) scale(0.07 -0.07)">
     <use xlink:href="#DejaVuSans-Bold-54"/>
     <use xlink:href="#DejaVuSans-Bold-31" transform="translate(68.212891 0)"/>
    </g>
   </g>
   <g id="text_36">
    <!-- T1 -->
    <g style="fill: #ffffff" transform="translate(633.694097 216.575563) scale(0.07 -0.07)">
     <use xlink:href="#DejaVuSans-Bold-54"/>
     <use xlink:href="#DejaVuSans-Bold-31" transform="translate(68.212891 0)"/>
    </g>
   </g>
   <g id="text_37">
    <!-- T1 -->
    <g style="fill: #ffffff" transform="translate(633.694097 250.559562) scale(0.07 -0.07)">
     <use xlink:href="#DejaVuSans-Bold-54"/>
     <use xlink:href="#DejaVuSans-Bold-31" transform="translate(68.212891 0)"/>
    </g>
   </g>
  </g>
 </g>
 <defs>
  <clipPath id="pb5e1074f8c">
   <rect x="8.589138" y="7.2" width="703.83" height="354"/>
  </clipPath>
 </defs>
</svg>
