<?xml version="1.0" encoding="utf-8" standalone="no"?>
<!DOCTYPE svg PUBLIC "-//W3C//DTD SVG 1.1//EN"
  "http://www.w3.org/Graphics/SVG/1.1/DTD/svg11.dtd">
<svg xmlns:xlink="http://www.w3.org/1999/xlink" width="471.686338pt" height="283.2501pt" viewBox="0 0 471.686338 283.2501" xmlns="http://www.w3.org/2000/svg" version="1.1">
 <metadata>
  <rdf:RDF xmlns:dc="http://purl.org/dc/elements/1.1/" xmlns:cc="http://creativecommons.org/ns#" xmlns:rdf="http://www.w3.org/1999/02/22-rdf-syntax-ns#">
   <cc:Work>
    <dc:type rdf:resource="http://purl.org/dc/dcmitype/StillImage"/>
    <dc:date>2026-03-22T02:15:25.206978</dc:date>
    <dc:format>image/svg+xml</dc:format>
    <dc:creator>
     <cc:Agent>
      <dc:title>Matplotlib v3.10.8, https://matplotlib.org/</dc:title>
     </cc:Agent>
    </dc:creator>
   </cc:Work>
  </rdf:RDF>
 </metadata>
 <defs>
  <style type="text/css">*{stroke-linejoin: round; stroke-linecap: butt}</style>
 </defs>
 <g id="figure_1">
  <g id="patch_1">
   <path d="M 0 283.2501 
L 471.686338 283.2501 
L 471.686338 0 
L 0 0 
z
" style="fill: #ffffff"/>
  </g>
  <g id="axes_1">
   <g id="patch_2">
    <path d="M 49.175938 222.40185 
L 215.192466 222.40185 
L 215.192466 33.90585 
L 49.175938 33.90585 
z
" style="fill: #ffffff"/>
   </g>
   <g id="matplotlib.axis_1">
    <g id="xtick_1">
     <g id="line2d_1">
      <defs>
       <path id="me98ba35152" d="M 0 0 
L 0 3.5 
" style="stroke: #000000; stroke-width: 0.8"/>
      </defs>
      <g>
       <use xlink:href="#me98ba35152" x="92.656457" y="222.40185" style="stroke: #000000; stroke-width: 0.8"/>
      </g>
     </g>
     <g id="text_1">
      <!-- deepseek-r1 -->
      <g transform="translate(66.299816 235.860522) scale(0.085 -0.085)">
       <defs>
        <path id="DejaVuSerif-64" d="M 3359 331 
L 3909 331 
L 3909 0 
L 2784 0 
L 2784 519 
Q 2616 206 2355 57 
Q 2094 -91 1709 -91 
Q 1097 -91 708 395 
Q 319 881 319 1663 
Q 319 2444 706 2928 
Q 1094 3413 1709 3413 
Q 2094 3413 2355 3264 
Q 2616 3116 2784 2803 
L 2784 4531 
L 2241 4531 
L 2241 4863 
L 3359 4863 
L 3359 331 
z
M 2784 1497 
L 2784 1825 
Q 2784 2422 2554 2737 
Q 2325 3053 1888 3053 
Q 1444 3053 1217 2703 
Q 991 2353 991 1663 
Q 991 975 1217 622 
Q 1444 269 1888 269 
Q 2325 269 2554 583 
Q 2784 897 2784 1497 
z
" transform="scale(0.015625)"/>
        <path id="DejaVuSerif-65" d="M 3469 1600 
L 991 1600 
L 991 1575 
Q 991 903 1244 561 
Q 1497 219 1991 219 
Q 2369 219 2611 417 
Q 2853 616 2950 1006 
L 3413 1006 
Q 3275 459 2904 184 
Q 2534 -91 1931 -91 
Q 1203 -91 761 389 
Q 319 869 319 1663 
Q 319 2450 753 2931 
Q 1188 3413 1894 3413 
Q 2647 3413 3050 2948 
Q 3453 2484 3469 1600 
z
M 2791 1931 
Q 2772 2513 2545 2808 
Q 2319 3103 1894 3103 
Q 1497 3103 1269 2806 
Q 1041 2509 991 1931 
L 2791 1931 
z
" transform="scale(0.015625)"/>
        <path id="DejaVuSerif-70" d="M 1313 1825 
L 1313 1497 
Q 1313 897 1542 583 
Q 1772 269 2209 269 
Q 2650 269 2876 622 
Q 3103 975 3103 1663 
Q 3103 2353 2876 2703 
Q 2650 3053 2209 3053 
Q 1772 3053 1542 2737 
Q 1313 2422 1313 1825 
z
M 738 2988 
L 184 2988 
L 184 3322 
L 1313 3322 
L 1313 2803 
Q 1481 3116 1742 3264 
Q 2003 3413 2388 3413 
Q 3000 3413 3387 2928 
Q 3775 2444 3775 1663 
Q 3775 881 3387 395 
Q 3000 -91 2388 -91 
Q 2003 -91 1742 57 
Q 1481 206 1313 519 
L 1313 -997 
L 1856 -997 
L 1856 -1331 
L 184 -1331 
L 184 -997 
L 738 -997 
L 738 2988 
z
" transform="scale(0.015625)"/>
        <path id="DejaVuSerif-73" d="M 359 184 
L 359 959 
L 691 959 
Q 703 588 923 403 
Q 1144 219 1575 219 
Q 1963 219 2166 364 
Q 2369 509 2369 788 
Q 2369 1006 2220 1140 
Q 2072 1275 1594 1428 
L 1178 1569 
Q 750 1706 558 1912 
Q 366 2119 366 2438 
Q 366 2894 700 3153 
Q 1034 3413 1625 3413 
Q 1888 3413 2178 3344 
Q 2469 3275 2778 3144 
L 2778 2419 
L 2447 2419 
Q 2434 2741 2221 2922 
Q 2009 3103 1644 3103 
Q 1281 3103 1095 2975 
Q 909 2847 909 2591 
Q 909 2381 1050 2254 
Q 1191 2128 1613 1997 
L 2069 1856 
Q 2541 1709 2748 1489 
Q 2956 1269 2956 922 
Q 2956 450 2595 179 
Q 2234 -91 1600 -91 
Q 1278 -91 972 -22 
Q 666 47 359 184 
z
" transform="scale(0.015625)"/>
        <path id="DejaVuSerif-6b" d="M 1831 0 
L 219 0 
L 219 331 
L 738 331 
L 738 4531 
L 184 4531 
L 184 4863 
L 1313 4863 
L 1313 1697 
L 2713 2988 
L 2234 2988 
L 2234 3322 
L 3738 3322 
L 3738 2988 
L 3169 2988 
L 2181 2075 
L 3444 331 
L 3922 331 
L 3922 0 
L 2284 0 
L 2284 331 
L 2759 331 
L 1766 1697 
L 1313 1275 
L 1313 331 
L 1831 331 
L 1831 0 
z
" transform="scale(0.015625)"/>
        <path id="DejaVuSerif-2d" d="M 281 1959 
L 1881 1959 
L 1881 1472 
L 281 1472 
L 281 1959 
z
" transform="scale(0.015625)"/>
        <path id="DejaVuSerif-72" d="M 3059 3328 
L 3059 2497 
L 2728 2497 
Q 2713 2744 2591 2866 
Q 2469 2988 2234 2988 
Q 1809 2988 1582 2694 
Q 1356 2400 1356 1850 
L 1356 331 
L 2022 331 
L 2022 0 
L 263 0 
L 263 331 
L 781 331 
L 781 2994 
L 231 2994 
L 231 3322 
L 1356 3322 
L 1356 2731 
Q 1525 3078 1790 3245 
Q 2056 3413 2438 3413 
Q 2578 3413 2733 3391 
Q 2888 3369 3059 3328 
z
" transform="scale(0.015625)"/>
        <path id="DejaVuSerif-31" d="M 909 0 
L 909 331 
L 1722 331 
L 1722 4213 
L 781 3603 
L 781 4013 
L 1919 4750 
L 2350 4750 
L 2350 331 
L 3163 331 
L 3163 0 
L 909 0 
z
" transform="scale(0.015625)"/>
       </defs>
       <use xlink:href="#DejaVuSerif-64"/>
       <use xlink:href="#DejaVuSerif-65" transform="translate(64.013672 0)"/>
       <use xlink:href="#DejaVuSerif-65" transform="translate(123.193359 0)"/>
       <use xlink:href="#DejaVuSerif-70" transform="translate(182.373047 0)"/>
       <use xlink:href="#DejaVuSerif-73" transform="translate(246.386719 0)"/>
       <use xlink:href="#DejaVuSerif-65" transform="translate(297.705078 0)"/>
       <use xlink:href="#DejaVuSerif-65" transform="translate(356.884766 0)"/>
       <use xlink:href="#DejaVuSerif-6b" transform="translate(416.064453 0)"/>
       <use xlink:href="#DejaVuSerif-2d" transform="translate(474.910156 0)"/>
       <use xlink:href="#DejaVuSerif-72" transform="translate(508.699219 0)"/>
       <use xlink:href="#DejaVuSerif-31" transform="translate(556.501953 0)"/>
      </g>
      <!-- :14b -->
      <g transform="translate(83.095949 245.378662) scale(0.085 -0.085)">
       <defs>
        <path id="DejaVuSerif-3a" d="M 666 325 
Q 666 500 786 622 
Q 906 744 1081 744 
Q 1256 744 1376 622 
Q 1497 500 1497 325 
Q 1497 150 1378 29 
Q 1259 -91 1081 -91 
Q 903 -91 784 29 
Q 666 150 666 325 
z
M 666 2363 
Q 666 2538 786 2658 
Q 906 2778 1081 2778 
Q 1259 2778 1378 2659 
Q 1497 2541 1497 2363 
Q 1497 2184 1378 2065 
Q 1259 1947 1081 1947 
Q 906 1947 786 2067 
Q 666 2188 666 2363 
z
" transform="scale(0.015625)"/>
        <path id="DejaVuSerif-34" d="M 2234 1581 
L 2234 4063 
L 641 1581 
L 2234 1581 
z
M 3609 0 
L 1484 0 
L 1484 331 
L 2234 331 
L 2234 1247 
L 197 1247 
L 197 1588 
L 2241 4750 
L 2859 4750 
L 2859 1581 
L 3750 1581 
L 3750 1247 
L 2859 1247 
L 2859 331 
L 3609 331 
L 3609 0 
z
" transform="scale(0.015625)"/>
        <path id="DejaVuSerif-62" d="M 738 331 
L 738 4531 
L 184 4531 
L 184 4863 
L 1313 4863 
L 1313 2803 
Q 1481 3116 1742 3264 
Q 2003 3413 2388 3413 
Q 3000 3413 3387 2928 
Q 3775 2444 3775 1663 
Q 3775 881 3387 395 
Q 3000 -91 2388 -91 
Q 2003 -91 1742 57 
Q 1481 206 1313 519 
L 1313 0 
L 184 0 
L 184 331 
L 738 331 
z
M 1313 1497 
Q 1313 897 1542 583 
Q 1772 269 2209 269 
Q 2650 269 2876 622 
Q 3103 975 3103 1663 
Q 3103 2353 2876 2703 
Q 2650 3053 2209 3053 
Q 1772 3053 1542 2737 
Q 1313 2422 1313 1825 
L 1313 1497 
z
" transform="scale(0.015625)"/>
       </defs>
       <use xlink:href="#DejaVuSerif-3a"/>
       <use xlink:href="#DejaVuSerif-31" transform="translate(33.691406 0)"/>
       <use xlink:href="#DejaVuSerif-34" transform="translate(97.314453 0)"/>
       <use xlink:href="#DejaVuSerif-62" transform="translate(160.9375 0)"/>
      </g>
     </g>
    </g>
    <g id="xtick_2">
     <g id="line2d_2">
      <g>
       <use xlink:href="#me98ba35152" x="171.711947" y="222.40185" style="stroke: #000000; stroke-width: 0.8"/>
      </g>
     </g>
     <g id="text_2">
      <!-- mixtral -->
      <g transform="translate(156.29308 235.860522) scale(0.085 -0.085)">
       <defs>
        <path id="DejaVuSerif-6d" d="M 3316 2675 
Q 3481 3041 3739 3227 
Q 3997 3413 4341 3413 
Q 4863 3413 5119 3089 
Q 5375 2766 5375 2113 
L 5375 331 
L 5894 331 
L 5894 0 
L 4300 0 
L 4300 331 
L 4800 331 
L 4800 2047 
Q 4800 2556 4650 2772 
Q 4500 2988 4153 2988 
Q 3769 2988 3567 2697 
Q 3366 2406 3366 1850 
L 3366 331 
L 3866 331 
L 3866 0 
L 2291 0 
L 2291 331 
L 2791 331 
L 2791 2069 
Q 2791 2566 2641 2777 
Q 2491 2988 2144 2988 
Q 1759 2988 1557 2697 
Q 1356 2406 1356 1850 
L 1356 331 
L 1856 331 
L 1856 0 
L 263 0 
L 263 331 
L 781 331 
L 781 2994 
L 231 2994 
L 231 3322 
L 1356 3322 
L 1356 2731 
Q 1516 3063 1762 3238 
Q 2009 3413 2322 3413 
Q 2709 3413 2968 3220 
Q 3228 3028 3316 2675 
z
" transform="scale(0.015625)"/>
        <path id="DejaVuSerif-69" d="M 622 4353 
Q 622 4497 726 4603 
Q 831 4709 978 4709 
Q 1122 4709 1226 4603 
Q 1331 4497 1331 4353 
Q 1331 4206 1228 4103 
Q 1125 4000 978 4000 
Q 831 4000 726 4103 
Q 622 4206 622 4353 
z
M 1356 331 
L 1900 331 
L 1900 0 
L 231 0 
L 231 331 
L 781 331 
L 781 2988 
L 231 2988 
L 231 3322 
L 1356 3322 
L 1356 331 
z
" transform="scale(0.015625)"/>
        <path id="DejaVuSerif-78" d="M 1863 2028 
L 2559 2988 
L 2113 2988 
L 2113 3322 
L 3391 3322 
L 3391 2988 
L 2950 2988 
L 2059 1759 
L 3097 331 
L 3531 331 
L 3531 0 
L 1997 0 
L 1997 331 
L 2419 331 
L 1697 1325 
L 972 331 
L 1403 331 
L 1403 0 
L 141 0 
L 141 331 
L 581 331 
L 1497 1594 
L 488 2988 
L 78 2988 
L 78 3322 
L 1563 3322 
L 1563 2988 
L 1166 2988 
L 1863 2028 
z
" transform="scale(0.015625)"/>
        <path id="DejaVuSerif-74" d="M 691 2988 
L 184 2988 
L 184 3322 
L 691 3322 
L 691 4353 
L 1269 4353 
L 1269 3322 
L 2350 3322 
L 2350 2988 
L 1269 2988 
L 1269 878 
Q 1269 456 1350 337 
Q 1431 219 1650 219 
Q 1875 219 1978 351 
Q 2081 484 2088 781 
L 2522 781 
Q 2497 328 2275 118 
Q 2053 -91 1600 -91 
Q 1103 -91 897 129 
Q 691 350 691 878 
L 691 2988 
z
" transform="scale(0.015625)"/>
        <path id="DejaVuSerif-61" d="M 2547 1044 
L 2547 1747 
L 1806 1747 
Q 1378 1747 1168 1562 
Q 959 1378 959 997 
Q 959 650 1171 447 
Q 1384 244 1747 244 
Q 2106 244 2326 466 
Q 2547 688 2547 1044 
z
M 3122 2075 
L 3122 331 
L 3634 331 
L 3634 0 
L 2547 0 
L 2547 359 
Q 2356 128 2106 18 
Q 1856 -91 1522 -91 
Q 969 -91 644 203 
Q 319 497 319 997 
Q 319 1513 691 1797 
Q 1063 2081 1741 2081 
L 2547 2081 
L 2547 2309 
Q 2547 2688 2317 2895 
Q 2088 3103 1672 3103 
Q 1328 3103 1125 2947 
Q 922 2791 872 2484 
L 575 2484 
L 575 3156 
Q 875 3284 1158 3348 
Q 1441 3413 1709 3413 
Q 2400 3413 2761 3070 
Q 3122 2728 3122 2075 
z
" transform="scale(0.015625)"/>
        <path id="DejaVuSerif-6c" d="M 1313 331 
L 1856 331 
L 1856 0 
L 184 0 
L 184 331 
L 738 331 
L 738 4531 
L 184 4531 
L 184 4863 
L 1313 4863 
L 1313 331 
z
" transform="scale(0.015625)"/>
       </defs>
       <use xlink:href="#DejaVuSerif-6d"/>
       <use xlink:href="#DejaVuSerif-69" transform="translate(94.824219 0)"/>
       <use xlink:href="#DejaVuSerif-78" transform="translate(126.806641 0)"/>
       <use xlink:href="#DejaVuSerif-74" transform="translate(183.203125 0)"/>
       <use xlink:href="#DejaVuSerif-72" transform="translate(223.388672 0)"/>
       <use xlink:href="#DejaVuSerif-61" transform="translate(271.191406 0)"/>
       <use xlink:href="#DejaVuSerif-6c" transform="translate(330.810547 0)"/>
      </g>
      <!-- :8x7b -->
      <g transform="translate(159.754838 245.378662) scale(0.085 -0.085)">
       <defs>
        <path id="DejaVuSerif-38" d="M 2981 1275 
Q 2981 1775 2732 2051 
Q 2484 2328 2034 2328 
Q 1584 2328 1336 2051 
Q 1088 1775 1088 1275 
Q 1088 772 1336 495 
Q 1584 219 2034 219 
Q 2484 219 2732 495 
Q 2981 772 2981 1275 
z
M 2853 3541 
Q 2853 3966 2637 4203 
Q 2422 4441 2034 4441 
Q 1650 4441 1433 4203 
Q 1216 3966 1216 3541 
Q 1216 3113 1433 2875 
Q 1650 2638 2034 2638 
Q 2422 2638 2637 2875 
Q 2853 3113 2853 3541 
z
M 2516 2484 
Q 3047 2413 3344 2092 
Q 3641 1772 3641 1275 
Q 3641 619 3225 264 
Q 2809 -91 2034 -91 
Q 1263 -91 845 264 
Q 428 619 428 1275 
Q 428 1772 725 2092 
Q 1022 2413 1556 2484 
Q 1084 2569 832 2842 
Q 581 3116 581 3541 
Q 581 4103 968 4426 
Q 1356 4750 2034 4750 
Q 2713 4750 3100 4426 
Q 3488 4103 3488 3541 
Q 3488 3116 3236 2842 
Q 2984 2569 2516 2484 
z
" transform="scale(0.015625)"/>
        <path id="DejaVuSerif-37" d="M 3609 4347 
L 1784 0 
L 1319 0 
L 3059 4153 
L 903 4153 
L 903 3578 
L 538 3578 
L 538 4666 
L 3609 4666 
L 3609 4347 
z
" transform="scale(0.015625)"/>
       </defs>
       <use xlink:href="#DejaVuSerif-3a"/>
       <use xlink:href="#DejaVuSerif-38" transform="translate(33.691406 0)"/>
       <use xlink:href="#DejaVuSerif-78" transform="translate(97.314453 0)"/>
       <use xlink:href="#DejaVuSerif-37" transform="translate(153.710938 0)"/>
       <use xlink:href="#DejaVuSerif-62" transform="translate(217.333984 0)"/>
      </g>
     </g>
    </g>
   </g>
   <g id="matplotlib.axis_2">
    <g id="ytick_1">
     <g id="line2d_3">
      <defs>
       <path id="m60be4d4de4" d="M 0 0 
L -3.5 0 
" style="stroke: #000000; stroke-width: 0.8"/>
      </defs>
      <g>
       <use xlink:href="#m60be4d4de4" x="49.175938" y="222.40185" style="stroke: #000000; stroke-width: 0.8"/>
      </g>
     </g>
     <g id="text_3">
      <!-- 0.00 -->
      <g transform="translate(19.910313 226.201069) scale(0.1 -0.1)">
       <defs>
        <path id="DejaVuSerif-30" d="M 2034 219 
Q 2513 219 2750 744 
Q 2988 1269 2988 2328 
Q 2988 3391 2750 3916 
Q 2513 4441 2034 4441 
Q 1556 4441 1318 3916 
Q 1081 3391 1081 2328 
Q 1081 1269 1318 744 
Q 1556 219 2034 219 
z
M 2034 -91 
Q 1275 -91 848 546 
Q 422 1184 422 2328 
Q 422 3475 848 4112 
Q 1275 4750 2034 4750 
Q 2797 4750 3222 4112 
Q 3647 3475 3647 2328 
Q 3647 1184 3222 546 
Q 2797 -91 2034 -91 
z
" transform="scale(0.015625)"/>
        <path id="DejaVuSerif-2e" d="M 603 325 
Q 603 500 722 622 
Q 841 744 1019 744 
Q 1191 744 1312 622 
Q 1434 500 1434 325 
Q 1434 153 1312 31 
Q 1191 -91 1019 -91 
Q 841 -91 722 29 
Q 603 150 603 325 
z
" transform="scale(0.015625)"/>
       </defs>
       <use xlink:href="#DejaVuSerif-30"/>
       <use xlink:href="#DejaVuSerif-2e" transform="translate(63.623047 0)"/>
       <use xlink:href="#DejaVuSerif-30" transform="translate(95.410156 0)"/>
       <use xlink:href="#DejaVuSerif-30" transform="translate(159.033203 0)"/>
      </g>
     </g>
    </g>
    <g id="ytick_2">
     <g id="line2d_4">
      <g>
       <use xlink:href="#m60be4d4de4" x="49.175938" y="182.466257" style="stroke: #000000; stroke-width: 0.8"/>
      </g>
     </g>
     <g id="text_4">
      <!-- 0.25 -->
      <g transform="translate(19.910313 186.265476) scale(0.1 -0.1)">
       <defs>
        <path id="DejaVuSerif-32" d="M 819 3553 
L 469 3553 
L 469 4384 
Q 803 4563 1142 4656 
Q 1481 4750 1806 4750 
Q 2534 4750 2956 4397 
Q 3378 4044 3378 3438 
Q 3378 2753 2422 1800 
Q 2347 1728 2309 1691 
L 1131 513 
L 3078 513 
L 3078 1088 
L 3444 1088 
L 3444 0 
L 434 0 
L 434 341 
L 1850 1753 
Q 2319 2222 2519 2614 
Q 2719 3006 2719 3438 
Q 2719 3909 2473 4175 
Q 2228 4441 1797 4441 
Q 1350 4441 1106 4219 
Q 863 3997 819 3553 
z
" transform="scale(0.015625)"/>
        <path id="DejaVuSerif-35" d="M 3219 4666 
L 3219 4153 
L 1081 4153 
L 1081 2816 
Q 1244 2928 1461 2984 
Q 1678 3041 1947 3041 
Q 2703 3041 3140 2622 
Q 3578 2203 3578 1478 
Q 3578 738 3136 323 
Q 2694 -91 1894 -91 
Q 1572 -91 1234 -12 
Q 897 66 544 225 
L 544 1131 
L 897 1131 
Q 925 688 1179 453 
Q 1434 219 1894 219 
Q 2388 219 2653 544 
Q 2919 869 2919 1478 
Q 2919 2084 2655 2407 
Q 2391 2731 1894 2731 
Q 1613 2731 1398 2631 
Q 1184 2531 1019 2322 
L 750 2322 
L 750 4666 
L 3219 4666 
z
" transform="scale(0.015625)"/>
       </defs>
       <use xlink:href="#DejaVuSerif-30"/>
       <use xlink:href="#DejaVuSerif-2e" transform="translate(63.623047 0)"/>
       <use xlink:href="#DejaVuSerif-32" transform="translate(95.410156 0)"/>
       <use xlink:href="#DejaVuSerif-35" transform="translate(159.033203 0)"/>
      </g>
     </g>
    </g>
    <g id="ytick_3">
     <g id="line2d_5">
      <g>
       <use xlink:href="#m60be4d4de4" x="49.175938" y="142.530664" style="stroke: #000000; stroke-width: 0.8"/>
      </g>
     </g>
     <g id="text_5">
      <!-- 0.50 -->
      <g transform="translate(19.910313 146.329882) scale(0.1 -0.1)">
       <use xlink:href="#DejaVuSerif-30"/>
       <use xlink:href="#DejaVuSerif-2e" transform="translate(63.623047 0)"/>
       <use xlink:href="#DejaVuSerif-35" transform="translate(95.410156 0)"/>
       <use xlink:href="#DejaVuSerif-30" transform="translate(159.033203 0)"/>
      </g>
     </g>
    </g>
    <g id="ytick_4">
     <g id="line2d_6">
      <g>
       <use xlink:href="#m60be4d4de4" x="49.175938" y="102.59507" style="stroke: #000000; stroke-width: 0.8"/>
      </g>
     </g>
     <g id="text_6">
      <!-- 0.75 -->
      <g transform="translate(19.910313 106.394289) scale(0.1 -0.1)">
       <use xlink:href="#DejaVuSerif-30"/>
       <use xlink:href="#DejaVuSerif-2e" transform="translate(63.623047 0)"/>
       <use xlink:href="#DejaVuSerif-37" transform="translate(95.410156 0)"/>
       <use xlink:href="#DejaVuSerif-35" transform="translate(159.033203 0)"/>
      </g>
     </g>
    </g>
    <g id="ytick_5">
     <g id="line2d_7">
      <g>
       <use xlink:href="#m60be4d4de4" x="49.175938" y="62.659477" style="stroke: #000000; stroke-width: 0.8"/>
      </g>
     </g>
     <g id="text_7">
      <!-- 1.00 -->
      <g transform="translate(19.910313 66.458696) scale(0.1 -0.1)">
       <use xlink:href="#DejaVuSerif-31"/>
       <use xlink:href="#DejaVuSerif-2e" transform="translate(63.623047 0)"/>
       <use xlink:href="#DejaVuSerif-30" transform="translate(95.410156 0)"/>
       <use xlink:href="#DejaVuSerif-30" transform="translate(159.033203 0)"/>
      </g>
     </g>
    </g>
    <g id="text_8">
     <!-- Task Completion Score -->
     <g transform="translate(14.038594 180.7701) rotate(-90) scale(0.09 -0.09)">
      <defs>
       <path id="DejaVuSerif-54" d="M 1222 0 
L 1222 331 
L 1819 331 
L 1819 4294 
L 447 4294 
L 447 3566 
L 63 3566 
L 63 4666 
L 4206 4666 
L 4206 3566 
L 3822 3566 
L 3822 4294 
L 2450 4294 
L 2450 331 
L 3047 331 
L 3047 0 
L 1222 0 
z
" transform="scale(0.015625)"/>
       <path id="DejaVuSerif-20" transform="scale(0.015625)"/>
       <path id="DejaVuSerif-43" d="M 4513 1234 
Q 4306 581 3820 245 
Q 3334 -91 2591 -91 
Q 2134 -91 1743 65 
Q 1353 222 1050 525 
Q 700 875 529 1320 
Q 359 1766 359 2328 
Q 359 3416 987 4083 
Q 1616 4750 2644 4750 
Q 3025 4750 3456 4650 
Q 3888 4550 4384 4347 
L 4384 3272 
L 4031 3272 
Q 3916 3859 3567 4137 
Q 3219 4416 2591 4416 
Q 1844 4416 1459 3886 
Q 1075 3356 1075 2328 
Q 1075 1303 1459 773 
Q 1844 244 2591 244 
Q 3113 244 3450 492 
Q 3788 741 3938 1234 
L 4513 1234 
z
" transform="scale(0.015625)"/>
       <path id="DejaVuSerif-6f" d="M 1925 219 
Q 2388 219 2623 584 
Q 2859 950 2859 1663 
Q 2859 2375 2623 2739 
Q 2388 3103 1925 3103 
Q 1463 3103 1227 2739 
Q 991 2375 991 1663 
Q 991 950 1228 584 
Q 1466 219 1925 219 
z
M 1925 -91 
Q 1200 -91 759 389 
Q 319 869 319 1663 
Q 319 2456 758 2934 
Q 1197 3413 1925 3413 
Q 2653 3413 3092 2934 
Q 3531 2456 3531 1663 
Q 3531 869 3092 389 
Q 2653 -91 1925 -91 
z
" transform="scale(0.015625)"/>
       <path id="DejaVuSerif-6e" d="M 263 0 
L 263 331 
L 781 331 
L 781 2988 
L 231 2988 
L 231 3322 
L 1356 3322 
L 1356 2731 
Q 1516 3069 1770 3241 
Q 2025 3413 2363 3413 
Q 2913 3413 3172 3097 
Q 3431 2781 3431 2113 
L 3431 331 
L 3944 331 
L 3944 0 
L 2356 0 
L 2356 331 
L 2853 331 
L 2853 1931 
Q 2853 2541 2703 2767 
Q 2553 2994 2175 2994 
Q 1775 2994 1565 2701 
Q 1356 2409 1356 1850 
L 1356 331 
L 1856 331 
L 1856 0 
L 263 0 
z
" transform="scale(0.015625)"/>
       <path id="DejaVuSerif-53" d="M 594 225 
L 594 1288 
L 953 1284 
Q 969 753 1261 498 
Q 1553 244 2150 244 
Q 2706 244 2998 464 
Q 3291 684 3291 1106 
Q 3291 1444 3114 1625 
Q 2938 1806 2369 1978 
L 1753 2163 
Q 1084 2366 811 2669 
Q 538 2972 538 3500 
Q 538 4094 959 4422 
Q 1381 4750 2144 4750 
Q 2469 4750 2856 4679 
Q 3244 4609 3681 4475 
L 3681 3481 
L 3328 3481 
Q 3275 3975 2998 4195 
Q 2722 4416 2156 4416 
Q 1663 4416 1405 4214 
Q 1147 4013 1147 3628 
Q 1147 3294 1340 3103 
Q 1534 2913 2163 2725 
L 2741 2553 
Q 3375 2363 3645 2067 
Q 3916 1772 3916 1275 
Q 3916 597 3481 253 
Q 3047 -91 2188 -91 
Q 1803 -91 1404 -12 
Q 1006 66 594 225 
z
" transform="scale(0.015625)"/>
       <path id="DejaVuSerif-63" d="M 3291 997 
Q 3169 466 2822 187 
Q 2475 -91 1925 -91 
Q 1200 -91 759 389 
Q 319 869 319 1663 
Q 319 2459 759 2936 
Q 1200 3413 1925 3413 
Q 2241 3413 2553 3339 
Q 2866 3266 3181 3116 
L 3181 2266 
L 2847 2266 
Q 2781 2703 2561 2903 
Q 2341 3103 1931 3103 
Q 1466 3103 1228 2742 
Q 991 2381 991 1663 
Q 991 944 1227 581 
Q 1463 219 1931 219 
Q 2303 219 2525 412 
Q 2747 606 2828 997 
L 3291 997 
z
" transform="scale(0.015625)"/>
      </defs>
      <use xlink:href="#DejaVuSerif-54"/>
      <use xlink:href="#DejaVuSerif-61" transform="translate(58.949219 0)"/>
      <use xlink:href="#DejaVuSerif-73" transform="translate(118.568359 0)"/>
      <use xlink:href="#DejaVuSerif-6b" transform="translate(169.886719 0)"/>
      <use xlink:href="#DejaVuSerif-20" transform="translate(230.482422 0)"/>
      <use xlink:href="#DejaVuSerif-43" transform="translate(262.269531 0)"/>
      <use xlink:href="#DejaVuSerif-6f" transform="translate(338.783203 0)"/>
      <use xlink:href="#DejaVuSerif-6d" transform="translate(398.988281 0)"/>
      <use xlink:href="#DejaVuSerif-70" transform="translate(493.8125 0)"/>
      <use xlink:href="#DejaVuSerif-6c" transform="translate(557.826172 0)"/>
      <use xlink:href="#DejaVuSerif-65" transform="translate(589.808594 0)"/>
      <use xlink:href="#DejaVuSerif-74" transform="translate(648.988281 0)"/>
      <use xlink:href="#DejaVuSerif-69" transform="translate(689.173828 0)"/>
      <use xlink:href="#DejaVuSerif-6f" transform="translate(721.15625 0)"/>
      <use xlink:href="#DejaVuSerif-6e" transform="translate(781.361328 0)"/>
      <use xlink:href="#DejaVuSerif-20" transform="translate(845.765625 0)"/>
      <use xlink:href="#DejaVuSerif-53" transform="translate(877.552734 0)"/>
      <use xlink:href="#DejaVuSerif-63" transform="translate(946.058594 0)"/>
      <use xlink:href="#DejaVuSerif-6f" transform="translate(1002.064453 0)"/>
      <use xlink:href="#DejaVuSerif-72" transform="translate(1062.269531 0)"/>
      <use xlink:href="#DejaVuSerif-65" transform="translate(1110.072266 0)"/>
     </g>
    </g>
   </g>
   <g id="patch_3">
    <path d="M 49.175938 222.40185 
L 49.175938 33.90585 
" style="fill: none; stroke: #000000; stroke-width: 0.8; stroke-linejoin: miter; stroke-linecap: square"/>
   </g>
   <g id="patch_4">
    <path d="M 49.175938 222.40185 
L 215.192466 222.40185 
" style="fill: none; stroke: #000000; stroke-width: 0.8; stroke-linejoin: miter; stroke-linecap: square"/>
   </g>
   <g id="patch_5">
    <path d="M 77.635914 222.40185 
L 107.677 222.40185 
L 107.677 78.633714 
L 77.635914 78.633714 
z
" clip-path="url(#p0757e19ff1)" style="fill: #009e73; stroke: #ffffff; stroke-width: 0.8; stroke-linejoin: miter"/>
   </g>
   <g id="patch_6">
    <path d="M 156.691404 222.40185 
L 186.73249 222.40185 
L 186.73249 78.633714 
L 156.691404 78.633714 
z
" clip-path="url(#p0757e19ff1)" style="fill: #009e73; stroke: #ffffff; stroke-width: 0.8; stroke-linejoin: miter"/>
   </g>
   <g id="text_9">
    <!-- 0.90 -->
    <g style="fill: #009e73" transform="translate(81.696848 72.768436) scale(0.09 -0.09)">
     <defs>
      <path id="DejaVuSerif-Bold-30" d="M 2228 275 
Q 2603 275 2742 615 
Q 2881 956 2881 2328 
Q 2881 3691 2742 4037 
Q 2603 4384 2228 4384 
Q 1853 4384 1714 4043 
Q 1575 3703 1575 2328 
Q 1575 956 1714 615 
Q 1853 275 2228 275 
z
M 2228 -91 
Q 1294 -91 797 532 
Q 300 1156 300 2328 
Q 300 3500 797 4125 
Q 1294 4750 2228 4750 
Q 3159 4750 3656 4125 
Q 4153 3500 4153 2328 
Q 4153 1156 3656 532 
Q 3159 -91 2228 -91 
z
" transform="scale(0.015625)"/>
      <path id="DejaVuSerif-Bold-2e" d="M 519 506 
Q 519 750 694 925 
Q 869 1100 1113 1100 
Q 1359 1100 1534 925 
Q 1709 750 1709 506 
Q 1709 259 1534 84 
Q 1359 -91 1113 -91 
Q 869 -91 694 84 
Q 519 259 519 506 
z
" transform="scale(0.015625)"/>
      <path id="DejaVuSerif-Bold-39" d="M 2181 4384 
Q 1859 4384 1723 4111 
Q 1588 3838 1588 3163 
Q 1588 2488 1723 2214 
Q 1859 1941 2181 1941 
Q 2503 1941 2640 2214 
Q 2778 2488 2778 3163 
Q 2778 3838 2640 4111 
Q 2503 4384 2181 4384 
z
M 2878 1900 
Q 2672 1734 2420 1651 
Q 2169 1569 1875 1569 
Q 1163 1569 755 1986 
Q 347 2403 347 3138 
Q 347 3913 803 4331 
Q 1259 4750 2106 4750 
Q 3063 4750 3556 4172 
Q 4050 3594 4050 2478 
Q 4050 1206 3503 557 
Q 2956 -91 1881 -91 
Q 1600 -91 1278 -44 
Q 956 3 588 97 
L 588 922 
L 966 922 
Q 1044 603 1261 439 
Q 1478 275 1825 275 
Q 2375 275 2625 658 
Q 2875 1041 2878 1900 
z
" transform="scale(0.015625)"/>
     </defs>
     <use xlink:href="#DejaVuSerif-Bold-30"/>
     <use xlink:href="#DejaVuSerif-Bold-2e" transform="translate(69.580078 0)"/>
     <use xlink:href="#DejaVuSerif-Bold-39" transform="translate(104.394531 0)"/>
     <use xlink:href="#DejaVuSerif-Bold-30" transform="translate(173.974609 0)"/>
    </g>
   </g>
   <g id="text_10">
    <!-- 0.90 -->
    <g style="fill: #009e73" transform="translate(160.752338 72.768436) scale(0.09 -0.09)">
     <use xlink:href="#DejaVuSerif-Bold-30"/>
     <use xlink:href="#DejaVuSerif-Bold-2e" transform="translate(69.580078 0)"/>
     <use xlink:href="#DejaVuSerif-Bold-39" transform="translate(104.394531 0)"/>
     <use xlink:href="#DejaVuSerif-Bold-30" transform="translate(173.974609 0)"/>
    </g>
   </g>
   <g id="patch_7">
    <path d="M 81.313912 48.282664 
Q 132.18621 48.282664 183.058508 48.282664 
" style="fill: none; stroke: #009e73; stroke-width: 1.5; stroke-linecap: round"/>
    <path d="M 85.313912 50.282664 
L 81.313912 48.282664 
L 85.313912 46.282664 
" style="fill: none; stroke: #009e73; stroke-width: 1.5; stroke-linecap: round"/>
    <path d="M 179.058508 46.282664 
L 183.058508 48.282664 
L 179.058508 50.282664 
" style="fill: none; stroke: #009e73; stroke-width: 1.5; stroke-linecap: round"/>
   </g>
   <g id="text_11">
    <!-- Indistinguishable -->
    <g style="fill: #009e73" transform="translate(92.724202 13.27875) scale(0.08 -0.08)">
     <defs>
      <path id="DejaVuSerif-Bold-49" d="M 300 0 
L 300 378 
L 897 378 
L 897 4288 
L 300 4288 
L 300 4666 
L 2700 4666 
L 2700 4288 
L 2100 4288 
L 2100 378 
L 2700 378 
L 2700 0 
L 300 0 
z
" transform="scale(0.015625)"/>
      <path id="DejaVuSerif-Bold-6e" d="M 219 0 
L 219 378 
L 691 378 
L 691 2944 
L 219 2944 
L 219 3322 
L 1797 3322 
L 1797 2853 
Q 1997 3150 2253 3281 
Q 2509 3413 2900 3413 
Q 3459 3413 3745 3083 
Q 4031 2753 4031 2113 
L 4031 378 
L 4506 378 
L 4506 0 
L 2522 0 
L 2522 378 
L 2925 378 
L 2925 2144 
Q 2925 2566 2817 2730 
Q 2709 2894 2444 2894 
Q 2109 2894 1953 2648 
Q 1797 2403 1797 1869 
L 1797 378 
L 2203 378 
L 2203 0 
L 219 0 
z
" transform="scale(0.015625)"/>
      <path id="DejaVuSerif-Bold-64" d="M 2747 1497 
L 2747 1825 
Q 2747 2406 2597 2665 
Q 2447 2925 2119 2925 
Q 1775 2925 1636 2651 
Q 1497 2378 1497 1663 
Q 1497 947 1637 672 
Q 1778 397 2119 397 
Q 2447 397 2597 656 
Q 2747 916 2747 1497 
z
M 3853 378 
L 4325 378 
L 4325 0 
L 2747 0 
L 2747 422 
Q 2606 163 2367 36 
Q 2128 -91 1778 -91 
Q 1072 -91 667 378 
Q 263 847 263 1663 
Q 263 2481 667 2947 
Q 1072 3413 1778 3413 
Q 2128 3413 2367 3286 
Q 2606 3159 2747 2900 
L 2747 4488 
L 2272 4488 
L 2272 4863 
L 3853 4863 
L 3853 378 
z
" transform="scale(0.015625)"/>
      <path id="DejaVuSerif-Bold-69" d="M 588 4263 
Q 588 4516 763 4689 
Q 938 4863 1191 4863 
Q 1438 4863 1611 4689 
Q 1784 4516 1784 4263 
Q 1784 4016 1611 3842 
Q 1438 3669 1191 3669 
Q 938 3669 763 3841 
Q 588 4013 588 4263 
z
M 1797 378 
L 2272 378 
L 2272 0 
L 219 0 
L 219 378 
L 691 378 
L 691 2944 
L 219 2944 
L 219 3322 
L 1797 3322 
L 1797 378 
z
" transform="scale(0.015625)"/>
      <path id="DejaVuSerif-Bold-73" d="M 300 97 
L 300 1025 
L 653 1025 
Q 697 653 931 458 
Q 1166 263 1569 263 
Q 1906 263 2086 380 
Q 2266 497 2266 716 
Q 2266 916 2152 1025 
Q 2038 1134 1709 1216 
L 1253 1331 
Q 738 1459 506 1698 
Q 275 1938 275 2344 
Q 275 2884 650 3148 
Q 1025 3413 1806 3413 
Q 2100 3413 2433 3364 
Q 2766 3316 3169 3213 
L 3169 2375 
L 2816 2375 
Q 2788 2716 2573 2887 
Q 2359 3059 1959 3059 
Q 1622 3059 1448 2951 
Q 1275 2844 1275 2638 
Q 1275 2469 1375 2372 
Q 1475 2275 1734 2209 
L 2188 2094 
Q 2841 1928 3091 1684 
Q 3341 1441 3341 1006 
Q 3341 444 2939 176 
Q 2538 -91 1691 -91 
Q 1381 -91 1034 -44 
Q 688 3 300 97 
z
" transform="scale(0.015625)"/>
      <path id="DejaVuSerif-Bold-74" d="M 634 2944 
L 153 2944 
L 153 3322 
L 634 3322 
L 634 4353 
L 1741 4353 
L 1741 3322 
L 2663 3322 
L 2663 2944 
L 1741 2944 
L 1741 909 
Q 1741 475 1809 369 
Q 1878 263 2059 263 
Q 2259 263 2356 397 
Q 2453 531 2459 813 
L 2925 813 
Q 2897 313 2651 111 
Q 2406 -91 1806 -91 
Q 1122 -91 878 123 
Q 634 338 634 909 
L 634 2944 
z
" transform="scale(0.015625)"/>
      <path id="DejaVuSerif-Bold-67" d="M 3853 2944 
L 3853 44 
Q 3853 -656 3354 -1039 
Q 2856 -1422 1947 -1422 
Q 1616 -1422 1275 -1370 
Q 934 -1319 575 -1216 
L 575 -422 
L 928 -422 
Q 975 -750 1192 -909 
Q 1409 -1069 1813 -1069 
Q 2325 -1069 2536 -823 
Q 2747 -578 2747 44 
L 2747 422 
Q 2606 163 2367 36 
Q 2128 -91 1778 -91 
Q 1072 -91 667 378 
Q 263 847 263 1663 
Q 263 2481 667 2947 
Q 1072 3413 1778 3413 
Q 2128 3413 2367 3286 
Q 2606 3159 2747 2900 
L 2747 3322 
L 4325 3322 
L 4325 2944 
L 3853 2944 
z
M 2747 1825 
Q 2747 2406 2597 2665 
Q 2447 2925 2119 2925 
Q 1775 2925 1636 2651 
Q 1497 2378 1497 1663 
Q 1497 947 1637 672 
Q 1778 397 2119 397 
Q 2447 397 2597 656 
Q 2747 916 2747 1497 
L 2747 1825 
z
" transform="scale(0.015625)"/>
      <path id="DejaVuSerif-Bold-75" d="M 3963 3322 
L 3963 378 
L 4434 378 
L 4434 0 
L 2853 0 
L 2853 469 
Q 2656 172 2400 40 
Q 2144 -91 1753 -91 
Q 1194 -91 908 239 
Q 622 569 622 1209 
L 622 2944 
L 147 2944 
L 147 3322 
L 1728 3322 
L 1728 1381 
Q 1728 763 1831 595 
Q 1934 428 2209 428 
Q 2544 428 2698 675 
Q 2853 922 2853 1459 
L 2853 2944 
L 2450 2944 
L 2450 3322 
L 3963 3322 
z
" transform="scale(0.015625)"/>
      <path id="DejaVuSerif-Bold-68" d="M 219 0 
L 219 378 
L 691 378 
L 691 4488 
L 197 4488 
L 197 4863 
L 1797 4863 
L 1797 2853 
Q 1997 3150 2253 3281 
Q 2509 3413 2900 3413 
Q 3459 3413 3745 3083 
Q 4031 2753 4031 2113 
L 4031 378 
L 4506 378 
L 4506 0 
L 2522 0 
L 2522 378 
L 2925 378 
L 2925 2144 
Q 2925 2566 2817 2730 
Q 2709 2894 2444 2894 
Q 2109 2894 1953 2648 
Q 1797 2403 1797 1869 
L 1797 378 
L 2203 378 
L 2203 0 
L 219 0 
z
" transform="scale(0.015625)"/>
      <path id="DejaVuSerif-Bold-61" d="M 3525 2041 
L 3525 378 
L 4000 378 
L 4000 0 
L 2419 0 
L 2419 422 
Q 2200 159 1931 34 
Q 1663 -91 1319 -91 
Q 809 -91 536 182 
Q 263 456 263 966 
Q 263 1525 655 1803 
Q 1047 2081 1838 2081 
L 2419 2081 
L 2419 2278 
Q 2419 2681 2228 2873 
Q 2038 3066 1638 3066 
Q 1306 3066 1126 2930 
Q 947 2794 872 2484 
L 519 2484 
L 519 3200 
Q 816 3306 1134 3359 
Q 1453 3413 1806 3413 
Q 2697 3413 3111 3081 
Q 3525 2750 3525 2041 
z
M 2419 1044 
L 2419 1709 
L 2003 1709 
Q 1694 1709 1528 1540 
Q 1363 1372 1363 1056 
Q 1363 741 1483 584 
Q 1603 428 1850 428 
Q 2106 428 2262 597 
Q 2419 766 2419 1044 
z
" transform="scale(0.015625)"/>
      <path id="DejaVuSerif-Bold-62" d="M 622 378 
L 622 4488 
L 147 4488 
L 147 4863 
L 1728 4863 
L 1728 2900 
Q 1869 3159 2106 3286 
Q 2344 3413 2694 3413 
Q 3403 3413 3811 2945 
Q 4219 2478 4219 1663 
Q 4219 847 3811 378 
Q 3403 -91 2694 -91 
Q 2344 -91 2106 36 
Q 1869 163 1728 422 
L 1728 0 
L 147 0 
L 147 378 
L 622 378 
z
M 1728 1497 
Q 1728 916 1876 656 
Q 2025 397 2356 397 
Q 2697 397 2836 672 
Q 2975 947 2975 1663 
Q 2975 2378 2836 2651 
Q 2697 2925 2356 2925 
Q 2025 2925 1876 2665 
Q 1728 2406 1728 1825 
L 1728 1497 
z
" transform="scale(0.015625)"/>
      <path id="DejaVuSerif-Bold-6c" d="M 1797 378 
L 2272 378 
L 2272 0 
L 219 0 
L 219 378 
L 691 378 
L 691 4488 
L 219 4488 
L 219 4863 
L 1797 4863 
L 1797 378 
z
" transform="scale(0.015625)"/>
      <path id="DejaVuSerif-Bold-65" d="M 2566 1875 
Q 2566 2531 2444 2795 
Q 2322 3059 2028 3059 
Q 1744 3059 1620 2800 
Q 1497 2541 1497 1931 
L 1497 1875 
L 2566 1875 
z
M 3781 1503 
L 1497 1503 
L 1497 1478 
Q 1497 834 1690 548 
Q 1884 263 2316 263 
Q 2675 263 2897 453 
Q 3119 644 3181 1006 
L 3700 1006 
Q 3566 441 3166 175 
Q 2766 -91 2047 -91 
Q 1184 -91 723 364 
Q 263 819 263 1663 
Q 263 2488 734 2950 
Q 1206 3413 2047 3413 
Q 2872 3413 3312 2927 
Q 3753 2441 3781 1503 
z
" transform="scale(0.015625)"/>
     </defs>
     <use xlink:href="#DejaVuSerif-Bold-49"/>
     <use xlink:href="#DejaVuSerif-Bold-6e" transform="translate(46.777344 0)"/>
     <use xlink:href="#DejaVuSerif-Bold-64" transform="translate(119.482422 0)"/>
     <use xlink:href="#DejaVuSerif-Bold-69" transform="translate(189.404297 0)"/>
     <use xlink:href="#DejaVuSerif-Bold-73" transform="translate(227.392578 0)"/>
     <use xlink:href="#DejaVuSerif-Bold-74" transform="translate(283.691406 0)"/>
     <use xlink:href="#DejaVuSerif-Bold-69" transform="translate(329.882812 0)"/>
     <use xlink:href="#DejaVuSerif-Bold-6e" transform="translate(367.871094 0)"/>
     <use xlink:href="#DejaVuSerif-Bold-67" transform="translate(440.576172 0)"/>
     <use xlink:href="#DejaVuSerif-Bold-75" transform="translate(510.498047 0)"/>
     <use xlink:href="#DejaVuSerif-Bold-69" transform="translate(583.203125 0)"/>
     <use xlink:href="#DejaVuSerif-Bold-73" transform="translate(621.191406 0)"/>
     <use xlink:href="#DejaVuSerif-Bold-68" transform="translate(677.490234 0)"/>
     <use xlink:href="#DejaVuSerif-Bold-61" transform="translate(750.195312 0)"/>
     <use xlink:href="#DejaVuSerif-Bold-62" transform="translate(814.990234 0)"/>
     <use xlink:href="#DejaVuSerif-Bold-6c" transform="translate(884.912109 0)"/>
     <use xlink:href="#DejaVuSerif-Bold-65" transform="translate(922.900391 0)"/>
    </g>
   </g>
   <g id="text_12">
    <!-- What Completion Sees -->
    <g transform="translate(68.753733 27.90585) scale(0.1 -0.1)">
     <defs>
      <path id="DejaVuSerif-Bold-57" d="M 5453 0 
L 4647 0 
L 3591 3397 
L 2534 0 
L 1728 0 
L 397 4288 
L -56 4288 
L -56 4666 
L 2156 4666 
L 2156 4288 
L 1656 4288 
L 2547 1422 
L 3553 4666 
L 4441 4666 
L 5466 1369 
L 6375 4288 
L 5819 4288 
L 5819 4666 
L 7263 4666 
L 7263 4288 
L 6784 4288 
L 5453 0 
z
" transform="scale(0.015625)"/>
      <path id="DejaVuSerif-Bold-20" transform="scale(0.015625)"/>
      <path id="DejaVuSerif-Bold-43" d="M 4769 1331 
Q 4584 609 4106 259 
Q 3628 -91 2822 -91 
Q 1641 -91 955 561 
Q 269 1213 269 2328 
Q 269 3447 955 4098 
Q 1641 4750 2822 4750 
Q 3238 4750 3688 4650 
Q 4138 4550 4641 4347 
L 4641 3200 
L 4244 3200 
Q 4122 3788 3800 4080 
Q 3478 4372 2950 4372 
Q 2269 4372 1937 3870 
Q 1606 3369 1606 2328 
Q 1606 1288 1937 788 
Q 2269 288 2956 288 
Q 3422 288 3717 547 
Q 4013 806 4147 1331 
L 4769 1331 
z
" transform="scale(0.015625)"/>
      <path id="DejaVuSerif-Bold-6f" d="M 2138 263 
Q 2488 263 2630 563 
Q 2772 863 2772 1663 
Q 2772 2463 2631 2761 
Q 2491 3059 2138 3059 
Q 1784 3059 1640 2757 
Q 1497 2456 1497 1663 
Q 1497 869 1640 566 
Q 1784 263 2138 263 
z
M 2138 -91 
Q 1259 -91 761 376 
Q 263 844 263 1663 
Q 263 2484 761 2948 
Q 1259 3413 2138 3413 
Q 3019 3413 3516 2948 
Q 4013 2484 4013 1663 
Q 4013 844 3514 376 
Q 3016 -91 2138 -91 
z
" transform="scale(0.015625)"/>
      <path id="DejaVuSerif-Bold-6d" d="M 3884 2778 
Q 4116 3109 4384 3261 
Q 4653 3413 5013 3413 
Q 5584 3413 5867 3089 
Q 6150 2766 6150 2113 
L 6150 378 
L 6625 378 
L 6625 0 
L 4647 0 
L 4647 378 
L 5044 378 
L 5044 1947 
Q 5044 2569 4948 2731 
Q 4853 2894 4594 2894 
Q 4300 2894 4137 2667 
Q 3975 2441 3975 2022 
L 3975 378 
L 4372 378 
L 4372 0 
L 2472 0 
L 2472 378 
L 2869 378 
L 2869 1947 
Q 2869 2569 2772 2731 
Q 2675 2894 2419 2894 
Q 2122 2894 1959 2667 
Q 1797 2441 1797 2022 
L 1797 378 
L 2194 378 
L 2194 0 
L 219 0 
L 219 378 
L 691 378 
L 691 2944 
L 219 2944 
L 219 3322 
L 1797 3322 
L 1797 2853 
Q 1991 3144 2241 3278 
Q 2491 3413 2834 3413 
Q 3241 3413 3494 3258 
Q 3747 3103 3884 2778 
z
" transform="scale(0.015625)"/>
      <path id="DejaVuSerif-Bold-70" d="M 1728 1825 
L 1728 1497 
Q 1728 916 1876 656 
Q 2025 397 2356 397 
Q 2697 397 2836 672 
Q 2975 947 2975 1663 
Q 2975 2378 2836 2651 
Q 2697 2925 2356 2925 
Q 2025 2925 1876 2665 
Q 1728 2406 1728 1825 
z
M 622 2944 
L 147 2944 
L 147 3322 
L 1728 3322 
L 1728 2900 
Q 1869 3159 2106 3286 
Q 2344 3413 2694 3413 
Q 3403 3413 3811 2945 
Q 4219 2478 4219 1663 
Q 4219 847 3811 378 
Q 3403 -91 2694 -91 
Q 2344 -91 2106 36 
Q 1869 163 1728 422 
L 1728 -953 
L 2241 -953 
L 2241 -1331 
L 147 -1331 
L 147 -953 
L 622 -953 
L 622 2944 
z
" transform="scale(0.015625)"/>
      <path id="DejaVuSerif-Bold-53" d="M 494 225 
L 494 1331 
L 891 1331 
Q 981 806 1318 547 
Q 1656 288 2253 288 
Q 2738 288 2991 472 
Q 3244 656 3244 1013 
Q 3244 1294 3072 1450 
Q 2900 1606 2363 1741 
L 1663 1913 
Q 978 2088 700 2398 
Q 422 2709 422 3284 
Q 422 3978 883 4364 
Q 1344 4750 2175 4750 
Q 2584 4750 3026 4681 
Q 3469 4613 3944 4475 
L 3944 3444 
L 3547 3444 
Q 3456 3925 3150 4148 
Q 2844 4372 2278 4372 
Q 1816 4372 1580 4211 
Q 1344 4050 1344 3731 
Q 1344 3441 1506 3289 
Q 1669 3138 2303 2975 
L 3003 2803 
Q 3653 2641 3945 2297 
Q 4238 1953 4238 1350 
Q 4238 644 3750 276 
Q 3263 -91 2316 -91 
Q 1859 -91 1409 -12 
Q 959 66 494 225 
z
" transform="scale(0.015625)"/>
     </defs>
     <use xlink:href="#DejaVuSerif-Bold-57"/>
     <use xlink:href="#DejaVuSerif-Bold-68" transform="translate(112.304688 0)"/>
     <use xlink:href="#DejaVuSerif-Bold-61" transform="translate(185.009766 0)"/>
     <use xlink:href="#DejaVuSerif-Bold-74" transform="translate(249.804688 0)"/>
     <use xlink:href="#DejaVuSerif-Bold-20" transform="translate(295.996094 0)"/>
     <use xlink:href="#DejaVuSerif-Bold-43" transform="translate(330.810547 0)"/>
     <use xlink:href="#DejaVuSerif-Bold-6f" transform="translate(410.400391 0)"/>
     <use xlink:href="#DejaVuSerif-Bold-6d" transform="translate(477.099609 0)"/>
     <use xlink:href="#DejaVuSerif-Bold-70" transform="translate(582.910156 0)"/>
     <use xlink:href="#DejaVuSerif-Bold-6c" transform="translate(652.832031 0)"/>
     <use xlink:href="#DejaVuSerif-Bold-65" transform="translate(690.820312 0)"/>
     <use xlink:href="#DejaVuSerif-Bold-74" transform="translate(754.443359 0)"/>
     <use xlink:href="#DejaVuSerif-Bold-69" transform="translate(800.634766 0)"/>
     <use xlink:href="#DejaVuSerif-Bold-6f" transform="translate(838.623047 0)"/>
     <use xlink:href="#DejaVuSerif-Bold-6e" transform="translate(905.322266 0)"/>
     <use xlink:href="#DejaVuSerif-Bold-20" transform="translate(978.027344 0)"/>
     <use xlink:href="#DejaVuSerif-Bold-53" transform="translate(1012.841797 0)"/>
     <use xlink:href="#DejaVuSerif-Bold-65" transform="translate(1085.058594 0)"/>
     <use xlink:href="#DejaVuSerif-Bold-65" transform="translate(1148.681641 0)"/>
     <use xlink:href="#DejaVuSerif-Bold-73" transform="translate(1212.304688 0)"/>
    </g>
   </g>
  </g>
  <g id="axes_2">
   <g id="patch_8">
    <path d="M 284.919409 222.40185 
L 450.935938 222.40185 
L 450.935938 33.90585 
L 284.919409 33.90585 
z
" style="fill: #ffffff"/>
   </g>
   <g id="matplotlib.axis_3">
    <g id="xtick_3">
     <g id="line2d_8">
      <g>
       <use xlink:href="#me98ba35152" x="328.399928" y="222.40185" style="stroke: #000000; stroke-width: 0.8"/>
      </g>
     </g>
     <g id="text_13">
      <!-- deepseek-r1 -->
      <g transform="translate(302.043287 235.860522) scale(0.085 -0.085)">
       <use xlink:href="#DejaVuSerif-64"/>
       <use xlink:href="#DejaVuSerif-65" transform="translate(64.013672 0)"/>
       <use xlink:href="#DejaVuSerif-65" transform="translate(123.193359 0)"/>
       <use xlink:href="#DejaVuSerif-70" transform="translate(182.373047 0)"/>
       <use xlink:href="#DejaVuSerif-73" transform="translate(246.386719 0)"/>
       <use xlink:href="#DejaVuSerif-65" transform="translate(297.705078 0)"/>
       <use xlink:href="#DejaVuSerif-65" transform="translate(356.884766 0)"/>
       <use xlink:href="#DejaVuSerif-6b" transform="translate(416.064453 0)"/>
       <use xlink:href="#DejaVuSerif-2d" transform="translate(474.910156 0)"/>
       <use xlink:href="#DejaVuSerif-72" transform="translate(508.699219 0)"/>
       <use xlink:href="#DejaVuSerif-31" transform="translate(556.501953 0)"/>
      </g>
      <!-- :14b -->
      <g transform="translate(318.83942 245.378662) scale(0.085 -0.085)">
       <use xlink:href="#DejaVuSerif-3a"/>
       <use xlink:href="#DejaVuSerif-31" transform="translate(33.691406 0)"/>
       <use xlink:href="#DejaVuSerif-34" transform="translate(97.314453 0)"/>
       <use xlink:href="#DejaVuSerif-62" transform="translate(160.9375 0)"/>
      </g>
     </g>
    </g>
    <g id="xtick_4">
     <g id="line2d_9">
      <g>
       <use xlink:href="#me98ba35152" x="407.455418" y="222.40185" style="stroke: #000000; stroke-width: 0.8"/>
      </g>
     </g>
     <g id="text_14">
      <!-- mixtral -->
      <g transform="translate(392.036551 235.860522) scale(0.085 -0.085)">
       <use xlink:href="#DejaVuSerif-6d"/>
       <use xlink:href="#DejaVuSerif-69" transform="translate(94.824219 0)"/>
       <use xlink:href="#DejaVuSerif-78" transform="translate(126.806641 0)"/>
       <use xlink:href="#DejaVuSerif-74" transform="translate(183.203125 0)"/>
       <use xlink:href="#DejaVuSerif-72" transform="translate(223.388672 0)"/>
       <use xlink:href="#DejaVuSerif-61" transform="translate(271.191406 0)"/>
       <use xlink:href="#DejaVuSerif-6c" transform="translate(330.810547 0)"/>
      </g>
      <!-- :8x7b -->
      <g transform="translate(395.498309 245.378662) scale(0.085 -0.085)">
       <use xlink:href="#DejaVuSerif-3a"/>
       <use xlink:href="#DejaVuSerif-38" transform="translate(33.691406 0)"/>
       <use xlink:href="#DejaVuSerif-78" transform="translate(97.314453 0)"/>
       <use xlink:href="#DejaVuSerif-37" transform="translate(153.710938 0)"/>
       <use xlink:href="#DejaVuSerif-62" transform="translate(217.333984 0)"/>
      </g>
     </g>
    </g>
   </g>
   <g id="matplotlib.axis_4">
    <g id="ytick_6">
     <g id="line2d_10">
      <g>
       <use xlink:href="#m60be4d4de4" x="284.919409" y="222.40185" style="stroke: #000000; stroke-width: 0.8"/>
      </g>
     </g>
     <g id="text_15">
      <!-- 0.00 -->
      <g transform="translate(255.653784 226.201069) scale(0.1 -0.1)">
       <use xlink:href="#DejaVuSerif-30"/>
       <use xlink:href="#DejaVuSerif-2e" transform="translate(63.623047 0)"/>
       <use xlink:href="#DejaVuSerif-30" transform="translate(95.410156 0)"/>
       <use xlink:href="#DejaVuSerif-30" transform="translate(159.033203 0)"/>
      </g>
     </g>
    </g>
    <g id="ytick_7">
     <g id="line2d_11">
      <g>
       <use xlink:href="#m60be4d4de4" x="284.919409" y="182.466257" style="stroke: #000000; stroke-width: 0.8"/>
      </g>
     </g>
     <g id="text_16">
      <!-- 0.25 -->
      <g transform="translate(255.653784 186.265476) scale(0.1 -0.1)">
       <use xlink:href="#DejaVuSerif-30"/>
       <use xlink:href="#DejaVuSerif-2e" transform="translate(63.623047 0)"/>
       <use xlink:href="#DejaVuSerif-32" transform="translate(95.410156 0)"/>
       <use xlink:href="#DejaVuSerif-35" transform="translate(159.033203 0)"/>
      </g>
     </g>
    </g>
    <g id="ytick_8">
     <g id="line2d_12">
      <g>
       <use xlink:href="#m60be4d4de4" x="284.919409" y="142.530664" style="stroke: #000000; stroke-width: 0.8"/>
      </g>
     </g>
     <g id="text_17">
      <!-- 0.50 -->
      <g transform="translate(255.653784 146.329882) scale(0.1 -0.1)">
       <use xlink:href="#DejaVuSerif-30"/>
       <use xlink:href="#DejaVuSerif-2e" transform="translate(63.623047 0)"/>
       <use xlink:href="#DejaVuSerif-35" transform="translate(95.410156 0)"/>
       <use xlink:href="#DejaVuSerif-30" transform="translate(159.033203 0)"/>
      </g>
     </g>
    </g>
    <g id="ytick_9">
     <g id="line2d_13">
      <g>
       <use xlink:href="#m60be4d4de4" x="284.919409" y="102.59507" style="stroke: #000000; stroke-width: 0.8"/>
      </g>
     </g>
     <g id="text_18">
      <!-- 0.75 -->
      <g transform="translate(255.653784 106.394289) scale(0.1 -0.1)">
       <use xlink:href="#DejaVuSerif-30"/>
       <use xlink:href="#DejaVuSerif-2e" transform="translate(63.623047 0)"/>
       <use xlink:href="#DejaVuSerif-37" transform="translate(95.410156 0)"/>
       <use xlink:href="#DejaVuSerif-35" transform="translate(159.033203 0)"/>
      </g>
     </g>
    </g>
    <g id="ytick_10">
     <g id="line2d_14">
      <g>
       <use xlink:href="#m60be4d4de4" x="284.919409" y="62.659477" style="stroke: #000000; stroke-width: 0.8"/>
      </g>
     </g>
     <g id="text_19">
      <!-- 1.00 -->
      <g transform="translate(255.653784 66.458696) scale(0.1 -0.1)">
       <use xlink:href="#DejaVuSerif-31"/>
       <use xlink:href="#DejaVuSerif-2e" transform="translate(63.623047 0)"/>
       <use xlink:href="#DejaVuSerif-30" transform="translate(95.410156 0)"/>
       <use xlink:href="#DejaVuSerif-30" transform="translate(159.033203 0)"/>
      </g>
     </g>
    </g>
    <g id="text_20">
     <!-- WMF-AM Score -->
     <g transform="translate(249.782065 164.241037) rotate(-90) scale(0.09 -0.09)">
      <defs>
       <path id="DejaVuSerif-57" d="M 4878 0 
L 4366 0 
L 3297 3794 
L 2228 0 
L 1716 0 
L 494 4331 
L 31 4331 
L 31 4666 
L 1734 4666 
L 1734 4331 
L 1153 4331 
L 2125 884 
L 3188 4666 
L 3694 4666 
L 4775 844 
L 5753 4331 
L 5216 4331 
L 5216 4666 
L 6559 4666 
L 6559 4331 
L 6100 4331 
L 4878 0 
z
" transform="scale(0.015625)"/>
       <path id="DejaVuSerif-4d" d="M 353 0 
L 353 331 
L 947 331 
L 947 4331 
L 319 4331 
L 319 4666 
L 1678 4666 
L 3316 1344 
L 4953 4666 
L 6228 4666 
L 6228 4331 
L 5606 4331 
L 5606 331 
L 6203 331 
L 6203 0 
L 4378 0 
L 4378 331 
L 4972 331 
L 4972 3938 
L 3372 684 
L 2931 684 
L 1331 3938 
L 1331 331 
L 1925 331 
L 1925 0 
L 353 0 
z
" transform="scale(0.015625)"/>
       <path id="DejaVuSerif-46" d="M 353 0 
L 353 331 
L 947 331 
L 947 4331 
L 353 4331 
L 353 4666 
L 4172 4666 
L 4172 3628 
L 3788 3628 
L 3788 4281 
L 1581 4281 
L 1581 2719 
L 3175 2719 
L 3175 3303 
L 3559 3303 
L 3559 1753 
L 3175 1753 
L 3175 2338 
L 1581 2338 
L 1581 331 
L 2328 331 
L 2328 0 
L 353 0 
z
" transform="scale(0.015625)"/>
       <path id="DejaVuSerif-41" d="M 1281 1691 
L 2994 1691 
L 2138 3909 
L 1281 1691 
z
M -38 0 
L -38 331 
L 372 331 
L 2034 4666 
L 2559 4666 
L 4225 331 
L 4684 331 
L 4684 0 
L 2988 0 
L 2988 331 
L 3506 331 
L 3116 1356 
L 1153 1356 
L 763 331 
L 1275 331 
L 1275 0 
L -38 0 
z
" transform="scale(0.015625)"/>
      </defs>
      <use xlink:href="#DejaVuSerif-57"/>
      <use xlink:href="#DejaVuSerif-4d" transform="translate(102.783203 0)"/>
      <use xlink:href="#DejaVuSerif-46" transform="translate(205.175781 0)"/>
      <use xlink:href="#DejaVuSerif-2d" transform="translate(270.060547 0)"/>
      <use xlink:href="#DejaVuSerif-41" transform="translate(303.849609 0)"/>
      <use xlink:href="#DejaVuSerif-4d" transform="translate(376.066406 0)"/>
      <use xlink:href="#DejaVuSerif-20" transform="translate(478.458984 0)"/>
      <use xlink:href="#DejaVuSerif-53" transform="translate(510.246094 0)"/>
      <use xlink:href="#DejaVuSerif-63" transform="translate(578.751953 0)"/>
      <use xlink:href="#DejaVuSerif-6f" transform="translate(634.757812 0)"/>
      <use xlink:href="#DejaVuSerif-72" transform="translate(694.962891 0)"/>
      <use xlink:href="#DejaVuSerif-65" transform="translate(742.765625 0)"/>
     </g>
    </g>
   </g>
   <g id="patch_9">
    <path d="M 284.919409 222.40185 
L 284.919409 33.90585 
" style="fill: none; stroke: #000000; stroke-width: 0.8; stroke-linejoin: miter; stroke-linecap: square"/>
   </g>
   <g id="patch_10">
    <path d="M 284.919409 222.40185 
L 450.935938 222.40185 
" style="fill: none; stroke: #000000; stroke-width: 0.8; stroke-linejoin: miter; stroke-linecap: square"/>
   </g>
   <g id="patch_11">
    <path d="M 313.379385 222.40185 
L 343.420471 222.40185 
L 343.420471 65.375097 
L 313.379385 65.375097 
z
" clip-path="url(#pe1d996d6fd)" style="fill: #0072b2; stroke: #ffffff; stroke-width: 0.8; stroke-linejoin: miter"/>
   </g>
   <g id="patch_12">
    <path d="M 392.434875 222.40185 
L 422.475961 222.40185 
L 422.475961 174.479138 
L 392.434875 174.479138 
z
" clip-path="url(#pe1d996d6fd)" style="fill: #d55e00; stroke: #ffffff; stroke-width: 0.8; stroke-linejoin: miter"/>
   </g>
   <g id="text_21">
    <!-- 0.983 -->
    <g style="fill: #0072b2" transform="translate(314.309303 59.509819) scale(0.09 -0.09)">
     <defs>
      <path id="DejaVuSerif-Bold-38" d="M 2975 2484 
Q 3531 2394 3820 2075 
Q 4109 1756 4109 1241 
Q 4109 597 3623 253 
Q 3138 -91 2222 -91 
Q 1306 -91 818 253 
Q 331 597 331 1241 
Q 331 1756 622 2075 
Q 913 2394 1466 2484 
Q 975 2597 731 2861 
Q 488 3125 488 3531 
Q 488 4125 931 4437 
Q 1375 4750 2222 4750 
Q 3066 4750 3511 4437 
Q 3956 4125 3956 3531 
Q 3956 3125 3711 2861 
Q 3466 2597 2975 2484 
z
M 2747 3519 
Q 2747 4013 2628 4198 
Q 2509 4384 2222 4384 
Q 1931 4384 1814 4198 
Q 1697 4013 1697 3519 
Q 1697 3028 1814 2845 
Q 1931 2663 2222 2663 
Q 2513 2663 2630 2845 
Q 2747 3028 2747 3519 
z
M 2869 1294 
Q 2869 1866 2723 2081 
Q 2578 2297 2222 2297 
Q 1863 2297 1719 2081 
Q 1575 1866 1575 1294 
Q 1575 716 1720 495 
Q 1866 275 2222 275 
Q 2575 275 2722 495 
Q 2869 716 2869 1294 
z
" transform="scale(0.015625)"/>
      <path id="DejaVuSerif-Bold-33" d="M 550 4531 
Q 963 4641 1350 4695 
Q 1738 4750 2106 4750 
Q 2950 4750 3401 4448 
Q 3853 4147 3853 3584 
Q 3853 3163 3593 2900 
Q 3334 2638 2834 2547 
Q 3444 2450 3744 2131 
Q 4044 1813 4044 1259 
Q 4044 606 3526 257 
Q 3009 -91 2028 -91 
Q 1659 -91 1267 -28 
Q 875 34 447 159 
L 447 1184 
L 825 1184 
Q 859 741 1103 508 
Q 1347 275 1778 275 
Q 2253 275 2512 539 
Q 2772 803 2772 1288 
Q 2772 1794 2501 2069 
Q 2231 2344 1734 2344 
L 1528 2344 
L 1528 2719 
L 1691 2719 
Q 2150 2719 2381 2931 
Q 2613 3144 2613 3566 
Q 2613 3963 2395 4173 
Q 2178 4384 1772 4384 
Q 1403 4384 1187 4182 
Q 972 3981 928 3597 
L 550 3597 
L 550 4531 
z
" transform="scale(0.015625)"/>
     </defs>
     <use xlink:href="#DejaVuSerif-Bold-30"/>
     <use xlink:href="#DejaVuSerif-Bold-2e" transform="translate(69.580078 0)"/>
     <use xlink:href="#DejaVuSerif-Bold-39" transform="translate(104.394531 0)"/>
     <use xlink:href="#DejaVuSerif-Bold-38" transform="translate(173.974609 0)"/>
     <use xlink:href="#DejaVuSerif-Bold-33" transform="translate(243.554688 0)"/>
    </g>
   </g>
   <g id="text_22">
    <!-- 0.300 -->
    <g style="fill: #d55e00" transform="translate(393.364793 168.61386) scale(0.09 -0.09)">
     <use xlink:href="#DejaVuSerif-Bold-30"/>
     <use xlink:href="#DejaVuSerif-Bold-2e" transform="translate(69.580078 0)"/>
     <use xlink:href="#DejaVuSerif-Bold-33" transform="translate(104.394531 0)"/>
     <use xlink:href="#DejaVuSerif-Bold-30" transform="translate(173.974609 0)"/>
     <use xlink:href="#DejaVuSerif-Bold-30" transform="translate(243.554688 0)"/>
    </g>
   </g>
   <g id="patch_13">
    <path d="M 420.382626 171.590138 
Q 382.946615 119.924909 345.510604 68.259679 
" style="fill: none; stroke: #777777; stroke-width: 1.4; stroke-linecap: round"/>
    <path d="M 419.655168 167.177565 
L 420.382626 171.590138 
L 416.416093 169.524561 
" style="fill: none; stroke: #777777; stroke-width: 1.4; stroke-linecap: round"/>
    <path d="M 346.238062 72.672252 
L 345.510604 68.259679 
L 349.477138 70.325257 
" style="fill: none; stroke: #777777; stroke-width: 1.4; stroke-linecap: round"/>
   </g>
   <g id="text_23">
    <!-- $\Delta = 0.683$ -->
    <g style="fill: #777777" transform="translate(398.759314 122.272587) scale(0.085 -0.085)">
     <defs>
      <path id="DejaVuSans-394" d="M 2188 4044 
L 906 525 
L 3472 525 
L 2188 4044 
z
M 50 0 
L 1831 4666 
L 2547 4666 
L 4325 0 
L 50 0 
z
" transform="scale(0.015625)"/>
      <path id="DejaVuSans-3d" d="M 678 2906 
L 4684 2906 
L 4684 2381 
L 678 2381 
L 678 2906 
z
M 678 1631 
L 4684 1631 
L 4684 1100 
L 678 1100 
L 678 1631 
z
" transform="scale(0.015625)"/>
      <path id="DejaVuSans-30" d="M 2034 4250 
Q 1547 4250 1301 3770 
Q 1056 3291 1056 2328 
Q 1056 1369 1301 889 
Q 1547 409 2034 409 
Q 2525 409 2770 889 
Q 3016 1369 3016 2328 
Q 3016 3291 2770 3770 
Q 2525 4250 2034 4250 
z
M 2034 4750 
Q 2819 4750 3233 4129 
Q 3647 3509 3647 2328 
Q 3647 1150 3233 529 
Q 2819 -91 2034 -91 
Q 1250 -91 836 529 
Q 422 1150 422 2328 
Q 422 3509 836 4129 
Q 1250 4750 2034 4750 
z
" transform="scale(0.015625)"/>
      <path id="DejaVuSans-2e" d="M 684 794 
L 1344 794 
L 1344 0 
L 684 0 
L 684 794 
z
" transform="scale(0.015625)"/>
      <path id="DejaVuSans-36" d="M 2113 2584 
Q 1688 2584 1439 2293 
Q 1191 2003 1191 1497 
Q 1191 994 1439 701 
Q 1688 409 2113 409 
Q 2538 409 2786 701 
Q 3034 994 3034 1497 
Q 3034 2003 2786 2293 
Q 2538 2584 2113 2584 
z
M 3366 4563 
L 3366 3988 
Q 3128 4100 2886 4159 
Q 2644 4219 2406 4219 
Q 1781 4219 1451 3797 
Q 1122 3375 1075 2522 
Q 1259 2794 1537 2939 
Q 1816 3084 2150 3084 
Q 2853 3084 3261 2657 
Q 3669 2231 3669 1497 
Q 3669 778 3244 343 
Q 2819 -91 2113 -91 
Q 1303 -91 875 529 
Q 447 1150 447 2328 
Q 447 3434 972 4092 
Q 1497 4750 2381 4750 
Q 2619 4750 2861 4703 
Q 3103 4656 3366 4563 
z
" transform="scale(0.015625)"/>
      <path id="DejaVuSans-38" d="M 2034 2216 
Q 1584 2216 1326 1975 
Q 1069 1734 1069 1313 
Q 1069 891 1326 650 
Q 1584 409 2034 409 
Q 2484 409 2743 651 
Q 3003 894 3003 1313 
Q 3003 1734 2745 1975 
Q 2488 2216 2034 2216 
z
M 1403 2484 
Q 997 2584 770 2862 
Q 544 3141 544 3541 
Q 544 4100 942 4425 
Q 1341 4750 2034 4750 
Q 2731 4750 3128 4425 
Q 3525 4100 3525 3541 
Q 3525 3141 3298 2862 
Q 3072 2584 2669 2484 
Q 3125 2378 3379 2068 
Q 3634 1759 3634 1313 
Q 3634 634 3220 271 
Q 2806 -91 2034 -91 
Q 1263 -91 848 271 
Q 434 634 434 1313 
Q 434 1759 690 2068 
Q 947 2378 1403 2484 
z
M 1172 3481 
Q 1172 3119 1398 2916 
Q 1625 2713 2034 2713 
Q 2441 2713 2670 2916 
Q 2900 3119 2900 3481 
Q 2900 3844 2670 4047 
Q 2441 4250 2034 4250 
Q 1625 4250 1398 4047 
Q 1172 3844 1172 3481 
z
" transform="scale(0.015625)"/>
      <path id="DejaVuSans-33" d="M 2597 2516 
Q 3050 2419 3304 2112 
Q 3559 1806 3559 1356 
Q 3559 666 3084 287 
Q 2609 -91 1734 -91 
Q 1441 -91 1130 -33 
Q 819 25 488 141 
L 488 750 
Q 750 597 1062 519 
Q 1375 441 1716 441 
Q 2309 441 2620 675 
Q 2931 909 2931 1356 
Q 2931 1769 2642 2001 
Q 2353 2234 1838 2234 
L 1294 2234 
L 1294 2753 
L 1863 2753 
Q 2328 2753 2575 2939 
Q 2822 3125 2822 3475 
Q 2822 3834 2567 4026 
Q 2313 4219 1838 4219 
Q 1578 4219 1281 4162 
Q 984 4106 628 3988 
L 628 4550 
Q 988 4650 1302 4700 
Q 1616 4750 1894 4750 
Q 2613 4750 3031 4423 
Q 3450 4097 3450 3541 
Q 3450 3153 3228 2886 
Q 3006 2619 2597 2516 
z
" transform="scale(0.015625)"/>
     </defs>
     <use xlink:href="#DejaVuSans-394" transform="translate(0 0.78125)"/>
     <use xlink:href="#DejaVuSans-3d" transform="translate(87.890625 0.78125)"/>
     <use xlink:href="#DejaVuSans-30" transform="translate(191.162109 0.78125)"/>
     <use xlink:href="#DejaVuSans-2e" transform="translate(254.785156 0.78125)"/>
     <use xlink:href="#DejaVuSans-36" transform="translate(286.572266 0.78125)"/>
     <use xlink:href="#DejaVuSans-38" transform="translate(350.195312 0.78125)"/>
     <use xlink:href="#DejaVuSans-33" transform="translate(413.818359 0.78125)"/>
    </g>
   </g>
   <g id="text_24">
    <!-- Genuine -->
    <g style="fill: #ffffff" transform="translate(310.821803 137.506325) scale(0.075 -0.075)">
     <defs>
      <path id="DejaVuSerif-BoldItalic-47" d="M 4572 3200 
Q 4553 3819 4278 4095 
Q 4003 4372 3406 4372 
Q 2681 4372 2247 3880 
Q 1813 3388 1606 2328 
Q 1403 1278 1631 783 
Q 1859 288 2547 288 
Q 2809 288 3045 347 
Q 3281 406 3491 525 
L 3738 1806 
L 3175 1806 
L 3250 2181 
L 4931 2181 
L 4581 391 
Q 4009 147 3462 28 
Q 2916 -91 2369 -91 
Q 1169 -91 609 556 
Q 50 1203 269 2328 
Q 488 3456 1300 4103 
Q 2113 4750 3313 4750 
Q 3813 4750 4277 4650 
Q 4741 4550 5191 4347 
L 4969 3200 
L 4572 3200 
z
" transform="scale(0.015625)"/>
      <path id="DejaVuSerif-BoldItalic-65" d="M 2688 2600 
Q 2688 3059 2300 3059 
Q 2003 3059 1828 2779 
Q 1653 2500 1494 1622 
Q 1494 1622 1563 1622 
Q 2519 1622 2666 2381 
Q 2688 2500 2688 2600 
z
M 1419 1250 
Q 1400 1144 1400 922 
Q 1403 263 2044 263 
Q 2403 263 2662 453 
Q 2922 644 3053 1006 
L 3572 1006 
Q 3328 441 2876 175 
Q 2425 -91 1706 -91 
Q 844 -91 472 363 
Q 213 681 213 1184 
Q 213 1400 263 1653 
Q 422 2488 984 2950 
Q 1547 3413 2372 3413 
Q 2969 3413 3383 3180 
Q 3797 2947 3797 2525 
Q 3797 2441 3778 2350 
Q 3581 1338 1419 1250 
z
" transform="scale(0.015625)"/>
      <path id="DejaVuSerif-BoldItalic-6e" d="M 359 0 
L 931 2944 
L 459 2944 
L 531 3322 
L 2109 3322 
L 2019 2853 
Q 2278 3150 2559 3281 
Q 2841 3413 3231 3413 
Q 3791 3413 4013 3081 
Q 4156 2872 4156 2534 
Q 4156 2344 4109 2113 
L 3772 378 
L 4247 378 
L 4175 0 
L 2594 0 
L 3009 2144 
Q 3053 2363 3053 2513 
Q 3053 2650 3016 2731 
Q 2941 2894 2675 2894 
Q 2341 2894 2136 2648 
Q 1931 2403 1828 1869 
L 1466 0 
L 359 0 
z
" transform="scale(0.015625)"/>
      <path id="DejaVuSerif-BoldItalic-75" d="M 4294 3322 
L 3722 378 
L 4194 378 
L 4122 0 
L 2541 0 
L 2631 469 
Q 2375 172 2094 40 
Q 1813 -91 1422 -91 
Q 863 -91 641 238 
Q 497 450 497 788 
Q 497 978 544 1209 
L 881 2944 
L 406 2944 
L 478 3322 
L 2059 3322 
L 1681 1381 
Q 1606 991 1606 781 
Q 1606 656 1634 594 
Q 1703 428 1978 428 
Q 2313 428 2516 675 
Q 2719 922 2822 1459 
L 3184 3322 
L 4294 3322 
z
" transform="scale(0.015625)"/>
      <path id="DejaVuSerif-BoldItalic-69" d="M 944 4263 
Q 994 4516 1201 4689 
Q 1409 4863 1663 4863 
Q 1909 4863 2050 4688 
Q 2153 4559 2153 4388 
Q 2153 4328 2141 4263 
Q 2094 4016 1886 3842 
Q 1678 3669 1431 3669 
Q 1178 3669 1038 3841 
Q 931 3969 931 4141 
Q 931 4200 944 4263 
z
M 1397 378 
L 1872 378 
L 1800 0 
L 219 0 
L 791 2944 
L 319 2944 
L 391 3322 
L 1969 3322 
L 1397 378 
z
" transform="scale(0.015625)"/>
     </defs>
     <use xlink:href="#DejaVuSerif-BoldItalic-47"/>
     <use xlink:href="#DejaVuSerif-BoldItalic-65" transform="translate(85.400391 0)"/>
     <use xlink:href="#DejaVuSerif-BoldItalic-6e" transform="translate(149.023438 0)"/>
     <use xlink:href="#DejaVuSerif-BoldItalic-75" transform="translate(221.728516 0)"/>
     <use xlink:href="#DejaVuSerif-BoldItalic-69" transform="translate(294.433594 0)"/>
     <use xlink:href="#DejaVuSerif-BoldItalic-6e" transform="translate(332.421875 0)"/>
     <use xlink:href="#DejaVuSerif-BoldItalic-65" transform="translate(405.126953 0)"/>
    </g>
    <!-- state -->
    <g style="fill: #ffffff" transform="translate(318.008912 145.904685) scale(0.075 -0.075)">
     <defs>
      <path id="DejaVuSerif-BoldItalic-73" d="M 175 1025 
L 528 1025 
Q 525 978 525 934 
Q 525 628 709 445 
Q 894 263 1266 263 
Q 1994 263 2081 716 
Q 2094 775 2094 863 
Q 2094 947 2014 1040 
Q 1934 1134 1622 1216 
L 1188 1331 
Q 697 1459 540 1662 
Q 384 1866 384 2116 
Q 384 2222 406 2344 
Q 513 2884 939 3148 
Q 1366 3413 2047 3413 
Q 2728 3413 3472 3213 
L 3306 2375 
L 2953 2375 
Q 2963 2434 2963 2488 
Q 2963 3059 2256 3059 
Q 1547 3059 1466 2638 
Q 1456 2588 1456 2516 
Q 1456 2313 1841 2209 
L 2272 2094 
Q 2894 1928 3066 1720 
Q 3238 1513 3238 1244 
Q 3238 1134 3213 1006 
Q 3103 444 2650 176 
Q 2197 -91 1350 -91 
Q 734 -91 -3 97 
L 175 1025 
z
" transform="scale(0.015625)"/>
      <path id="DejaVuSerif-BoldItalic-74" d="M 794 2944 
L 313 2944 
L 384 3322 
L 866 3322 
L 1066 4353 
L 2172 4353 
L 1972 3322 
L 2894 3322 
L 2822 2944 
L 1900 2944 
L 1503 909 
Q 1450 631 1450 491 
Q 1450 406 1466 369 
Q 1516 263 1697 263 
Q 1897 263 2019 397 
Q 2141 531 2203 813 
L 2669 813 
Q 2544 313 2259 111 
Q 1975 -91 1375 -91 
Q 691 -91 488 125 
Q 356 263 356 550 
Q 356 706 397 909 
L 794 2944 
z
" transform="scale(0.015625)"/>
      <path id="DejaVuSerif-BoldItalic-61" d="M 2628 2738 
Q 2619 2925 2441 2925 
Q 2022 2925 1613 2425 
Q 1422 2194 1272 1422 
Q 1159 844 1240 620 
Q 1322 397 1619 397 
Q 1909 397 2092 656 
Q 2275 916 2388 1497 
L 2628 2738 
z
M 3691 3222 
L 3144 378 
L 3559 384 
L 3484 0 
L 2097 0 
L 2178 422 
Q 1834 -91 1225 -91 
Q 622 -91 353 307 
Q 84 706 222 1400 
Q 356 2097 956 2700 
Q 1666 3413 2616 3413 
Q 3553 3413 3691 3222 
z
" transform="scale(0.015625)"/>
     </defs>
     <use xlink:href="#DejaVuSerif-BoldItalic-73"/>
     <use xlink:href="#DejaVuSerif-BoldItalic-74" transform="translate(56.298828 0)"/>
     <use xlink:href="#DejaVuSerif-BoldItalic-61" transform="translate(102.490234 0)"/>
     <use xlink:href="#DejaVuSerif-BoldItalic-74" transform="translate(167.285156 0)"/>
     <use xlink:href="#DejaVuSerif-BoldItalic-65" transform="translate(213.476562 0)"/>
    </g>
    <!-- tracking -->
    <g style="fill: #ffffff" transform="translate(310.607936 154.303044) scale(0.075 -0.075)">
     <defs>
      <path id="DejaVuSerif-BoldItalic-72" d="M 3759 3359 
L 3566 2369 
L 3213 2369 
Q 3222 2434 3222 2491 
Q 3222 2666 3147 2763 
Q 3047 2894 2809 2894 
Q 2447 2894 2175 2575 
Q 1903 2256 1794 1691 
L 1466 0 
L 359 0 
L 931 2944 
L 425 2944 
L 497 3322 
L 2109 3322 
L 1997 2731 
Q 2225 3078 2525 3245 
Q 2825 3413 3213 3413 
Q 3309 3413 3445 3398 
Q 3581 3384 3759 3359 
z
" transform="scale(0.015625)"/>
      <path id="DejaVuSerif-BoldItalic-63" d="M 3488 1038 
Q 3259 469 2837 189 
Q 2416 -91 1784 -91 
Q 897 -91 500 369 
Q 216 694 216 1213 
Q 216 1422 263 1663 
Q 422 2488 994 2950 
Q 1566 3413 2422 3413 
Q 2769 3413 3109 3347 
Q 3450 3281 3791 3150 
L 3609 2228 
L 3259 2228 
Q 3266 2300 3266 2366 
Q 3266 2684 3134 2856 
Q 2978 3059 2622 3059 
Q 2159 3059 1903 2746 
Q 1647 2434 1497 1663 
Q 1419 1259 1419 981 
Q 1419 738 1478 588 
Q 1606 263 2038 263 
Q 2372 263 2612 463 
Q 2853 663 2969 1038 
L 3488 1038 
z
" transform="scale(0.015625)"/>
      <path id="DejaVuSerif-BoldItalic-6b" d="M 1325 0 
L 219 0 
L 1091 4488 
L 619 4488 
L 691 4863 
L 2269 4863 
L 1663 1741 
L 3238 2944 
L 2841 2944 
L 2913 3322 
L 3813 3322 
L 3741 2944 
L 2734 2175 
L 3784 378 
L 4144 378 
L 4072 0 
L 2850 0 
L 1938 1563 
L 1575 1288 
L 1325 0 
z
" transform="scale(0.015625)"/>
      <path id="DejaVuSerif-BoldItalic-67" d="M 3084 2738 
Q 3069 2925 2869 2925 
Q 2300 2925 1944 2425 
Q 1722 2109 1588 1422 
Q 1475 844 1570 620 
Q 1666 397 2006 397 
Q 2331 397 2531 656 
Q 2731 916 2844 1497 
L 3084 2738 
z
M 4266 3113 
L 3669 44 
Q 3519 -725 2959 -1038 
Q 2278 -1422 1478 -1422 
Q 1147 -1422 815 -1370 
Q 484 -1319 144 -1216 
L 300 -422 
L 653 -422 
Q 650 -450 650 -475 
Q 650 -763 822 -909 
Q 1009 -1069 1413 -1069 
Q 1925 -1069 2183 -823 
Q 2441 -578 2563 44 
L 2634 422 
Q 2253 -91 1550 -91 
Q 853 -91 531 307 
Q 209 706 344 1400 
Q 509 2250 1300 2863 
Q 2009 3413 3050 3413 
Q 3891 3413 4266 3113 
z
" transform="scale(0.015625)"/>
     </defs>
     <use xlink:href="#DejaVuSerif-BoldItalic-74"/>
     <use xlink:href="#DejaVuSerif-BoldItalic-72" transform="translate(46.191406 0)"/>
     <use xlink:href="#DejaVuSerif-BoldItalic-61" transform="translate(98.876953 0)"/>
     <use xlink:href="#DejaVuSerif-BoldItalic-63" transform="translate(163.671875 0)"/>
     <use xlink:href="#DejaVuSerif-BoldItalic-6b" transform="translate(224.560547 0)"/>
     <use xlink:href="#DejaVuSerif-BoldItalic-69" transform="translate(293.847656 0)"/>
     <use xlink:href="#DejaVuSerif-BoldItalic-6e" transform="translate(331.835938 0)"/>
     <use xlink:href="#DejaVuSerif-BoldItalic-67" transform="translate(404.541016 0)"/>
    </g>
   </g>
   <g id="text_25">
    <!-- Per-step -->
    <g style="fill: #d55e00" transform="translate(428.8004 132.413896) scale(0.075 -0.075)">
     <defs>
      <path id="DejaVuSerif-Italic-50" d="M 1594 2375 
L 2419 2375 
Q 2884 2375 3176 2626 
Q 3469 2878 3559 3353 
Q 3653 3831 3458 4081 
Q 3263 4331 2797 4331 
L 1972 4331 
L 1594 2375 
z
M -97 0 
L -34 331 
L 559 331 
L 1338 4331 
L 744 4331 
L 809 4666 
L 3016 4666 
Q 3716 4666 4056 4311 
Q 4397 3956 4278 3353 
Q 4163 2753 3684 2397 
Q 3206 2041 2506 2041 
L 1528 2041 
L 1194 331 
L 1916 331 
L 1853 0 
L -97 0 
z
" transform="scale(0.015625)"/>
      <path id="DejaVuSerif-Italic-65" d="M 938 1275 
Q 925 1156 925 1050 
Q 925 756 1031 563 
Q 1216 219 1709 219 
Q 2072 219 2250 328 
Q 2569 525 2644 778 
L 3066 778 
Q 2941 381 2475 103 
Q 2150 -91 1506 -91 
Q 863 -91 516 388 
Q 272 722 272 1206 
Q 272 1419 319 1659 
Q 472 2450 1000 2931 
Q 1528 3413 2278 3413 
Q 3500 3413 3500 2547 
Q 3500 1913 2859 1603 
Q 2206 1288 938 1275 
z
M 2541 1975 
Q 2891 2181 2891 2569 
Q 2891 3103 2181 3103 
Q 1763 3103 1472 2784 
Q 1181 2466 1003 1606 
Q 2006 1653 2541 1975 
z
" transform="scale(0.015625)"/>
      <path id="DejaVuSerif-Italic-72" d="M 3375 3328 
L 3213 2497 
L 2881 2497 
Q 2891 2559 2891 2613 
Q 2891 2775 2816 2866 
Q 2719 2988 2484 2988 
Q 2059 2988 1775 2694 
Q 1491 2400 1384 1850 
L 1025 0 
L 450 0 
L 1031 2994 
L 481 2994 
L 544 3322 
L 1669 3322 
L 1556 2731 
Q 1791 3078 2089 3245 
Q 2388 3413 2769 3413 
Q 2909 3413 3059 3391 
Q 3209 3369 3375 3328 
z
" transform="scale(0.015625)"/>
      <path id="DejaVuSerif-Italic-2d" d="M 328 1959 
L 1928 1959 
L 1834 1472 
L 234 1472 
L 328 1959 
z
" transform="scale(0.015625)"/>
      <path id="DejaVuSerif-Italic-73" d="M 222 959 
L 553 959 
Q 541 869 541 788 
Q 541 219 1313 219 
Q 2088 219 2200 788 
Q 2209 844 2209 944 
Q 2209 1041 2103 1158 
Q 1997 1275 1550 1428 
L 1159 1569 
Q 759 1706 629 1882 
Q 500 2059 500 2263 
Q 500 2344 516 2438 
Q 606 2894 990 3153 
Q 1375 3413 1931 3413 
Q 2484 3413 3066 3144 
L 2925 2419 
L 2594 2419 
Q 2606 2491 2606 2553 
Q 2606 2781 2448 2942 
Q 2291 3103 1925 3103 
Q 1191 3103 1091 2591 
Q 1078 2538 1078 2444 
Q 1078 2347 1179 2237 
Q 1281 2128 1678 1997 
L 2106 1856 
Q 2550 1709 2716 1488 
Q 2831 1331 2831 1178 
Q 2831 522 2306 181 
Q 1894 -91 1262 -91 
Q 631 -91 72 184 
L 222 959 
z
" transform="scale(0.015625)"/>
      <path id="DejaVuSerif-Italic-74" d="M 856 2988 
L 350 2988 
L 416 3322 
L 922 3322 
L 1122 4353 
L 1700 4353 
L 1500 3322 
L 2581 3322 
L 2516 2988 
L 1434 2988 
L 1025 878 
Q 978 631 978 488 
Q 978 388 1000 338 
Q 1059 219 1278 219 
Q 1503 219 1633 351 
Q 1763 484 1825 781 
L 2259 781 
Q 2147 328 1884 118 
Q 1622 -91 1169 -91 
Q 672 -91 506 131 
Q 406 266 406 516 
Q 406 675 447 878 
L 856 2988 
z
" transform="scale(0.015625)"/>
      <path id="DejaVuSerif-Italic-70" d="M 1466 1825 
L 1400 1497 
Q 1353 1250 1353 1053 
Q 1353 769 1453 581 
Q 1622 269 2059 269 
Q 2500 269 2795 622 
Q 3091 975 3225 1663 
Q 3284 1978 3284 2225 
Q 3284 2513 3200 2703 
Q 3041 3053 2600 3053 
Q 2163 3053 1872 2737 
Q 1581 2422 1466 1825 
z
M 1116 2988 
L 563 2988 
L 628 3322 
L 1756 3322 
L 1656 2803 
Q 1884 3116 2175 3264 
Q 2466 3413 2850 3413 
Q 3463 3413 3753 2928 
Q 3947 2609 3947 2163 
Q 3947 1928 3897 1663 
Q 3744 881 3262 395 
Q 2781 -91 2169 -91 
Q 1784 -91 1551 57 
Q 1319 206 1213 519 
L 850 -1331 
L 275 -1331 
L 1116 2988 
z
" transform="scale(0.015625)"/>
     </defs>
     <use xlink:href="#DejaVuSerif-Italic-50"/>
     <use xlink:href="#DejaVuSerif-Italic-65" transform="translate(62.785156 0)"/>
     <use xlink:href="#DejaVuSerif-Italic-72" transform="translate(121.964844 0)"/>
     <use xlink:href="#DejaVuSerif-Italic-2d" transform="translate(169.767578 0)"/>
     <use xlink:href="#DejaVuSerif-Italic-73" transform="translate(203.556641 0)"/>
     <use xlink:href="#DejaVuSerif-Italic-74" transform="translate(254.875 0)"/>
     <use xlink:href="#DejaVuSerif-Italic-65" transform="translate(295.060547 0)"/>
     <use xlink:href="#DejaVuSerif-Italic-70" transform="translate(354.240234 0)"/>
    </g>
    <!-- shortcuts -->
    <g style="fill: #d55e00" transform="translate(428.8004 140.812256) scale(0.075 -0.075)">
     <defs>
      <path id="DejaVuSerif-Italic-68" d="M 309 0 
L 1191 4531 
L 641 4531 
L 703 4863 
L 1828 4863 
L 1416 2731 
Q 1641 3069 1928 3241 
Q 2216 3413 2553 3413 
Q 3103 3413 3300 3097 
Q 3422 2906 3422 2588 
Q 3422 2378 3369 2113 
L 3022 331 
L 3534 331 
L 3472 0 
L 2381 0 
L 2756 1931 
Q 2819 2253 2819 2469 
Q 2819 2659 2769 2763 
Q 2666 2988 2284 2988 
Q 1884 2988 1617 2697 
Q 1350 2406 1244 1850 
L 884 0 
L 309 0 
z
" transform="scale(0.015625)"/>
      <path id="DejaVuSerif-Italic-6f" d="M 1644 219 
Q 2106 219 2414 584 
Q 2722 950 2859 1663 
Q 2922 1988 2922 2241 
Q 2922 2541 2834 2738 
Q 2669 3103 2206 3103 
Q 1744 3103 1436 2739 
Q 1128 2375 991 1663 
Q 928 1338 928 1088 
Q 928 784 1019 584 
Q 1184 219 1644 219 
z
M 1584 -91 
Q 859 -91 513 388 
Q 272 722 272 1203 
Q 272 1419 319 1663 
Q 472 2456 1005 2934 
Q 1538 3413 2266 3413 
Q 2994 3413 3341 2934 
Q 3578 2603 3578 2122 
Q 3578 1906 3531 1663 
Q 3378 869 2845 389 
Q 2313 -91 1584 -91 
z
" transform="scale(0.015625)"/>
      <path id="DejaVuSerif-Italic-63" d="M 3163 997 
Q 2938 466 2536 187 
Q 2134 -91 1584 -91 
Q 859 -91 513 388 
Q 272 722 272 1203 
Q 272 1419 319 1663 
Q 475 2459 1008 2936 
Q 1541 3413 2266 3413 
Q 2581 3413 2879 3339 
Q 3178 3266 3463 3116 
L 3300 2266 
L 2966 2266 
Q 2966 2309 2966 2347 
Q 2966 2722 2803 2903 
Q 2622 3103 2213 3103 
Q 1747 3103 1439 2742 
Q 1131 2381 991 1663 
Q 928 1334 928 1078 
Q 928 778 1016 581 
Q 1181 219 1650 219 
Q 2022 219 2281 412 
Q 2541 606 2700 997 
L 3163 997 
z
" transform="scale(0.015625)"/>
      <path id="DejaVuSerif-Italic-75" d="M 3097 3322 
L 3672 3322 
L 3091 331 
L 3634 331 
L 3572 0 
L 2453 0 
L 2566 588 
Q 2341 256 2055 82 
Q 1769 -91 1434 -91 
Q 881 -91 681 225 
Q 559 413 559 734 
Q 559 944 613 1209 
L 956 2988 
L 438 2988 
L 503 3322 
L 1600 3322 
L 1225 1388 
Q 1163 1066 1163 853 
Q 1163 663 1213 556 
Q 1316 331 1697 331 
Q 2097 331 2364 625 
Q 2631 919 2738 1478 
L 3097 3322 
z
" transform="scale(0.015625)"/>
     </defs>
     <use xlink:href="#DejaVuSerif-Italic-73"/>
     <use xlink:href="#DejaVuSerif-Italic-68" transform="translate(51.318359 0)"/>
     <use xlink:href="#DejaVuSerif-Italic-6f" transform="translate(115.722656 0)"/>
     <use xlink:href="#DejaVuSerif-Italic-72" transform="translate(175.927734 0)"/>
     <use xlink:href="#DejaVuSerif-Italic-74" transform="translate(223.730469 0)"/>
     <use xlink:href="#DejaVuSerif-Italic-63" transform="translate(263.916016 0)"/>
     <use xlink:href="#DejaVuSerif-Italic-75" transform="translate(319.921875 0)"/>
     <use xlink:href="#DejaVuSerif-Italic-74" transform="translate(384.326172 0)"/>
     <use xlink:href="#DejaVuSerif-Italic-73" transform="translate(424.511719 0)"/>
    </g>
   </g>
   <g id="text_26">
    <!-- What WMF-AM Reveals -->
    <g transform="translate(302.305017 27.90585) scale(0.1 -0.1)">
     <defs>
      <path id="DejaVuSerif-Bold-4d" d="M 269 0 
L 269 378 
L 863 378 
L 863 4288 
L 269 4288 
L 269 4666 
L 2194 4666 
L 3525 1672 
L 4863 4666 
L 6784 4666 
L 6784 4288 
L 6188 4288 
L 6188 378 
L 6784 378 
L 6784 0 
L 4384 0 
L 4384 378 
L 4978 378 
L 4978 3938 
L 3531 684 
L 2741 684 
L 1300 3938 
L 1300 378 
L 1894 378 
L 1894 0 
L 269 0 
z
" transform="scale(0.015625)"/>
      <path id="DejaVuSerif-Bold-46" d="M 300 0 
L 300 378 
L 897 378 
L 897 4288 
L 300 4288 
L 300 4666 
L 4459 4666 
L 4459 3566 
L 4031 3566 
L 4031 4238 
L 2106 4238 
L 2106 2741 
L 3291 2741 
L 3291 3334 
L 3719 3334 
L 3719 1722 
L 3291 1722 
L 3291 2316 
L 2106 2316 
L 2106 378 
L 2841 378 
L 2841 0 
L 300 0 
z
" transform="scale(0.015625)"/>
      <path id="DejaVuSerif-Bold-2d" d="M 347 2138 
L 2309 2138 
L 2309 1294 
L 347 1294 
L 347 2138 
z
" transform="scale(0.015625)"/>
      <path id="DejaVuSerif-Bold-41" d="M -50 0 
L -50 378 
L 331 378 
L 2088 4666 
L 2834 4666 
L 4594 378 
L 5038 378 
L 5038 0 
L 2853 0 
L 2853 378 
L 3309 378 
L 2925 1331 
L 1172 1331 
L 781 378 
L 1338 378 
L 1338 0 
L -50 0 
z
M 1325 1709 
L 2772 1709 
L 2053 3494 
L 1325 1709 
z
" transform="scale(0.015625)"/>
      <path id="DejaVuSerif-Bold-52" d="M 3397 2278 
Q 3675 2238 3865 2094 
Q 4056 1950 4197 1678 
L 4878 378 
L 5356 378 
L 5356 0 
L 3822 0 
L 3078 1409 
Q 2863 1847 2711 1967 
Q 2559 2088 2291 2088 
L 2100 2088 
L 2100 378 
L 2700 378 
L 2700 0 
L 300 0 
L 300 378 
L 897 378 
L 897 4288 
L 300 4288 
L 300 4666 
L 2963 4666 
Q 3775 4666 4217 4339 
Q 4659 4013 4659 3413 
Q 4659 2925 4345 2642 
Q 4031 2359 3397 2278 
z
M 2100 2463 
L 2509 2463 
Q 2947 2463 3183 2700 
Q 3419 2938 3419 3378 
Q 3419 3819 3183 4053 
Q 2947 4288 2509 4288 
L 2100 4288 
L 2100 2463 
z
" transform="scale(0.015625)"/>
      <path id="DejaVuSerif-Bold-76" d="M 1428 0 
L 250 2944 
L -116 2944 
L -116 3322 
L 1791 3322 
L 1791 2944 
L 1388 2944 
L 2228 844 
L 3066 2944 
L 2631 2944 
L 2631 3322 
L 3878 3322 
L 3878 2944 
L 3494 2944 
L 2316 0 
L 1428 0 
z
" transform="scale(0.015625)"/>
     </defs>
     <use xlink:href="#DejaVuSerif-Bold-57"/>
     <use xlink:href="#DejaVuSerif-Bold-68" transform="translate(112.304688 0)"/>
     <use xlink:href="#DejaVuSerif-Bold-61" transform="translate(185.009766 0)"/>
     <use xlink:href="#DejaVuSerif-Bold-74" transform="translate(249.804688 0)"/>
     <use xlink:href="#DejaVuSerif-Bold-20" transform="translate(295.996094 0)"/>
     <use xlink:href="#DejaVuSerif-Bold-57" transform="translate(330.810547 0)"/>
     <use xlink:href="#DejaVuSerif-Bold-4d" transform="translate(443.115234 0)"/>
     <use xlink:href="#DejaVuSerif-Bold-46" transform="translate(553.808594 0)"/>
     <use xlink:href="#DejaVuSerif-Bold-2d" transform="translate(620.304688 0)"/>
     <use xlink:href="#DejaVuSerif-Bold-41" transform="translate(661.808594 0)"/>
     <use xlink:href="#DejaVuSerif-Bold-4d" transform="translate(739.396484 0)"/>
     <use xlink:href="#DejaVuSerif-Bold-20" transform="translate(850.089844 0)"/>
     <use xlink:href="#DejaVuSerif-Bold-52" transform="translate(884.904297 0)"/>
     <use xlink:href="#DejaVuSerif-Bold-65" transform="translate(968.009766 0)"/>
     <use xlink:href="#DejaVuSerif-Bold-76" transform="translate(1031.632812 0)"/>
     <use xlink:href="#DejaVuSerif-Bold-65" transform="translate(1089.738281 0)"/>
     <use xlink:href="#DejaVuSerif-Bold-61" transform="translate(1153.361328 0)"/>
     <use xlink:href="#DejaVuSerif-Bold-6c" transform="translate(1218.15625 0)"/>
     <use xlink:href="#DejaVuSerif-Bold-73" transform="translate(1256.144531 0)"/>
    </g>
   </g>
  </g>
  <g id="text_27">
   <!-- Both models complete the same task at 0.90 accuracy, yet WMF-AM reveals -->
   <g style="fill: #777777" transform="translate(89.482187 265.2006) scale(0.08 -0.08)">
    <defs>
     <path id="DejaVuSerif-Italic-42" d="M 1194 331 
L 2128 331 
Q 2691 331 2998 575 
Q 3306 819 3409 1350 
Q 3513 1878 3302 2120 
Q 3091 2363 2525 2363 
L 1591 2363 
L 1194 331 
z
M 1653 2694 
L 2447 2694 
Q 2959 2694 3234 2891 
Q 3509 3088 3591 3513 
Q 3675 3941 3476 4136 
Q 3278 4331 2766 4331 
L 1972 4331 
L 1653 2694 
z
M -97 0 
L -34 331 
L 559 331 
L 1338 4331 
L 744 4331 
L 809 4666 
L 3113 4666 
Q 3819 4666 4120 4377 
Q 4422 4088 4309 3513 
Q 4231 3097 3934 2850 
Q 3638 2603 3147 2547 
Q 3728 2472 3976 2167 
Q 4225 1863 4125 1350 
Q 3991 656 3489 328 
Q 2988 0 2059 0 
L -97 0 
z
" transform="scale(0.015625)"/>
     <path id="DejaVuSerif-Italic-20" transform="scale(0.015625)"/>
     <path id="DejaVuSerif-Italic-6d" d="M 3503 2675 
Q 3741 3041 4034 3227 
Q 4328 3413 4672 3413 
Q 5194 3413 5388 3088 
Q 5503 2894 5503 2578 
Q 5503 2372 5453 2113 
L 5106 331 
L 5625 331 
L 5563 0 
L 4469 0 
L 4866 2047 
Q 4913 2291 4913 2466 
Q 4913 2659 4856 2772 
Q 4750 2988 4403 2988 
Q 4019 2988 3761 2697 
Q 3503 2406 3394 1850 
L 3034 0 
L 2459 0 
L 2863 2069 
Q 2906 2303 2906 2472 
Q 2906 2666 2850 2775 
Q 2741 2988 2394 2988 
Q 2009 2988 1751 2697 
Q 1494 2406 1384 1850 
L 1025 0 
L 450 0 
L 1031 2994 
L 481 2994 
L 544 3322 
L 1669 3322 
L 1556 2731 
Q 1778 3063 2059 3238 
Q 2341 3413 2653 3413 
Q 3041 3413 3262 3220 
Q 3484 3028 3503 2675 
z
" transform="scale(0.015625)"/>
     <path id="DejaVuSerif-Italic-64" d="M 3841 4863 
L 2897 0 
L 2322 0 
L 2422 519 
Q 2191 206 1902 57 
Q 1613 -91 1228 -91 
Q 616 -91 322 394 
Q 125 716 125 1166 
Q 125 1397 178 1663 
Q 331 2444 812 2928 
Q 1294 3413 1909 3413 
Q 2294 3413 2525 3264 
Q 2756 3116 2866 2803 
L 3200 4531 
L 2656 4531 
L 2722 4863 
L 3841 4863 
z
M 2613 1497 
L 2675 1825 
Q 2722 2069 2722 2266 
Q 2722 2550 2622 2738 
Q 2456 3053 2019 3053 
Q 1575 3053 1279 2703 
Q 984 2353 850 1663 
Q 788 1347 788 1103 
Q 788 813 875 622 
Q 1031 269 1475 269 
Q 1913 269 2203 583 
Q 2494 897 2613 1497 
z
" transform="scale(0.015625)"/>
     <path id="DejaVuSerif-Italic-6c" d="M 903 331 
L 1447 331 
L 1384 0 
L 266 0 
L 1147 4531 
L 594 4531 
L 656 4863 
L 1784 4863 
L 903 331 
z
" transform="scale(0.015625)"/>
     <path id="DejaVuSerif-Italic-61" d="M 2325 519 
Q 1909 -91 1238 -91 
Q 688 -91 409 281 
Q 216 544 216 919 
Q 216 1078 250 1256 
Q 463 2359 1231 2928 
Q 1884 3413 2675 3413 
Q 3206 3413 3388 3322 
L 2806 331 
L 3300 331 
L 3238 0 
L 2225 0 
L 2325 519 
z
M 822 938 
Q 822 269 1469 269 
Q 1863 269 2130 583 
Q 2397 897 2516 1497 
L 2806 3003 
L 2806 3003 
Q 2806 3094 2556 3094 
Q 1956 3094 1491 2625 
Q 1028 2153 863 1297 
Q 822 1097 822 938 
z
" transform="scale(0.015625)"/>
     <path id="DejaVuSerif-Italic-6b" d="M 2113 2075 
L 3034 331 
L 3513 331 
L 3450 0 
L 2528 0 
L 1622 1697 
L 1088 1275 
L 841 0 
L 266 0 
L 1147 4531 
L 594 4531 
L 656 4863 
L 1784 4863 
L 1169 1697 
L 2822 2988 
L 2344 2988 
L 2406 3322 
L 3341 3322 
L 3278 2988 
L 2113 2075 
z
" transform="scale(0.015625)"/>
     <path id="DejaVuSerif-Italic-30" d="M 1011 744 
Q 1147 219 1625 219 
Q 2103 219 2442 744 
Q 2781 1269 2988 2328 
Q 3194 3391 3058 3916 
Q 2922 4441 2444 4441 
Q 1966 4441 1627 3916 
Q 1288 3391 1081 2328 
Q 875 1269 1011 744 
z
M 1563 -91 
Q 803 -91 501 546 
Q 200 1184 422 2328 
Q 644 3475 1195 4112 
Q 1747 4750 2506 4750 
Q 3269 4750 3569 4112 
Q 3869 3475 3647 2328 
Q 3425 1184 2875 546 
Q 2325 -91 1563 -91 
z
" transform="scale(0.015625)"/>
     <path id="DejaVuSerif-Italic-2e" d="M 664 29 
Q 569 150 603 325 
Q 638 500 780 622 
Q 922 744 1100 744 
Q 1272 744 1370 622 
Q 1469 500 1434 325 
Q 1400 153 1254 31 
Q 1109 -91 938 -91 
Q 759 -91 664 29 
z
" transform="scale(0.015625)"/>
     <path id="DejaVuSerif-Italic-39" d="M 2947 2091 
Q 2694 1856 2398 1740 
Q 2103 1625 1763 1625 
Q 1069 1625 748 2044 
Q 428 2463 569 3188 
Q 706 3897 1226 4323 
Q 1747 4750 2475 4750 
Q 3266 4750 3573 4161 
Q 3881 3572 3669 2478 
Q 3431 1253 2797 581 
Q 2163 -91 1250 -91 
Q 1003 -91 740 -44 
Q 478 3 213 97 
L 363 872 
L 713 872 
Q 694 556 864 387 
Q 1034 219 1375 219 
Q 1981 219 2367 676 
Q 2753 1134 2947 2091 
z
M 2388 4441 
Q 1944 4441 1645 4117 
Q 1347 3794 1230 3187 
Q 1113 2581 1284 2256 
Q 1456 1931 1900 1931 
Q 2344 1931 2641 2245 
Q 2938 2559 3053 3150 
Q 3175 3772 3001 4106 
Q 2828 4441 2388 4441 
z
" transform="scale(0.015625)"/>
     <path id="DejaVuSerif-Italic-79" d="M 3681 3294 
Q 3372 1506 2828 563 
Q 2031 -822 1391 -1238 
Q 1106 -1422 356 -1422 
Q 209 -1422 60 -1397 
Q -88 -1372 -238 -1325 
L -113 -691 
L 181 -691 
Q 175 -741 175 -788 
Q 175 -919 231 -994 
Q 309 -1100 513 -1100 
Q 1063 -1100 1541 -622 
L 756 2988 
L 378 2988 
L 444 3322 
L 1303 3322 
L 2041 25 
Q 2544 778 2666 1088 
Q 3059 2059 3138 2959 
L 2759 2959 
L 2825 3294 
L 3681 3294 
z
" transform="scale(0.015625)"/>
     <path id="DejaVuSerif-Italic-2c" d="M 125 -622 
Q 463 -406 656 -114 
Q 850 178 931 594 
L 953 709 
L 1569 709 
Q 1441 175 1139 -208 
Q 838 -591 328 -872 
L 125 -622 
z
" transform="scale(0.015625)"/>
     <path id="DejaVuSerif-Italic-57" d="M 4425 0 
L 3913 0 
L 3581 3794 
L 1775 0 
L 1263 0 
L 881 4331 
L 419 4331 
L 484 4666 
L 2188 4666 
L 2122 4331 
L 1541 4331 
L 1844 884 
L 3641 4666 
L 4147 4666 
L 4484 844 
L 6141 4331 
L 5603 4331 
L 5669 4666 
L 7013 4666 
L 6947 4331 
L 6488 4331 
L 4425 0 
z
" transform="scale(0.015625)"/>
     <path id="DejaVuSerif-Italic-4d" d="M -97 0 
L -34 331 
L 559 331 
L 1338 4331 
L 709 4331 
L 775 4666 
L 2134 4666 
L 3125 1344 
L 5409 4666 
L 6684 4666 
L 6619 4331 
L 5997 4331 
L 5222 331 
L 5816 331 
L 5753 0 
L 3928 0 
L 3991 331 
L 4584 331 
L 5288 3938 
L 3053 684 
L 2613 684 
L 1647 3938 
L 944 331 
L 1538 331 
L 1475 0 
L -97 0 
z
" transform="scale(0.015625)"/>
     <path id="DejaVuSerif-Italic-46" d="M -97 0 
L -34 331 
L 559 331 
L 1338 4331 
L 744 4331 
L 809 4666 
L 4628 4666 
L 4428 3628 
L 4044 3628 
L 4169 4281 
L 1963 4281 
L 1659 2719 
L 3253 2719 
L 3366 3303 
L 3750 3303 
L 3450 1753 
L 3066 1753 
L 3178 2338 
L 1584 2338 
L 1194 331 
L 1941 331 
L 1878 0 
L -97 0 
z
" transform="scale(0.015625)"/>
     <path id="DejaVuSerif-Italic-41" d="M 1159 1691 
L 2872 1691 
L 2447 3909 
L 1159 1691 
z
M -488 0 
L -425 331 
L -16 331 
L 2491 4666 
L 3016 4666 
L 3841 331 
L 4297 331 
L 4234 0 
L 2538 0 
L 2600 331 
L 3119 331 
L 2928 1356 
L 966 1356 
L 375 331 
L 888 331 
L 825 0 
L -488 0 
z
" transform="scale(0.015625)"/>
     <path id="DejaVuSerif-Italic-76" d="M 1681 0 
L 1259 0 
L 619 2988 
L 241 2988 
L 303 3322 
L 1163 3322 
L 1725 703 
Q 2084 1016 2325 1413 
Q 2825 2238 3003 2988 
L 2622 2988 
L 2688 3322 
L 3547 3322 
Q 3206 2034 2775 1313 
Q 2400 688 1681 0 
z
" transform="scale(0.015625)"/>
    </defs>
    <use xlink:href="#DejaVuSerif-Italic-42"/>
    <use xlink:href="#DejaVuSerif-Italic-6f" transform="translate(73.486328 0)"/>
    <use xlink:href="#DejaVuSerif-Italic-74" transform="translate(133.691406 0)"/>
    <use xlink:href="#DejaVuSerif-Italic-68" transform="translate(173.876953 0)"/>
    <use xlink:href="#DejaVuSerif-Italic-20" transform="translate(238.28125 0)"/>
    <use xlink:href="#DejaVuSerif-Italic-6d" transform="translate(270.068359 0)"/>
    <use xlink:href="#DejaVuSerif-Italic-6f" transform="translate(364.892578 0)"/>
    <use xlink:href="#DejaVuSerif-Italic-64" transform="translate(425.097656 0)"/>
    <use xlink:href="#DejaVuSerif-Italic-65" transform="translate(489.111328 0)"/>
    <use xlink:href="#DejaVuSerif-Italic-6c" transform="translate(548.291016 0)"/>
    <use xlink:href="#DejaVuSerif-Italic-73" transform="translate(580.273438 0)"/>
    <use xlink:href="#DejaVuSerif-Italic-20" transform="translate(631.591797 0)"/>
    <use xlink:href="#DejaVuSerif-Italic-63" transform="translate(663.378906 0)"/>
    <use xlink:href="#DejaVuSerif-Italic-6f" transform="translate(719.384766 0)"/>
    <use xlink:href="#DejaVuSerif-Italic-6d" transform="translate(779.589844 0)"/>
    <use xlink:href="#DejaVuSerif-Italic-70" transform="translate(874.414062 0)"/>
    <use xlink:href="#DejaVuSerif-Italic-6c" transform="translate(938.427734 0)"/>
    <use xlink:href="#DejaVuSerif-Italic-65" transform="translate(970.410156 0)"/>
    <use xlink:href="#DejaVuSerif-Italic-74" transform="translate(1029.589844 0)"/>
    <use xlink:href="#DejaVuSerif-Italic-65" transform="translate(1069.775391 0)"/>
    <use xlink:href="#DejaVuSerif-Italic-20" transform="translate(1128.955078 0)"/>
    <use xlink:href="#DejaVuSerif-Italic-74" transform="translate(1160.742188 0)"/>
    <use xlink:href="#DejaVuSerif-Italic-68" transform="translate(1200.927734 0)"/>
    <use xlink:href="#DejaVuSerif-Italic-65" transform="translate(1265.332031 0)"/>
    <use xlink:href="#DejaVuSerif-Italic-20" transform="translate(1324.511719 0)"/>
    <use xlink:href="#DejaVuSerif-Italic-73" transform="translate(1356.298828 0)"/>
    <use xlink:href="#DejaVuSerif-Italic-61" transform="translate(1407.617188 0)"/>
    <use xlink:href="#DejaVuSerif-Italic-6d" transform="translate(1467.236328 0)"/>
    <use xlink:href="#DejaVuSerif-Italic-65" transform="translate(1562.060547 0)"/>
    <use xlink:href="#DejaVuSerif-Italic-20" transform="translate(1621.240234 0)"/>
    <use xlink:href="#DejaVuSerif-Italic-74" transform="translate(1653.027344 0)"/>
    <use xlink:href="#DejaVuSerif-Italic-61" transform="translate(1693.212891 0)"/>
    <use xlink:href="#DejaVuSerif-Italic-73" transform="translate(1752.832031 0)"/>
    <use xlink:href="#DejaVuSerif-Italic-6b" transform="translate(1804.150391 0)"/>
    <use xlink:href="#DejaVuSerif-Italic-20" transform="translate(1864.746094 0)"/>
    <use xlink:href="#DejaVuSerif-Italic-61" transform="translate(1896.533203 0)"/>
    <use xlink:href="#DejaVuSerif-Italic-74" transform="translate(1956.152344 0)"/>
    <use xlink:href="#DejaVuSerif-Italic-20" transform="translate(1996.337891 0)"/>
    <use xlink:href="#DejaVuSerif-Italic-30" transform="translate(2028.125 0)"/>
    <use xlink:href="#DejaVuSerif-Italic-2e" transform="translate(2091.748047 0)"/>
    <use xlink:href="#DejaVuSerif-Italic-39" transform="translate(2123.535156 0)"/>
    <use xlink:href="#DejaVuSerif-Italic-30" transform="translate(2187.158203 0)"/>
    <use xlink:href="#DejaVuSerif-Italic-20" transform="translate(2250.78125 0)"/>
    <use xlink:href="#DejaVuSerif-Italic-61" transform="translate(2282.568359 0)"/>
    <use xlink:href="#DejaVuSerif-Italic-63" transform="translate(2342.1875 0)"/>
    <use xlink:href="#DejaVuSerif-Italic-63" transform="translate(2398.193359 0)"/>
    <use xlink:href="#DejaVuSerif-Italic-75" transform="translate(2454.199219 0)"/>
    <use xlink:href="#DejaVuSerif-Italic-72" transform="translate(2518.603516 0)"/>
    <use xlink:href="#DejaVuSerif-Italic-61" transform="translate(2566.40625 0)"/>
    <use xlink:href="#DejaVuSerif-Italic-63" transform="translate(2626.025391 0)"/>
    <use xlink:href="#DejaVuSerif-Italic-79" transform="translate(2682.03125 0)"/>
    <use xlink:href="#DejaVuSerif-Italic-2c" transform="translate(2725.275391 0)"/>
    <use xlink:href="#DejaVuSerif-Italic-20" transform="translate(2757.0625 0)"/>
    <use xlink:href="#DejaVuSerif-Italic-79" transform="translate(2788.849609 0)"/>
    <use xlink:href="#DejaVuSerif-Italic-65" transform="translate(2845.34375 0)"/>
    <use xlink:href="#DejaVuSerif-Italic-74" transform="translate(2904.523438 0)"/>
    <use xlink:href="#DejaVuSerif-Italic-20" transform="translate(2944.708984 0)"/>
    <use xlink:href="#DejaVuSerif-Italic-57" transform="translate(2976.496094 0)"/>
    <use xlink:href="#DejaVuSerif-Italic-4d" transform="translate(3079.279297 0)"/>
    <use xlink:href="#DejaVuSerif-Italic-46" transform="translate(3181.671875 0)"/>
    <use xlink:href="#DejaVuSerif-Italic-2d" transform="translate(3246.556641 0)"/>
    <use xlink:href="#DejaVuSerif-Italic-41" transform="translate(3280.345703 0)"/>
    <use xlink:href="#DejaVuSerif-Italic-4d" transform="translate(3352.5625 0)"/>
    <use xlink:href="#DejaVuSerif-Italic-20" transform="translate(3454.955078 0)"/>
    <use xlink:href="#DejaVuSerif-Italic-72" transform="translate(3486.742188 0)"/>
    <use xlink:href="#DejaVuSerif-Italic-65" transform="translate(3534.544922 0)"/>
    <use xlink:href="#DejaVuSerif-Italic-76" transform="translate(3593.724609 0)"/>
    <use xlink:href="#DejaVuSerif-Italic-65" transform="translate(3650.21875 0)"/>
    <use xlink:href="#DejaVuSerif-Italic-61" transform="translate(3709.398438 0)"/>
    <use xlink:href="#DejaVuSerif-Italic-6c" transform="translate(3769.017578 0)"/>
    <use xlink:href="#DejaVuSerif-Italic-73" transform="translate(3801 0)"/>
   </g>
   <!-- a 0.683-point gap in cumulative arithmetic state-tracking competence. -->
   <g style="fill: #777777" transform="translate(100.127812 274.2726) scale(0.08 -0.08)">
    <defs>
     <path id="DejaVuSerif-Italic-36" d="M 1070 553 
Q 1244 219 1684 219 
Q 2125 219 2425 542 
Q 2725 866 2842 1472 
Q 2959 2078 2786 2401 
Q 2613 2725 2172 2725 
Q 1725 2725 1429 2412 
Q 1134 2100 1019 1509 
Q 897 888 1070 553 
z
M 1122 2569 
Q 1378 2803 1670 2918 
Q 1963 3034 2300 3034 
Q 2997 3034 3320 2615 
Q 3644 2197 3503 1472 
Q 3366 763 2845 336 
Q 2325 -91 1597 -91 
Q 806 -91 497 498 
Q 188 1088 400 2181 
Q 638 3406 1272 4078 
Q 1906 4750 2822 4750 
Q 3069 4750 3331 4703 
Q 3594 4656 3859 4563 
L 3709 3794 
L 3356 3794 
Q 3381 4109 3209 4275 
Q 3038 4441 2694 4441 
Q 2088 4441 1702 3981 
Q 1316 3522 1122 2569 
z
" transform="scale(0.015625)"/>
     <path id="DejaVuSerif-Italic-38" d="M 2775 1275 
Q 2872 1775 2678 2051 
Q 2484 2328 2034 2328 
Q 1584 2328 1281 2051 
Q 978 1775 881 1275 
Q 784 772 979 495 
Q 1175 219 1625 219 
Q 2075 219 2376 495 
Q 2678 772 2775 1275 
z
M 3088 3541 
Q 3172 3966 3001 4203 
Q 2831 4441 2444 4441 
Q 2059 4441 1796 4203 
Q 1534 3966 1450 3541 
Q 1369 3113 1539 2875 
Q 1709 2638 2094 2638 
Q 2481 2638 2743 2875 
Q 3006 3113 3088 3541 
z
M 2547 2484 
Q 3063 2413 3297 2092 
Q 3531 1772 3434 1275 
Q 3309 619 2823 264 
Q 2338 -91 1563 -91 
Q 791 -91 444 264 
Q 97 619 222 1275 
Q 319 1772 678 2092 
Q 1038 2413 1588 2484 
Q 1131 2569 932 2842 
Q 734 3116 816 3541 
Q 925 4103 1376 4426 
Q 1828 4750 2506 4750 
Q 3184 4750 3507 4426 
Q 3831 4103 3722 3541 
Q 3641 3116 3336 2842 
Q 3031 2569 2547 2484 
z
" transform="scale(0.015625)"/>
     <path id="DejaVuSerif-Italic-33" d="M 1038 4469 
Q 1431 4606 1781 4678 
Q 2131 4750 2425 4750 
Q 3109 4750 3436 4454 
Q 3763 4159 3659 3634 
Q 3578 3213 3258 2930 
Q 2938 2647 2431 2547 
Q 2988 2466 3241 2130 
Q 3494 1794 3388 1259 
Q 3263 606 2755 257 
Q 2247 -91 1422 -91 
Q 1056 -91 723 -12 
Q 391 66 78 225 
L 253 1131 
L 603 1131 
Q 547 681 775 450 
Q 1003 219 1497 219 
Q 1975 219 2304 495 
Q 2634 772 2728 1253 
Q 2834 1803 2604 2086 
Q 2375 2369 1825 2369 
L 1528 2369 
L 1591 2688 
L 1747 2688 
Q 2294 2688 2611 2914 
Q 2928 3141 3019 3597 
Q 3097 4006 2914 4223 
Q 2731 4441 2309 4441 
Q 1888 4441 1616 4241 
Q 1344 4041 1228 3647 
L 878 3647 
L 1038 4469 
z
" transform="scale(0.015625)"/>
     <path id="DejaVuSerif-Italic-69" d="M 1009 4353 
Q 1038 4497 1163 4603 
Q 1288 4709 1434 4709 
Q 1578 4709 1663 4603 
Q 1728 4522 1728 4422 
Q 1728 4388 1719 4353 
Q 1691 4206 1567 4103 
Q 1444 4000 1297 4000 
Q 1150 4000 1066 4103 
Q 1003 4181 1003 4281 
Q 1003 4316 1009 4353 
z
M 963 331 
L 1506 331 
L 1444 0 
L 325 0 
L 903 2988 
L 353 2988 
L 419 3322 
L 1544 3322 
L 963 331 
z
" transform="scale(0.015625)"/>
     <path id="DejaVuSerif-Italic-6e" d="M 450 0 
L 1031 2988 
L 481 2988 
L 544 3322 
L 1669 3322 
L 1556 2731 
Q 1781 3069 2068 3241 
Q 2356 3413 2694 3413 
Q 3244 3413 3444 3097 
Q 3563 2906 3563 2588 
Q 3563 2378 3509 2113 
L 3163 331 
L 3675 331 
L 3613 0 
L 2522 0 
L 2897 1931 
Q 2959 2253 2959 2469 
Q 2959 2659 2909 2769 
Q 2803 2994 2425 2994 
Q 2025 2994 1759 2701 
Q 1494 2409 1384 1850 
L 1025 0 
L 450 0 
z
" transform="scale(0.015625)"/>
     <path id="DejaVuSerif-Italic-67" d="M 3822 3322 
L 3188 72 
Q 3044 -672 2581 -1031 
Q 2078 -1422 1381 -1422 
Q 1053 -1422 765 -1362 
Q 478 -1303 225 -1184 
L 363 -488 
L 663 -488 
Q 653 -813 834 -963 
Q 1016 -1113 1406 -1113 
Q 1913 -1113 2203 -825 
Q 2494 -544 2613 72 
L 2700 519 
Q 2472 206 2181 57 
Q 1891 -91 1525 -91 
Q 975 -91 697 281 
Q 522 516 503 841 
Q 491 1031 534 1256 
Q 750 2359 1516 2928 
Q 2169 3409 2931 3413 
Q 3631 3416 3822 3322 
z
M 3184 2988 
Q 3181 3094 2844 3094 
Q 2234 3094 1775 2625 
Q 1316 2153 1147 1297 
Q 1100 1044 1113 853 
Q 1125 659 1203 528 
Q 1356 269 1756 269 
Q 2194 269 2484 583 
Q 2775 897 2891 1497 
L 2953 1825 
L 3184 2988 
z
" transform="scale(0.015625)"/>
    </defs>
    <use xlink:href="#DejaVuSerif-Italic-61"/>
    <use xlink:href="#DejaVuSerif-Italic-20" transform="translate(59.619141 0)"/>
    <use xlink:href="#DejaVuSerif-Italic-30" transform="translate(91.40625 0)"/>
    <use xlink:href="#DejaVuSerif-Italic-2e" transform="translate(155.029297 0)"/>
    <use xlink:href="#DejaVuSerif-Italic-36" transform="translate(186.816406 0)"/>
    <use xlink:href="#DejaVuSerif-Italic-38" transform="translate(250.439453 0)"/>
    <use xlink:href="#DejaVuSerif-Italic-33" transform="translate(314.0625 0)"/>
    <use xlink:href="#DejaVuSerif-Italic-2d" transform="translate(377.685547 0)"/>
    <use xlink:href="#DejaVuSerif-Italic-70" transform="translate(411.474609 0)"/>
    <use xlink:href="#DejaVuSerif-Italic-6f" transform="translate(475.488281 0)"/>
    <use xlink:href="#DejaVuSerif-Italic-69" transform="translate(535.693359 0)"/>
    <use xlink:href="#DejaVuSerif-Italic-6e" transform="translate(567.675781 0)"/>
    <use xlink:href="#DejaVuSerif-Italic-74" transform="translate(632.080078 0)"/>
    <use xlink:href="#DejaVuSerif-Italic-20" transform="translate(672.265625 0)"/>
    <use xlink:href="#DejaVuSerif-Italic-67" transform="translate(704.052734 0)"/>
    <use xlink:href="#DejaVuSerif-Italic-61" transform="translate(768.066406 0)"/>
    <use xlink:href="#DejaVuSerif-Italic-70" transform="translate(827.685547 0)"/>
    <use xlink:href="#DejaVuSerif-Italic-20" transform="translate(891.699219 0)"/>
    <use xlink:href="#DejaVuSerif-Italic-69" transform="translate(923.486328 0)"/>
    <use xlink:href="#DejaVuSerif-Italic-6e" transform="translate(955.46875 0)"/>
    <use xlink:href="#DejaVuSerif-Italic-20" transform="translate(1019.873047 0)"/>
    <use xlink:href="#DejaVuSerif-Italic-63" transform="translate(1051.660156 0)"/>
    <use xlink:href="#DejaVuSerif-Italic-75" transform="translate(1107.666016 0)"/>
    <use xlink:href="#DejaVuSerif-Italic-6d" transform="translate(1172.070312 0)"/>
    <use xlink:href="#DejaVuSerif-Italic-75" transform="translate(1266.894531 0)"/>
    <use xlink:href="#DejaVuSerif-Italic-6c" transform="translate(1331.298828 0)"/>
    <use xlink:href="#DejaVuSerif-Italic-61" transform="translate(1363.28125 0)"/>
    <use xlink:href="#DejaVuSerif-Italic-74" transform="translate(1422.900391 0)"/>
    <use xlink:href="#DejaVuSerif-Italic-69" transform="translate(1463.085938 0)"/>
    <use xlink:href="#DejaVuSerif-Italic-76" transform="translate(1495.068359 0)"/>
    <use xlink:href="#DejaVuSerif-Italic-65" transform="translate(1551.5625 0)"/>
    <use xlink:href="#DejaVuSerif-Italic-20" transform="translate(1610.742188 0)"/>
    <use xlink:href="#DejaVuSerif-Italic-61" transform="translate(1642.529297 0)"/>
    <use xlink:href="#DejaVuSerif-Italic-72" transform="translate(1702.148438 0)"/>
    <use xlink:href="#DejaVuSerif-Italic-69" transform="translate(1749.951172 0)"/>
    <use xlink:href="#DejaVuSerif-Italic-74" transform="translate(1781.933594 0)"/>
    <use xlink:href="#DejaVuSerif-Italic-68" transform="translate(1822.119141 0)"/>
    <use xlink:href="#DejaVuSerif-Italic-6d" transform="translate(1886.523438 0)"/>
    <use xlink:href="#DejaVuSerif-Italic-65" transform="translate(1981.347656 0)"/>
    <use xlink:href="#DejaVuSerif-Italic-74" transform="translate(2040.527344 0)"/>
    <use xlink:href="#DejaVuSerif-Italic-69" transform="translate(2080.712891 0)"/>
    <use xlink:href="#DejaVuSerif-Italic-63" transform="translate(2112.695312 0)"/>
    <use xlink:href="#DejaVuSerif-Italic-20" transform="translate(2168.701172 0)"/>
    <use xlink:href="#DejaVuSerif-Italic-73" transform="translate(2200.488281 0)"/>
    <use xlink:href="#DejaVuSerif-Italic-74" transform="translate(2251.806641 0)"/>
    <use xlink:href="#DejaVuSerif-Italic-61" transform="translate(2291.992188 0)"/>
    <use xlink:href="#DejaVuSerif-Italic-74" transform="translate(2351.611328 0)"/>
    <use xlink:href="#DejaVuSerif-Italic-65" transform="translate(2391.796875 0)"/>
    <use xlink:href="#DejaVuSerif-Italic-2d" transform="translate(2450.976562 0)"/>
    <use xlink:href="#DejaVuSerif-Italic-74" transform="translate(2484.765625 0)"/>
    <use xlink:href="#DejaVuSerif-Italic-72" transform="translate(2524.951172 0)"/>
    <use xlink:href="#DejaVuSerif-Italic-61" transform="translate(2572.753906 0)"/>
    <use xlink:href="#DejaVuSerif-Italic-63" transform="translate(2632.373047 0)"/>
    <use xlink:href="#DejaVuSerif-Italic-6b" transform="translate(2688.378906 0)"/>
    <use xlink:href="#DejaVuSerif-Italic-69" transform="translate(2748.974609 0)"/>
    <use xlink:href="#DejaVuSerif-Italic-6e" transform="translate(2780.957031 0)"/>
    <use xlink:href="#DejaVuSerif-Italic-67" transform="translate(2845.361328 0)"/>
    <use xlink:href="#DejaVuSerif-Italic-20" transform="translate(2909.375 0)"/>
    <use xlink:href="#DejaVuSerif-Italic-63" transform="translate(2941.162109 0)"/>
    <use xlink:href="#DejaVuSerif-Italic-6f" transform="translate(2997.167969 0)"/>
    <use xlink:href="#DejaVuSerif-Italic-6d" transform="translate(3057.373047 0)"/>
    <use xlink:href="#DejaVuSerif-Italic-70" transform="translate(3152.197266 0)"/>
    <use xlink:href="#DejaVuSerif-Italic-65" transform="translate(3216.210938 0)"/>
    <use xlink:href="#DejaVuSerif-Italic-74" transform="translate(3275.390625 0)"/>
    <use xlink:href="#DejaVuSerif-Italic-65" transform="translate(3315.576172 0)"/>
    <use xlink:href="#DejaVuSerif-Italic-6e" transform="translate(3374.755859 0)"/>
    <use xlink:href="#DejaVuSerif-Italic-63" transform="translate(3439.160156 0)"/>
    <use xlink:href="#DejaVuSerif-Italic-65" transform="translate(3495.166016 0)"/>
    <use xlink:href="#DejaVuSerif-Italic-2e" transform="translate(3554.345703 0)"/>
   </g>
  </g>
 </g>
 <defs>
  <clipPath id="p0757e19ff1">
   <rect x="49.175938" y="33.90585" width="166.016529" height="188.496"/>
  </clipPath>
  <clipPath id="pe1d996d6fd">
   <rect x="284.919409" y="33.90585" width="166.016529" height="188.496"/>
  </clipPath>
 </defs>
</svg>
